<svg height="68.607" viewBox="0 0 68.607 68.607" width="68.607" xmlns="http://www.w3.org/2000/svg"><path d="m21.428 115.343a34.589 34.589 0 0 1 -3.09-4.48 26.721 26.721 0 0 0 -8.338 18.159 9.936 9.936 0 0 1 5.619-2.233 21.378 21.378 0 0 1 5.809-11.446zm0 0" fill="#ff5a58" transform="translate(-8.66 -96.074)"/><path d="m63.7 160.207h9.38s-9.112-5.092-9.782-8.04-1.066-7.039-5.558-7.874a21.382 21.382 0 0 0 -5.809 11.446c3.729 0 5.069 4.468 11.769 4.468zm0 0" fill="#ffe6b4" transform="translate(-44.974 -125.025)"/><path d="m35.36 296.545a21.561 21.561 0 0 1 .291-3.53 9.933 9.933 0 0 0 -5.619 2.234c-.02.43-.032.862-.032 1.3a26.805 26.805 0 0 0 15.881 24.481 32.189 32.189 0 0 1 .87-5.538 21.436 21.436 0 0 1 -11.391-18.947zm0 0" fill="#ff5a58" transform="translate(-25.98 -253.818)"/><path d="m91.44 297.483h-9.38c-6.7 0-8.04-4.468-11.769-4.468a21.458 21.458 0 0 0 11.1 22.472 41.661 41.661 0 0 1 10.049-18.004zm0 0" fill="#ffe6b4" transform="translate(-60.62 -253.818)"/><path d="m253.661 315.738a21.445 21.445 0 0 1 -31.409 17.109 32.2 32.2 0 0 0 -.87 5.538 26.811 26.811 0 0 0 37.6-21.994zm0 0" fill="#ff5a58" transform="translate(-191.717 -273.496)"/><path d="m245.695 311.333-7.772-2.278a41.661 41.661 0 0 0 -10.048 18 21.445 21.445 0 0 0 31.409-17.109l-7.291-.9zm0 0" fill="#ffe6b4" transform="translate(-197.339 -267.709)"/><path d="m439.816 152.938a21.333 21.333 0 0 1 2.973 10.894c0 .618-.028 1.229-.079 1.834l5.323.653c.075-.819.116-1.648.116-2.487a26.671 26.671 0 0 0 -4.113-14.27c-1.317 1.077-2.8 2.273-4.219 3.376zm0 0" fill="#ff5a58" transform="translate(-380.881 -129.588)"/><path d="m320.467 174.754c-3.91 3.041-9.087 1.782-12.3 4.328s-6.164 7.5-6.164 7.5l7.772 2.278 6.3-2.278 7.291.9q.077-.907.079-1.834a21.328 21.328 0 0 0 -2.978-10.894zm0 0" fill="#ffe6b4" transform="translate(-261.532 -151.404)"/><path d="m175.358 25.96a21.439 21.439 0 0 0 -33.807-4.082 34.533 34.533 0 0 1 -3.09-4.479 26.8 26.8 0 0 1 41.117 5.186c-1.317 1.077-2.8 2.273-4.219 3.376zm0 0" fill="#ff5a58" transform="translate(-119.907 -8.774)"/><path d="m221.638 50.055a21.357 21.357 0 0 0 -8.412 1.715l2.746 5.33s4.912-1.549 5.666 1.8c1.206 5.36 0 13.534 0 13.534s2.948-4.958 6.164-7.5 8.393-1.287 12.3-4.328a21.427 21.427 0 0 0 -18.467-10.546zm0 0" fill="#ffe6b4" transform="translate(-184.654 -43.414)"/><path d="m189.5 154.042c-.435-1.935-6.083-.911-6.083-.911a22.463 22.463 0 0 0 -.24 4.087c.387 1.7 6.324 4.646 6.324 4.646a26.826 26.826 0 0 0 -.001-7.822zm0 0" fill="#ffe6b4" transform="translate(-158.586 -132.443)"/><path d="m393.077 466.3a1.343 1.343 0 1 0 .665 2.51s0 0 0 0a1.345 1.345 0 0 0 .5-1.83 1.345 1.345 0 0 0 -1.165-.68zm0 0" transform="translate(-339.246 -403.884)"/><path d="m286.15 3.178c.041 0 .084.005.126.005a1.334 1.334 0 1 0 -.126-.005zm0 0" transform="translate(-246.754 -.499)"/><path d="m251.371 301.18a1.334 1.334 0 0 0 -.879-.492l-12.614-1.551a1.34 1.34 0 0 0 -.619.07l-5.885 2.132-7.352-2.159a1.339 1.339 0 0 0 -1.313.328 42.735 42.735 0 0 0 -10.409 18.676 33.709 33.709 0 0 0 -.9 5.774 1.35 1.35 0 0 0 .79 1.317 28.2 28.2 0 0 0 19.567 1.252 1.342 1.342 0 0 0 -.77-2.572 25.529 25.529 0 0 1 -16.835-.763c.091-.91.225-1.834.4-2.745a22.72 22.72 0 0 0 9.1 1.9 22.806 22.806 0 0 0 19.947-11.794 22.616 22.616 0 0 0 2.589-7.691l2.661.326a25.55 25.55 0 0 1 -7.994 15.139 1.341 1.341 0 0 0 1.812 1.979 28.123 28.123 0 0 0 9-18.163 1.335 1.335 0 0 0 -.292-.965zm-27.726 18.485a20.141 20.141 0 0 1 -8.474-1.873 41.237 41.237 0 0 1 8.882-15.8l6.988 2.052a1.341 1.341 0 0 0 .833-.026l6-2.173 5.651.7a20.237 20.237 0 0 1 -19.875 17.128zm0 0" transform="translate(-183.061 -259.112)"/><path d="m131.87 15.123a1.34 1.34 0 0 0 1.975.062 20.163 20.163 0 0 1 5.364-3.94l2.16 4.2a1.339 1.339 0 0 0 1.594.666 5.277 5.277 0 0 1 3.392-.011 1.145 1.145 0 0 1 .563.828c1.136 5.058-.007 12.987-.018 13.067a1.34 1.34 0 0 0 2.477.882c.028-.048 2.864-4.787 5.844-7.151 1.272-1.009 3-1.312 5.008-1.663 2.335-.409 4.982-.872 7.287-2.666 1.244-.969 2.672-2.114 4.244-3.4a1.346 1.346 0 0 0 .286-1.756 28.272 28.272 0 0 0 -6.434-7.153 27.974 27.974 0 0 0 -8.538-4.6 1.342 1.342 0 0 0 -.842 2.549 25.644 25.644 0 0 1 12.892 9.649c-.73.594-1.436 1.16-2.1 1.683a22.723 22.723 0 0 0 -18.801-9.939 22.687 22.687 0 0 0 -15.2 5.826c-.47-.643-.977-1.4-1.507-2.248a25.294 25.294 0 0 1 13.4-6.049 1.343 1.343 0 0 0 -.17-2.674 1.622 1.622 0 0 0 -.174.01 28.028 28.028 0 0 0 -15.7 7.49 1.344 1.344 0 0 0 -.229 1.663 34.674 34.674 0 0 0 3.225 4.674zm16.356-6.008a20.2 20.2 0 0 1 16.632 8.829 15.971 15.971 0 0 1 -5.09 1.474c-2.166.379-4.405.77-6.21 2.2a23.213 23.213 0 0 0 -3.527 3.647 35.163 35.163 0 0 0 -.5-8.93 3.836 3.836 0 0 0 -1.841-2.565 5.517 5.517 0 0 0 -2.752-.644 9.56 9.56 0 0 0 -1.667.155l-1.582-3.081a19.953 19.953 0 0 1 6.537-1.089zm0 0" transform="translate(-111.242 -1.18)"/><path d="m10.263 120.738a13.253 13.253 0 0 0 8.465 2.968h9.38a1.343 1.343 0 0 0 .654-2.515c-.022-.012-2.247-1.261-4.529-2.85-4.089-2.847-4.549-4.106-4.6-4.33-.063-.28-.125-.571-.187-.868-.575-2.739-1.435-6.831-5.943-7.936a36.362 36.362 0 0 1 -2.675-3.962 1.339 1.339 0 0 0 -2.072-.286 28.061 28.061 0 0 0 -8.756 19.103 1.342 1.342 0 0 0 .711 1.25 1.374 1.374 0 0 0 1.433-.114 8.629 8.629 0 0 1 4.813-1.968c1.169 0 2.064.632 3.3 1.507zm6.56-7.041c.065.312.13.617.2.91.229 1.01 1.068 2.725 5.684 5.939.233.162.465.321.694.475h-4.67a10.68 10.68 0 0 1 -6.921-2.478 10.873 10.873 0 0 0 -3.257-1.777 19.987 19.987 0 0 1 4.66-8.856c2.377.746 2.99 2.814 3.614 5.787zm-13.885 3.868a25.344 25.344 0 0 1 6.495-13.474c.481.751 1.018 1.544 1.567 2.269a22.644 22.644 0 0 0 -5.166 10.272 10.043 10.043 0 0 0 -2.9.933zm0 0" transform="translate(0 -87.18)"/><path d="m49.076 289.841a1.343 1.343 0 0 0 -.937-2.3h-9.379a10.68 10.68 0 0 1 -6.921-2.478 8.2 8.2 0 0 0 -4.847-2 11.211 11.211 0 0 0 -6.425 2.507 1.343 1.343 0 0 0 -.533 1.009c-.021.464-.033.922-.033 1.362a28.238 28.238 0 0 0 16.674 25.749 1.341 1.341 0 0 0 1.884-1.135 31.013 31.013 0 0 1 .834-5.318 40.731 40.731 0 0 1 9.684-17.4zm-13 20.566a25.559 25.559 0 0 1 -13.4-22.465c0-.194 0-.392.007-.593a9.9 9.9 0 0 1 2.757-1.367c-.056.653-.084 1.307-.084 1.959a22.794 22.794 0 0 0 11.204 19.659c-.2.935-.362 1.874-.483 2.811zm1.181-5.533a20.111 20.111 0 0 1 -9.219-16.932c0-.659.032-1.321.1-1.981a10.172 10.172 0 0 1 2.158 1.295 13.253 13.253 0 0 0 8.465 2.968h6.386a43.337 43.337 0 0 0 -7.887 14.65zm0 0" transform="translate(-17.32 -245.2)"/><path d="m304.882 145.165c-2.166.379-4.405.771-6.21 2.2-3.371 2.673-6.359 7.671-6.484 7.883a1.343 1.343 0 0 0 .775 1.974l7.772 2.282a1.333 1.333 0 0 0 .832-.026l6-2.173 12.3 1.513a1.314 1.314 0 0 0 .163.01 1.34 1.34 0 0 0 1.334-1.219c.081-.878.122-1.758.122-2.615a28.147 28.147 0 0 0 -4.319-15.011 1.339 1.339 0 0 0 -1.982-.323c-1.555 1.274-2.966 2.4-4.194 3.361-1.777 1.384-3.878 1.751-6.1 2.141zm10.781-2.437a25.472 25.472 0 0 1 3.137 12.272q0 .488-.019.986l-2.671-.329q.01-.331.01-.657a22.847 22.847 0 0 0 -2.585-10.564q1-.793 2.128-1.708zm-2.224 12.272v.329l-5.863-.721a1.339 1.339 0 0 0 -.619.07l-5.886 2.132-5.632-1.654a27.168 27.168 0 0 1 4.9-5.681c1.272-1.009 3-1.312 5.008-1.663a18.288 18.288 0 0 0 5.984-1.8 20.165 20.165 0 0 1 2.112 8.99zm0 0" transform="translate(-252.872 -120.753)"/><path d="m177.642 142.665a20.655 20.655 0 0 0 -3.1.292 1.341 1.341 0 0 0 -1.089 1.142 19.424 19.424 0 0 0 -.219 4.57c.17.752.768 1.864 3.908 3.811 1.568.973 3.064 1.718 3.127 1.749a1.34 1.34 0 0 0 1.921-1.007 27.951 27.951 0 0 0 -.019-8.326c-.338-1.506-1.859-2.252-4.525-2.231zm2.094 8.244c-1.982-1.126-3.629-2.314-3.9-2.858a16.6 16.6 0 0 1 .145-2.595 8.191 8.191 0 0 1 3.593.146 20.725 20.725 0 0 1 .162 5.307zm0 0" transform="translate(-149.948 -123.615)"/></svg>