<svg height="33.003" viewBox="0 0 70.339 33.003" width="70.339" xmlns="http://www.w3.org/2000/svg"><g transform="translate(0 -135.883)"><path d="m64.838 135.883h-59.338a5.507 5.507 0 0 0 -5.5 5.5v23.1a1.1 1.1 0 0 0 1.1 1.1h68.139a1.1 1.1 0 0 0 1.1-1.1v-23.1a5.507 5.507 0 0 0 -5.501-5.5z" fill="#f26b6b"/><path d="m2.2 164.486v-23.1a5.507 5.507 0 0 1 5.5-5.5h-2.2a5.507 5.507 0 0 0 -5.5 5.5v23.1a1.1 1.1 0 0 0 1.1 1.1h2.2a1.1 1.1 0 0 1 -1.1-1.1z" fill="#e26161"/><g transform="translate(0 -20.435)"><path d="m7.547 159.573h-7.066a5.465 5.465 0 0 0 -.481 2.246v5.5h8.8v-6.493a1.254 1.254 0 0 0 -1.253-1.253z" fill="#9be8e8"/><path d="m7.767 159.573h-7.286a5.465 5.465 0 0 0 -.481 2.246v5.5h4.034l4.766-4.767v-1.946a1.033 1.033 0 0 0 -1.033-1.033z" fill="#79d1d1"/><path d="m2.682 159.573h-2.201a5.465 5.465 0 0 0 -.481 2.246v5.5h2.2v-5.5a5.465 5.465 0 0 1 .482-2.246z" fill="#73bfbf"/></g><path d="m375.905 159.573h-6.294a1.254 1.254 0 0 0 -1.254 1.254v6.493h8.8v-6.493a1.253 1.253 0 0 0 -1.252-1.254z" fill="#9be8e8" transform="translate(-317.753 -20.435)"/><path d="m376.127 159.573h-6.734a1.033 1.033 0 0 0 -1.033 1.033v6.713h3.484l5.316-5.319v-1.4a1.033 1.033 0 0 0 -1.033-1.027z" fill="#79d1d1" transform="translate(-317.754 -20.435)"/><path d="m87.625 159.573h-6.293a1.254 1.254 0 0 0 -1.254 1.254v6.493h8.8v-6.493a1.254 1.254 0 0 0 -1.253-1.254z" fill="#9be8e8" transform="translate(-69.077 -20.435)"/><path d="m87.846 159.573h-6.734a1.033 1.033 0 0 0 -1.033 1.033v6.713h4.121l4.675-4.675v-2.038a1.033 1.033 0 0 0 -1.029-1.033z" fill="#79d1d1" transform="translate(-69.078 -20.435)"/><path d="m167.7 159.573h-6.294a1.254 1.254 0 0 0 -1.254 1.254v6.493h8.8v-6.493a1.253 1.253 0 0 0 -1.252-1.254z" fill="#9be8e8" transform="translate(-138.153 -20.435)"/><path d="m167.924 159.573h-6.734a1.033 1.033 0 0 0 -1.033 1.033v6.713h4.217l4.584-4.584v-2.129a1.033 1.033 0 0 0 -1.034-1.033z" fill="#79d1d1" transform="translate(-138.154 -20.435)"/><path d="m59.406 139.138h2.2v26.448h-2.2z" fill="#f26b6b"/><path d="m457.169 161.819a5.465 5.465 0 0 0 -.481-2.246h-7a1.254 1.254 0 0 0 -1.254 1.254v6.539h8.732v-5.546z" fill="#9be8e8" transform="translate(-386.83 -20.435)"/><path d="m457.17 161.819a5.465 5.465 0 0 0 -.481-2.246h-7.217a1.033 1.033 0 0 0 -1.033 1.033v6.759h4.261l4.469-4.469v-1.077z" fill="#79d1d1" transform="translate(-386.831 -20.435)"/><path d="m244.239 189.763v-25.3a.551.551 0 0 1 .55-.55h13.2a.551.551 0 0 1 .55.55v25.3z" fill="#9be8e8" transform="translate(-210.685 -24.177)"/><path d="m307.633 316.979h5.592v-5.592z" fill="#79d1d1" transform="translate(-265.37 -151.394)"/><path d="m244.239 194.895v9.259h4.217l10.084-10.084v-13.477z" fill="#79d1d1" transform="translate(-210.685 -38.568)"/><path d="m244.788 163.91a.551.551 0 0 0 -.55.55v9.993l10.543-10.543z" fill="#79d1d1" transform="translate(-210.684 -24.177)"/><path d="m382.968 280.023a6.6 6.6 0 1 0 6.6 6.6 6.608 6.608 0 0 0 -6.6-6.6z" fill="#645ba5" transform="translate(-324.661 -124.338)"/><path d="m396.783 296.039a4.4 4.4 0 1 0 4.4 4.4 4.405 4.405 0 0 0 -4.4-4.4z" fill="#494170" transform="translate(-338.477 -138.154)"/><path d="m403.691 304.047a3.3 3.3 0 1 0 3.3 3.3 3.3 3.3 0 0 0 -3.3-3.3z" fill="#edecf1" transform="translate(-345.385 -145.062)"/><path d="m46.64 280.023a6.6 6.6 0 1 0 6.6 6.6 6.608 6.608 0 0 0 -6.6-6.6z" fill="#645ba5" transform="translate(-34.538 -124.338)"/><path d="m60.455 296.039a4.4 4.4 0 1 0 4.4 4.4 4.405 4.405 0 0 0 -4.4-4.4z" fill="#494170" transform="translate(-48.354 -138.154)"/><path d="m67.363 304.047a3.3 3.3 0 1 0 3.3 3.3 3.3 3.3 0 0 0 -3.3-3.3z" fill="#edecf1" transform="translate(-55.262 -145.062)"/><path d="m0 146.884h33.004v8.801h-33.004z" fill="#edbc53"/><path d="m0 146.884h2.2v8.801h-2.2z" fill="#f09c48"/><path d="m48.405 146.884h21.934v8.801h-21.934z" fill="#edbc53"/><path d="m254.536 159.906h-13.2a1.1 1.1 0 0 0 -1.1 1.1v25.3h1.1v-24.589a.711.711 0 0 1 .711-.711h4.08a.711.711 0 0 1 .711.711v24.592h2.2v-24.592a.71.71 0 0 1 .711-.711h4.08a.711.711 0 0 1 .711.711v24.592h1.1v-25.3a1.1 1.1 0 0 0 -1.104-1.103z" fill="#d65151" transform="translate(-207.231 -20.723)"/><path d="m312.542 250.192h-.142a1.1 1.1 0 1 1 0-2.2h.138a1.1 1.1 0 0 1 0 2.2z" fill="#d65151" transform="translate(-268.537 -96.708)"/><path d="m265.5 250.192h-.138a1.1 1.1 0 0 1 0-2.2h.138a1.1 1.1 0 0 1 0 2.2z" fill="#d65151" transform="translate(-227.955 -96.708)"/></g></svg>