<svg height="65.487" viewBox="0 0 71.718 65.487" width="71.718" xmlns="http://www.w3.org/2000/svg"><path d="m0 21.479v65.487h4.931v-12.031h1.669v11.96l20.464-4.475v-49.72l-20.464-4.476v7.752h-1.669v-9.566h61.856v9.566h-1.818v-7.752l-20.469 4.476v49.719l20.464 4.475v-11.959h1.818v12.031h4.931v-65.487zm23.638 32.862a1.571 1.571 0 0 1 0 3.1 1.571 1.571 0 0 1 0-3.1zm-17.038-11.541v25.314h-1.669v-25.314zm41.33 14.648a1.571 1.571 0 1 1 1.323-1.552 1.451 1.451 0 0 1 -1.318 1.548zm18.851 10.67h-1.813v-25.318h1.818z" fill="#f1f5f9" transform="translate(0 -21.479)"/></svg>