<svg height="72.08" viewBox="0 0 71.927 72.08" width="71.927" xmlns="http://www.w3.org/2000/svg"><path d="m.524 0v65.678h4.946v-12.067h1.817v-6.84h-1.817v-25.391h1.817v-6.84h-1.817v-9.594h13.57l-11.74 2.568v59.234l24.38 5.332v-67.134h9.62v67.134l24.38-5.332v-13.137h1.827v12.067h4.946v-65.678zm25.885 36.994a1.872 1.872 0 0 1 0-3.7 1.872 1.872 0 0 1 0 3.7zm41.1-32.048v9.594h-1.831v-7.026l-11.743-2.568zm-20.943 32.048a1.872 1.872 0 1 1 1.576-1.849 1.729 1.729 0 0 1 -1.576 1.849zm19.112 9.777v-25.391h1.827v25.391z" fill="#f1f5f9" transform="translate(-.524)"/></svg>