<?xml version="1.0"?>
<svg xmlns="http://www.w3.org/2000/svg" xmlns:xlink="http://www.w3.org/1999/xlink" xmlns:svgjs="http://svgjs.com/svgjs" version="1.1" width="512" height="512" x="0" y="0" viewBox="0 0 512 512" style="enable-background:new 0 0 512 512" xml:space="preserve" class=""><g transform="matrix(1,0,0,1,0,0)"><path xmlns="http://www.w3.org/2000/svg" d="m256 0c-141.164062 0-256 114.835938-256 256s114.835938 256 256 256 256-114.835938 256-256-114.835938-256-256-256zm0 0" fill="#f44336" data-original="#f44336" style="" class=""/><path xmlns="http://www.w3.org/2000/svg" d="m341.332031 256c0 47.128906-38.203125 85.332031-85.332031 85.332031s-85.332031-38.203125-85.332031-85.332031 38.203125-85.332031 85.332031-85.332031 85.332031 38.203125 85.332031 85.332031zm0 0" fill="#fafafa" data-original="#fafafa" style="" class=""/><path xmlns="http://www.w3.org/2000/svg" d="m256 512c-141.164062 0-256-114.835938-256-256s114.835938-256 256-256 256 114.835938 256 256-114.835938 256-256 256zm0-480c-123.519531 0-224 100.480469-224 224s100.480469 224 224 224 224-100.480469 224-224-100.480469-224-224-224zm0 0" fill="#00264d" data-original="#000000" style="" class=""/><path xmlns="http://www.w3.org/2000/svg" d="m256 362.667969c-58.816406 0-106.667969-47.851563-106.667969-106.667969s47.851563-106.667969 106.667969-106.667969 106.667969 47.851563 106.667969 106.667969-47.851563 106.667969-106.667969 106.667969zm0-181.335938c-41.171875 0-74.667969 33.496094-74.667969 74.667969s33.496094 74.667969 74.667969 74.667969 74.667969-33.496094 74.667969-74.667969-33.496094-74.667969-74.667969-74.667969zm0 0" fill="#00264d" data-original="#000000" style="" class=""/></g></svg>
