<svg height="83.759" viewBox="0 0 91.407 83.759" width="91.407" xmlns="http://www.w3.org/2000/svg"><path d="m300.064 63.2a16.828 16.828 0 0 1 16.828 16.828 173.58 173.58 0 0 0 1.53 21.418 54.038 54.038 0 0 1 -18.358 6.119 54.038 54.038 0 0 1 -18.358-6.119 173.58 173.58 0 0 0 1.53-21.418 16.828 16.828 0 0 1 16.828-16.828z" fill="#d59f63" transform="translate(-231.413 -55.738)"/><path d="m293.945 78.5v-4.594a10.71 10.71 0 0 1 8.623-10.5 16.874 16.874 0 0 0 -2.5-.206 16.828 16.828 0 0 0 -16.828 16.828 173.58 173.58 0 0 1 -1.53 21.418 54.038 54.038 0 0 0 18.358 6.119v-22.951z" fill="#cd915a" transform="translate(-231.413 -55.739)"/><path d="m304.52 281.465-10.49-4.2a3.059 3.059 0 0 1 -1.923-2.841v-5.578h-12.239v5.578a3.059 3.059 0 0 1 -1.923 2.841l-10.49 4.2a4.589 4.589 0 0 0 -2.885 4.261v6.074a1.53 1.53 0 0 0 1.53 1.53v13.77h39.775v-13.772h1.53v-7.6a4.59 4.59 0 0 0 -2.885-4.263z" fill="#fad7a5" transform="translate(-217.336 -224.677)"/><path d="m355.655 276.5a18.281 18.281 0 0 0 6.276-1.124 3.041 3.041 0 0 1 -.157-.947v-5.578h-12.238v5.578a3.036 3.036 0 0 1 -.157.947 18.281 18.281 0 0 0 6.276 1.124z" fill="#f0c891" transform="translate(-287.005 -224.677)"/><path d="m273.138 397.386v4.589h1.53a1.53 1.53 0 0 1 1.53 1.53v9.179h4.589v-15.3z" fill="#f0c891" transform="translate(-224.375 -330.265)"/><path d="m328.222 169.245c-7.6 0-12.239-6.164-12.239-13.768v-6.119c4.4 0 4.9-3.166 5.69-4.943a.9.9 0 0 1 1.373-.357c6.481 4.89 18.944 1.231 18.944 11.419a13.769 13.769 0 0 1 -13.768 13.768z" fill="#ffe1b4" transform="translate(-259.57 -122.011)"/><path d="m322.1 156.016v-11.487a.88.88 0 0 0 -.43.424c-.791 1.777-1.288 4.943-5.69 4.943v5.631c0 6.324 2.544 12.1 8.643 13.768a13.533 13.533 0 0 0 7.42-.061 13.766 13.766 0 0 1 -9.943-13.218z" fill="#fad098" transform="translate(-259.57 -122.55)"/><path d="m304.52 327.5-6.526-2.61a12.235 12.235 0 0 1 -24.014 0l-6.526 2.61a4.589 4.589 0 0 0 -2.885 4.261v21.37h35.186v-13.771h7.645v-7.6a4.59 4.59 0 0 0 -2.88-4.26z" fill="#ff507d" transform="translate(-217.336 -270.709)"/><path d="m461.654 356.824 6.953-6.953a4.574 4.574 0 0 1 .7 2.411v7.6h-7.649v-3.06z" fill="#d23c69" transform="translate(-379.235 -291.233)"/><path d="m321.494 324.888a12.235 12.235 0 0 1 -24.014 0l-4.3 1.721a16.806 16.806 0 0 0 32.62 0z" fill="#d23c69" transform="translate(-240.836 -270.71)"/><path d="m2.869 65.592h9.178v16.828h-9.178z" fill="#b48764"/><path d="m50.013 263.949-13.446-3.667h-12.239l-13.446 3.667a4.59 4.59 0 0 0 -3.382 4.428v14.852h9.179v16.828h36.716v-31.68a4.59 4.59 0 0 0 -3.382-4.428z" fill="#00aaf0" transform="translate(-6.161 -217.638)"/><path d="m87.054 262.322-7.481-2.04h-12.24l-7.481 2.04a13.75 13.75 0 0 0 27.2 0z" fill="#0096dc" transform="translate(-49.167 -217.638)"/><path d="m93.19 230.291v5.354a7.649 7.649 0 0 0 15.3 0v-5.354z" fill="#b48764" transform="translate(-76.553 -193.001)"/><path d="m93.19 235.49a18.2 18.2 0 0 0 15.3 0v-5.2h-15.3z" fill="#966d50" transform="translate(-76.553 -193.001)"/><path d="m72.372 89.513v-9.179h-27.536v9.179a3.06 3.06 0 1 0 0 6.119 13.768 13.768 0 1 0 27.537 0 3.06 3.06 0 1 0 0-6.119z" fill="#c39772" transform="translate(-34.318 -69.816)"/><path d="m52.485 95.632v-15.3h-7.649v9.179a3.06 3.06 0 1 0 0 6.119 13.745 13.745 0 0 0 17.593 13.219 13.766 13.766 0 0 1 -9.944-13.217z" fill="#b48764" transform="translate(-34.318 -69.816)"/><path d="m77.556 47.92a2.988 2.988 0 0 1 3.386-.218v-9.602a6.092 6.092 0 0 0 -3.132-5.31 4.579 4.579 0 0 0 -4.517-3.869h-12.239a10.709 10.709 0 0 0 -10.709 10.708v8.071a3.028 3.028 0 0 1 1.53-.424 2.962 2.962 0 0 1 .574.056 2.827 2.827 0 0 0 3.355-2l.376-1.5a1.522 1.522 0 0 1 1.435-1.158c3.187-.086 12.226-.549 17.208-3.04l.891 5.344a4.565 4.565 0 0 0 1.842 2.942z" fill="#64463c" transform="translate(-41.357 -27.581)"/><path d="m59.524 38.1a9.179 9.179 0 0 1 9.176-9.18h-7.646a10.709 10.709 0 0 0 -10.709 10.709v8.071a3.028 3.028 0 0 1 1.53-.424 2.951 2.951 0 0 1 1.324.312 1.63 1.63 0 0 0 2.328-1.152l.653-2.611a1.522 1.522 0 0 1 1.434-1.158c.5-.014 1.156-.037 1.91-.076z" fill="#553732" transform="translate(-41.357 -27.581)"/><path d="m7.5 291.524v14.852h9.179v-5.025a7.649 7.649 0 0 0 -1.611-4.7l-6.375-8.2a4.57 4.57 0 0 0 -1.193 3.073z" fill="#0096dc" transform="translate(-6.161 -240.785)"/><path d="m211.847 403.989-4.995-1.665a1.53 1.53 0 0 1 -1.046-1.451v-3.487h-9.179v3.487a1.53 1.53 0 0 1 -1.046 1.451l-4.995 1.665a4.59 4.59 0 0 0 -3.138 4.354v4.341h27.537v-4.341a4.589 4.589 0 0 0 -3.138-4.354z" fill="#e6af78" transform="translate(-153.983 -330.265)"/><path d="m238.006 403.505a15.242 15.242 0 0 0 5.773-1.135l-.137-.046a1.53 1.53 0 0 1 -1.046-1.451v-3.487h-9.179v3.487a1.53 1.53 0 0 1 -1.046 1.451l-.137.046a15.245 15.245 0 0 0 5.772 1.135z" fill="#d29b6e" transform="translate(-190.772 -330.265)"/><path d="m201.216 217.438a13.768 13.768 0 0 0 -13.768 13.768v4.594h27.537v-4.59a13.768 13.768 0 0 0 -13.769-13.772z" fill="#64463c" transform="translate(-153.983 -182.443)"/><path d="m205.806 218.238a13.738 13.738 0 0 0 -18.358 12.968v4.594h9.179v-4.59a13.762 13.762 0 0 1 9.179-12.972z" fill="#553732" transform="translate(-153.983 -182.443)"/><path d="m206.354 284.354h-.105a2.891 2.891 0 0 1 -2.891-2.891 1.189 1.189 0 0 0 -1.587-1.119c-11.31 4.011-18.3 4.011-18.3 4.011h-1.471a3.1 3.1 0 0 0 -3.091 2.615 3.061 3.061 0 0 0 3.028 3.5h1.53v1.37a10.709 10.709 0 1 0 21.418.16v-1.53h1.53a3.061 3.061 0 0 0 3.028-3.5 3.1 3.1 0 0 0 -3.089-2.616z" fill="#f0c087" transform="translate(-146.945 -234.061)"/><path d="m231.513 200.3-9.179 3.934-9.179-3.934v9.179l9.179-3.934 9.179 3.934z" fill="#ffdc64" transform="translate(-175.1 -168.365)"/><path d="m189.588 307.834v-8.288a40.242 40.242 0 0 1 -6.119.639h-1.53a3.06 3.06 0 1 0 0 6.119h1.53v1.081a11.006 11.006 0 0 0 10.379 11.153 10.716 10.716 0 0 0 3.389-.444 10.709 10.709 0 0 1 -7.649-10.26z" fill="#e6af78" transform="translate(-146.944 -249.892)"/><path d="m211.847 430.546-2.495-.832a9.171 9.171 0 0 1 -16.271 0l-2.495.832a4.59 4.59 0 0 0 -3.138 4.354v4.341h27.537v-4.341a4.589 4.589 0 0 0 -3.138-4.354z" fill="#ffdc64" transform="translate(-153.983 -356.821)"/><path d="m115.8 188.439a5.3 5.3 0 0 0 4.1-2.025 1.339 1.339 0 1 0 -2.08-1.687 2.489 2.489 0 0 1 -4.039 0 1.339 1.339 0 1 0 -2.08 1.687 5.3 5.3 0 0 0 4.099 2.025z" transform="translate(-91.509 -155.164)"/><path d="m95.6 145.594a1.339 1.339 0 0 0 1.339-1.339v-1.53a1.339 1.339 0 0 0 -2.678 0v1.53a1.339 1.339 0 0 0 1.339 1.339z" transform="translate(-77.431 -119.968)"/><path d="m164.15 145.594a1.339 1.339 0 0 0 1.339-1.339v-1.53a1.339 1.339 0 0 0 -2.678 0v1.53a1.339 1.339 0 0 0 1.339 1.339z" transform="translate(-133.744 -119.968)"/><path d="m364.3 231.283a5.3 5.3 0 0 0 4.1-2.025 1.339 1.339 0 1 0 -2.08-1.687 2.489 2.489 0 0 1 -4.039 0 1.339 1.339 0 1 0 -2.08 1.687 5.3 5.3 0 0 0 4.099 2.025z" transform="translate(-295.645 -190.359)"/><path d="m344.1 188.439a1.339 1.339 0 0 0 1.339-1.339v-1.53a1.339 1.339 0 1 0 -2.678 0v1.53a1.339 1.339 0 0 0 1.339 1.339z" transform="translate(-281.566 -155.164)"/><path d="m412.65 188.439a1.339 1.339 0 0 0 1.339-1.339v-1.53a1.339 1.339 0 1 0 -2.678 0v1.53a1.339 1.339 0 0 0 1.339 1.339z" transform="translate(-337.88 -155.164)"/><path d="m87.681 76.965-10.49-4.2a1.754 1.754 0 0 1 -.162-.079c7.245-1.649 10.677-4.405 10.829-4.53a1.339 1.339 0 0 0 .477-1.225 173.465 173.465 0 0 1 -1.516-21.228 18.167 18.167 0 1 0 -36.334 0c0 2.745-.125 6.1-.327 9.28l-2.923 1.462-8.58-4.29c-.025-.012-.051-.021-.076-.032a15 15 0 0 0 .773-3.746 4.4 4.4 0 0 0 1.573-7.534v-8.905a7.452 7.452 0 0 0 -3.283-6.147 5.886 5.886 0 0 0 -5.705-4.371h-12.237a12.061 12.061 0 0 0 -12.051 12.048v7.379a4.4 4.4 0 0 0 1.572 7.533 15.1 15.1 0 0 0 6.079 10.987v3.7l-11.075 3.323a5.892 5.892 0 0 0 -4.225 5.678v14.943a1.339 1.339 0 0 0 1.339 1.339h.191v15.49a1.339 1.339 0 0 0 2.678 0v-15.49h4.971v15.49a1.339 1.339 0 0 0 2.678 0v-23.088a5.91 5.91 0 0 0 -1-3.289l-2.285-3.433a1.339 1.339 0 1 0 -2.228 1.485l2.289 3.433a3.24 3.24 0 0 1 .546 1.8v4.92h-6.5v-13.6a3.23 3.23 0 0 1 2.317-3.113l4.6-1.379a15.109 15.109 0 0 0 21.855 9.791 4.394 4.394 0 0 0 3.549 1.8h.191v.191a12.053 12.053 0 0 0 6.119 10.482v2.184a.191.191 0 0 1 -.131.181l-4.999 1.669a5.921 5.921 0 0 0 -4.054 5.626v4.341a1.339 1.339 0 0 0 2.678 0v-4.341a3.246 3.246 0 0 1 2.223-3.084l1.469-.49a10.518 10.518 0 0 0 17.476 0l1.468.49a3.246 3.246 0 0 1 2.223 3.084v4.341a1.339 1.339 0 1 0 2.678 0v-4.341a5.921 5.921 0 0 0 -4.054-5.624l-4.995-1.665a.191.191 0 0 1 -.131-.181v-2.186a12.1 12.1 0 0 0 5.669-7.227 13.576 13.576 0 0 0 22.744-5.21l5.111 2.044a3.235 3.235 0 0 1 2.043 3.018v6.263h-4.97v-1.72a1.339 1.339 0 0 0 -2.678 0v16.828a1.339 1.339 0 1 0 2.678 0v-12.43h3.442v12.43a1.339 1.339 0 1 0 2.678 0v-12.43h.191a1.339 1.339 0 0 0 1.339-1.339v-7.6a5.9 5.9 0 0 0 -3.727-5.506zm-34.519-31.259a15.489 15.489 0 1 1 30.978 0 175.8 175.8 0 0 0 1.435 20.8 28.665 28.665 0 0 1 -9.465 3.65v-2.135a14.991 14.991 0 0 0 2.032-1.381 15.073 15.073 0 0 0 5.617-11.755c0-7.568-5.473-8.655-10.766-9.705-3.368-.669-6.851-1.36-9.624-3.579a1.339 1.339 0 0 0 -2.175 1.046c0 .036-.058 3.559-5.105 4.82a1.339 1.339 0 0 0 .649 2.6c4.224-1.056 5.947-3.426 6.65-5.206a28.044 28.044 0 0 0 9.083 2.947c5.657 1.123 8.61 1.948 8.61 7.079a12.395 12.395 0 0 1 -4.622 9.672 12.427 12.427 0 0 1 -15.041.434 15.13 15.13 0 0 0 -3.666-5.65v-5.987a1.339 1.339 0 0 0 -1.938-1.2l-2.891 1.444c.158-2.785.239-5.436.239-7.894zm1.912 9.816v4.846l-4.846-2.423zm-15.68 0 4.846 2.423-4.846 2.423zm-2.678 3.819a15.128 15.128 0 0 0 -3.451 5.1c.005-.124.009-.248.009-.372v-4.7a15.229 15.229 0 0 0 3.441-3.558zm-24.859-12.1a1.339 1.339 0 0 0 -1.339-1.341 1.721 1.721 0 1 1 0-3.441h3.06a1.339 1.339 0 0 0 1.27-.916l1.229-3.687c3.077-.069 12.616-.5 17.987-3.188a1.339 1.339 0 0 0 -1.2-2.4c-5.763 2.881-17.64 2.918-17.759 2.918a1.339 1.339 0 0 0 -1.27.916l-1.225 3.674h-2.092c-.064 0-.127 0-.191 0v-6.308a9.38 9.38 0 0 1 9.373-9.368h12.235a3.226 3.226 0 0 1 3.194 2.74 1.339 1.339 0 0 0 .665.956 4.78 4.78 0 0 1 2.451 4.144v7.845c-.063 0-.127 0-.191 0h-1.53a1.339 1.339 0 0 0 0 2.678h1.53a1.721 1.721 0 1 1 0 3.441 1.339 1.339 0 0 0 -1.339 1.339 12.429 12.429 0 0 1 -24.859 0zm12.429 15.102a15.018 15.018 0 0 0 6.31-1.383v3.1a6.31 6.31 0 0 1 -12.62.017c0-.006 0-.013 0-.019v-3.1a15.012 15.012 0 0 0 6.31 1.385zm-12.124 4.457 3.308-.992a8.985 8.985 0 0 0 16.786 2.4 15.056 15.056 0 0 0 -.13 1.972v1.272a4.4 4.4 0 0 0 -1.53 3.318 12.43 12.43 0 0 1 -18.434-7.97zm40.284 27.95.854.285a7.833 7.833 0 0 1 -12.132 0l.853-.284a2.865 2.865 0 0 0 1.962-2.722v-1.068a11.986 11.986 0 0 0 6.5 0v1.067a2.864 2.864 0 0 0 1.963 2.722zm-5.212-6.018a9.38 9.38 0 0 1 -9.37-9.37v-1.53a1.339 1.339 0 0 0 -1.339-1.339h-1.525a1.723 1.723 0 0 1 -1.721-1.721 1.7 1.7 0 0 1 .864-1.478 1.331 1.331 0 0 0 .317-.26c3.31-.1 14.039-.719 21.091-4.748a1.339 1.339 0 1 0 -1.329-2.325c-6.181 3.53-15.888 4.239-19.422 4.378v-.156a12.442 12.442 0 0 1 2.121-6.935 1.335 1.335 0 0 0 1.729.484l8.58-4.29 8.58 4.29a1.331 1.331 0 0 0 1.729-.484 12.442 12.442 0 0 1 2.121 6.935v1.954a1.339 1.339 0 0 0 .666 1.157 1.7 1.7 0 0 1 .864 1.478 1.723 1.723 0 0 1 -1.721 1.721h-1.53a1.339 1.339 0 0 0 -1.339 1.34v1.331.035.164a9.381 9.381 0 0 1 -9.366 9.369zm21.418-4.589a10.914 10.914 0 0 1 -9.152-4.972 4.387 4.387 0 0 0 2.838-7.716v-1.271a15.055 15.055 0 0 0 -.086-1.606 15.1 15.1 0 0 0 11.177.633v1.961a4.378 4.378 0 0 0 2.771 4.084l2.887 1.155a10.893 10.893 0 0 1 -10.436 7.732z" transform="translate(0 -21.42)"/><path d="m248.234 355.909a1.339 1.339 0 0 0 -1.883.2 2.489 2.489 0 0 1 -4.039 0 1.339 1.339 0 1 0 -2.08 1.687 5.162 5.162 0 0 0 8.2 0 1.34 1.34 0 0 0 -.198-1.887z" transform="translate(-197.097 -295.947)"/><circle cx="42.669" cy="54.889" r="1.339"/><circle cx="51.774" cy="54.889" r="1.339"/></svg>