<svg height="73.278" viewBox="0 0 70.112 73.278" width="70.112" xmlns="http://www.w3.org/2000/svg"><path d="m123.83 27.739-10.111.054-25.11.133a24.557 24.557 0 0 1 .226-11.78c1.407-4.568 6.178-6.729 10.359-7.75 6.518-1.594 16.254-1.517 18.9 4.14a1.222 1.222 0 0 0 1 .754c5.466.531 5.834 8.7 4.733 14.448z" fill="#56788b" transform="translate(-76.993 -6.429)"/><path d="m277.783 62.376-10.111.054 1.529-6.407c-2.822-8.464 3.85-8.095 3.85-8.095 5.465.531 5.833 8.696 4.732 14.448z" fill="#415e6f" transform="translate(-230.946 -41.066)"/><path d="m75.226 362.011h-56.6c0-8.02-2.247-22.082 20.015-23.655q2.014-.142 4.3-.145h7.975q2.288 0 4.3.145a36.525 36.525 0 0 1 8.537 1.514c13.091 4.188 11.473 15.339 11.473 22.141z" fill="#ff6b81" transform="translate(-17.486 -289.807)"/><path d="m345.763 371.943h-2.863c0-6.26 1.37-16.987-8.619-22.141 13.099 4.188 11.482 15.338 11.482 22.141z" fill="#ed2061" transform="translate(-288.023 -299.738)"/><path d="m175.422 338.357a8.295 8.295 0 0 1 -16.568 0v-.007q2.014-.142 4.3-.145h7.975q2.285.007 4.293.152z" fill="#d9f0f4" transform="translate(-137.7 -289.807)"/><g fill="#fab684"><path d="m310.589 144.988h-2.5l.016 6.539h2.481a3.27 3.27 0 0 0 0-6.539z" transform="translate(-265.581 -124.237)"/><path d="m83.91 148.258a3.27 3.27 0 0 0 3.269 3.27h2.481l.016-6.539h-2.5a3.27 3.27 0 0 0 -3.269 3.27z" transform="translate(-73.484 -124.237)"/><path d="m196.869 306.5h-7.969a8.3 8.3 0 0 1 0 4.538 3.987 3.987 0 1 0 7.974 0 8.3 8.3 0 0 1 -.005-4.538z" transform="translate(-163.444 -262.635)"/></g><path d="m150.409 115.4c0 3.166-2.692 6.947-8 11.242a8.494 8.494 0 0 1 -5.33 1.865 8.336 8.336 0 0 1 -5.271-1.865c-5.311-4.3-8-8.076-8-11.242 0-.336.013-.673.04-1 .137-1.381.1-7.687.094-11.759a3.533 3.533 0 0 1 1.978-3.263c2.711-1.205 6.948-1.806 11.191-1.8a36.425 36.425 0 0 1 8.563.927 16.16 16.16 0 0 1 2.629.876 3.535 3.535 0 0 1 1.976 3.263c0 4.072-.042 10.378.094 11.759.027.331.042.667.042 1z" fill="#fdd9b4" transform="translate(-107.667 -83.607)"/><path d="m221.342 120.957c0 3.166-2.692 6.947-8 11.242a8.494 8.494 0 0 1 -5.33 1.865 8.312 8.312 0 0 1 -1.427-.12 8.443 8.443 0 0 0 3.894-1.745c5.311-4.3 8-8.076 8-11.242 0-.336-.014-.673-.042-1-.136-1.381-.1-7.687-.094-11.759v-1.006a3.535 3.535 0 0 0 -1.743-3.137 16.16 16.16 0 0 1 2.629.876 3.535 3.535 0 0 1 1.976 3.263c0 4.072-.042 10.378.094 11.759.029.332.043.668.043 1.004z" fill="#f9c19b" transform="translate(-178.599 -89.16)"/><path d="m342.905 285.646a12.568 12.568 0 0 1 -12.572 12.564 12.44 12.44 0 0 1 -1.431-.082 12.564 12.564 0 0 1 0-24.966 12.44 12.44 0 0 1 1.431-.082 12.568 12.568 0 0 1 12.572 12.566z" fill="#09eaa3" transform="translate(-273.867 -233.998)"/><path d="m409.6 285.646a12.568 12.568 0 0 1 -12.572 12.564 12.44 12.44 0 0 1 -1.431-.082 12.564 12.564 0 0 0 0-24.966 12.44 12.44 0 0 1 1.431-.082 12.568 12.568 0 0 1 12.572 12.566z" fill="#14bb87" transform="translate(-340.567 -233.998)"/><path d="m15.281 386.878a1.073 1.073 0 0 0 -1.483.326c-2.914 4.558-2.8 9.985-2.706 14.345.015.712.029 1.385.029 2.019a1.073 1.073 0 0 0 2.147 0c0-.656-.015-1.34-.03-2.064-.086-4.069-.194-9.134 2.369-13.143a1.074 1.074 0 0 0 -.326-1.483z" transform="translate(-11.058 -331.364)"/><path d="m86.128 47.634c-1.648-.175-3.43-.274-5.307-.3a8.623 8.623 0 0 1 .072-2.7 9.228 9.228 0 0 0 1.087-.76c5.575-4.508 8.4-8.572 8.4-12.077 0-.365-.015-.733-.045-1.092 0-.006 0-.011 0-.017-.039-.392-.063-1.234-.077-2.325h1.315a4.341 4.341 0 0 0 3-7.484c.72-4.275.647-9.681-1.632-12.727a5.7 5.7 0 0 0 -4.153-2.352.15.15 0 0 1 -.123-.092c-.007-.017-.014-.034-.022-.051-1.349-2.879-4.4-4.745-8.818-5.4a30.759 30.759 0 0 0 -11.313.668c-6.027 1.47-9.876 4.4-11.127 8.463a24.977 24.977 0 0 0 -.368 11.748 4.341 4.341 0 0 0 3.244 7.228h1.489c-.014 1.091-.038 1.933-.077 2.325v.016c-.03.359-.045.727-.045 1.092 0 3.505 2.827 7.568 8.4 12.075a9.382 9.382 0 0 0 1.089.763 8.631 8.631 0 0 1 .071 2.7c-8.208.1-14.187 1.617-18.259 4.645a1.073 1.073 0 1 0 1.281 1.72c2.9-2.156 7.111-3.494 12.559-4a9.371 9.371 0 0 0 18.473 0q.334.03.661.065a1.074 1.074 0 1 0 .226-2.135zm5.446-21.416h-1.332c-.005-1.4 0-2.941 0-4.392h1.333a2.2 2.2 0 0 1 0 4.392zm-.355-16.778c1.754 2.344 1.847 6.776 1.346 10.353a4.34 4.34 0 0 0 -.992-.114h-1.328q0-.323 0-.632a4.618 4.618 0 0 0 -2.577-4.247l-.036-.017a15.872 15.872 0 0 0 -1.963-.709c-.668-2.253-.623-3.964.135-4.968a3.639 3.639 0 0 1 2.796-1.172 3.592 3.592 0 0 1 2.619 1.506zm-30.958 16.777a2.2 2.2 0 0 1 0-4.392h1.506v4.392zm3.513 5.583c0-.3.012-.609.037-.907.119-1.225.11-5.75.1-9.744 0-.742 0-1.456 0-2.115 0-.009 0-.019 0-.028a2.465 2.465 0 0 1 1.359-2.264 16.353 16.353 0 0 1 3.045-.951 1.073 1.073 0 1 0 -.463-2.1 18.416 18.416 0 0 0 -3.474 1.095l-.036.017a4.618 4.618 0 0 0 -2.578 4.241q0 .308 0 .632h-1.5a4.326 4.326 0 0 0 -1.282.193 22.163 22.163 0 0 1 .453-9.837c1.289-4.186 5.926-6.13 9.589-7.023a28.535 28.535 0 0 1 10.491-.63c2.425.357 5.537 1.3 6.964 3.757a4.946 4.946 0 0 0 -2.373 1.664c-1.05 1.376-1.316 3.3-.8 5.722a39.7 39.7 0 0 0 -7.258-.626h-.047c-1.024 0-2.05.033-3.048.1a1.073 1.073 0 1 0 .145 2.142c.935-.063 1.9-.1 2.861-.1h.085c4.288 0 8.28.635 10.692 1.7a2.465 2.465 0 0 1 1.364 2.262v.031 2.119c-.008 3.99-.016 8.511.1 9.736.024.3.037.6.037.907 0 2.785-2.63 6.384-7.607 10.409a7.484 7.484 0 0 1 -4.655 1.624 7.258 7.258 0 0 1 -4.594-1.626c-4.981-4.018-7.607-7.617-7.607-10.4zm12.175 14.18h.051a9.612 9.612 0 0 0 2.622-.365 8.621 8.621 0 0 0 .293 2.96 2.914 2.914 0 0 1 -5.818 0 8.611 8.611 0 0 0 .294-2.954 9.359 9.359 0 0 0 2.558.357zm.051 9.366a7.214 7.214 0 0 1 -7.081-5.793q1.042-.052 2.137-.068a5.061 5.061 0 0 0 9.889 0q1.093.016 2.137.067a7.213 7.213 0 0 1 -7.082 5.794z" transform="translate(-46.565 -.001)"/><path d="m408.148 472.171a1.076 1.076 0 0 0 -1.087 1.06c-.006.512-.017 1.014-.027 1.5-.015.725-.03 1.409-.03 2.066a1.073 1.073 0 1 0 2.147 0c0-.634.014-1.307.029-2.02.01-.494.021-1 .028-1.52a1.073 1.073 0 0 0 -1.06-1.087z" transform="translate(-350.336 -404.594)"/><path d="m192.382 238.754a4.584 4.584 0 0 0 3.865-2.108 1.073 1.073 0 1 0 -1.8-1.164 2.452 2.452 0 0 1 -4.124 0 1.073 1.073 0 1 0 -1.8 1.164 4.584 4.584 0 0 0 3.866 2.108z" transform="translate(-162.972 -201.359)"/><path d="m200.131 195.525a1.074 1.074 0 0 0 1.484-.32.563.563 0 0 1 .948 0 1.073 1.073 0 1 0 1.8-1.164 2.71 2.71 0 0 0 -4.555 0 1.073 1.073 0 0 0 .323 1.484z" transform="translate(-172.65 -165.206)"/><path d="m323.906 265.58a13.767 13.767 0 0 0 -2.382.207 1.073 1.073 0 1 0 .372 2.114 11.492 11.492 0 1 1 -9.489 11.317 11.447 11.447 0 0 1 5.341-9.707 1.073 1.073 0 0 0 -1.148-1.811 13.649 13.649 0 1 0 7.308-2.119z" transform="translate(-267.439 -227.57)"/><path d="m93.269 470.968a1.35 1.35 0 0 0 -.976.422c-.421.414-.981 1.317-.981 4.377a1.073 1.073 0 1 0 2.147 0 7.566 7.566 0 0 1 .322-2.793 1.073 1.073 0 0 0 -.512-2.006z" transform="translate(-79.826 -403.563)"/><path d="m323.187 471.39a1.35 1.35 0 0 0 -.976-.422 1.074 1.074 0 0 0 -.512 2.006 7.566 7.566 0 0 1 .322 2.793 1.073 1.073 0 0 0 2.147 0c0-3.06-.56-3.967-.981-4.377z" transform="translate(-276.775 -403.563)"/><path d="m366.129 327.2h3.656v3.656a1.073 1.073 0 0 0 2.147 0v-3.656h3.656a1.073 1.073 0 0 0 0-2.147h-3.656v-3.653a1.073 1.073 0 0 0 -2.147 0v3.656h-3.656a1.073 1.073 0 0 0 0 2.147z" transform="translate(-314.392 -274.481)"/></svg>