<svg xmlns="http://www.w3.org/2000/svg" width="104" height="90.014" viewBox="0 0 104 90.014">
  <g id="money" transform="translate(0 -34.426)">
    <path id="Path_1425" data-name="Path 1425" d="M211.251,69.787l-46.4,46.4a1.151,1.151,0,0,1-1.628,0L137.24,90.212a1.151,1.151,0,0,1,0-1.628l46.4-46.4a1.151,1.151,0,0,1,1.628,0l25.979,25.979A1.151,1.151,0,0,1,211.251,69.787Z" transform="translate(-109.095 -5.911)" fill="#5cc45c"/>
    <path id="Path_1426" data-name="Path 1426" d="M287.038,143.946l-7-7L232.009,184.98l7,7a1.151,1.151,0,0,0,1.628,0l46.4-46.4A1.151,1.151,0,0,0,287.038,143.946Z" transform="translate(-184.882 -81.697)" fill="#4ead4e"/>
    <path id="Path_1427" data-name="Path 1427" d="M187.343,132.541a6.358,6.358,0,0,0,0-6.026.643.643,0,0,1,.105-.763l33.364-33.364a.643.643,0,0,1,.763-.105,6.356,6.356,0,0,0,6.026,0,.643.643,0,0,1,.763.105l12.94,12.94a.643.643,0,0,1,.105.763,6.356,6.356,0,0,0,0,6.026.643.643,0,0,1-.105.763L207.94,146.244a.643.643,0,0,1-.763.105,6.357,6.357,0,0,0-6.026,0,.643.643,0,0,1-.763-.105l-12.94-12.94A.644.644,0,0,1,187.343,132.541Z" transform="translate(-149.225 -46.04)" fill="#a0e557"/>
    <path id="Path_1428" data-name="Path 1428" d="M263.67,134.376a6.356,6.356,0,0,1,0-6.026.643.643,0,0,0-.105-.763l-7.451-7.451a6.349,6.349,0,0,0,0,6.853L222.05,161.053a6.35,6.35,0,0,0-6.852,0l7.451,7.451a.643.643,0,0,0,.763.105,6.357,6.357,0,0,1,6.026,0,.643.643,0,0,0,.763-.105l33.364-33.364A.644.644,0,0,0,263.67,134.376Z" transform="translate(-171.486 -68.3)" fill="#93cc4a"/>
    <circle id="Ellipse_8" data-name="Ellipse 8" cx="9.464" cy="9.464" r="9.464" transform="translate(51.765 73.275) rotate(-45)" fill="#f3e8d7"/>
    <path id="Path_1429" data-name="Path 1429" d="M82.77,175.249l14.278-14.278c1.645-1.646,2.345-3.613.7-5.259-2.593-3.22-12.06-.638-16.55,3.853l-6.013,6.014a3.561,3.561,0,0,1-2.525,1.042H72.61a4.517,4.517,0,0,1-3.827-3.047V150.379l2.356-2.356,2.589-2.589,2.226-2.226,8.055-8.055c-4.23-.474-8.436-.73-10.067-.926a6.261,6.261,0,0,0-4.769,1.76L56.011,146.371a11.756,11.756,0,0,0-3.838,5.931c-1.437,5.2-4.463,14.411-6.384,18.072l-9.6,9.6,16.613,16.613,4.62-4.62a7.284,7.284,0,0,1,3.122-1.845l9.65-3.249a16.717,16.717,0,0,0,7.688-5.444Z" transform="translate(-28.841 -79.501)" fill="#fcd7c3"/>
    <path id="Path_1430" data-name="Path 1430" d="M112.6,260.208l4.884-6.177,14.278-14.278c1.646-1.645,2.345-3.613.7-5.259-.953-1.184-2.835-1.583-5.058-1.392a13.9,13.9,0,0,0-8.6,4.078l-9.087,9.087-4.884,6.177a16.715,16.715,0,0,1-7.688,5.444l-9.65,3.249a7.284,7.284,0,0,0-3.122,1.845l-4.62,4.62,7.765,7.765,4.62-4.62A7.284,7.284,0,0,1,95.26,268.9l9.65-3.249A16.717,16.717,0,0,0,112.6,260.208Z" transform="translate(-63.553 -158.283)" fill="#ffcdac"/>
    <path id="Path_1431" data-name="Path 1431" d="M27.18,366.6,7.951,347.368a1.825,1.825,0,0,1,0-2.58l3.384-3.384a1.825,1.825,0,0,1,2.581,0l19.229,19.229a1.825,1.825,0,0,1,0,2.58L29.761,366.6A1.825,1.825,0,0,1,27.18,366.6Z" transform="translate(-5.91 -244.197)" fill="#464c50"/>
    <path id="Path_1432" data-name="Path 1432" d="M85.091,412.578l-6.522-6.522-5.964,5.964,6.522,6.522a1.825,1.825,0,0,0,2.58,0l3.384-3.384A1.825,1.825,0,0,0,85.091,412.578Z" transform="translate(-57.857 -296.143)" fill="#33393a"/>
    <path id="Path_1433" data-name="Path 1433" d="M294.761,258.26a4.852,4.852,0,0,0-6.862,0l-2.156,2.156a2.5,2.5,0,0,0,0,3.533l2.169,2.169,7.353-7.353Z" transform="translate(-227.119 -177.236)" fill="#efefef"/>
    <path id="Path_1434" data-name="Path 1434" d="M103.222,61.183,77.243,35.2a2.658,2.658,0,0,0-3.759,0L59.2,49.491a1.507,1.507,0,0,0,2.131,2.131L75.363,37.586,100.84,63.063l-45.9,45.9-5.348-5.348c.218-.247.431-.5.636-.756l.821-1.039a2.15,2.15,0,0,0,1.595-.187,4.879,4.879,0,0,1,4.593,0,2.17,2.17,0,0,0,1.034.264,2.13,2.13,0,0,0,1.511-.629l3.495-3.495a1.507,1.507,0,1,0-2.13-2.131L58.087,98.7a7.811,7.811,0,0,0-4.1-.6l1.064-1.346,6.8-6.8h0l6.06-6.06a10.969,10.969,0,1,0-10.525-18.37,11.051,11.051,0,0,0-2.748,10.9A17.759,17.759,0,0,0,51.291,79l-6.013,6.014a2.048,2.048,0,0,1-1.46.6h-.049a3.088,3.088,0,0,1-2.32-1.774V78.617L72.214,47.851a7.808,7.808,0,0,0,6.3,0L90.575,59.914a7.81,7.81,0,0,0,0,6.3L66.183,90.6a1.507,1.507,0,0,0,2.131,2.131L93.145,67.9a2.138,2.138,0,0,0,.365-2.544,4.879,4.879,0,0,1,0-4.592,2.136,2.136,0,0,0-.365-2.546L80.2,45.282a2.138,2.138,0,0,0-2.545-.365,4.879,4.879,0,0,1-4.593,0,2.139,2.139,0,0,0-2.545.365L41.448,74.356V71.5L56.232,56.718a1.507,1.507,0,0,0-.9-2.562c-2.514-.282-4.987-.485-6.975-.648-1.363-.112-2.439-.2-3.081-.277a7.671,7.671,0,0,0-5.894,2.084L26.236,65.687l-.027.022a13.2,13.2,0,0,0-4.33,6.691c-1.363,4.937-4.308,13.916-6.164,17.574L9.31,96.38l-.239-.239a3.331,3.331,0,0,0-4.711,0L.976,99.525a3.331,3.331,0,0,0,0,4.711L20.2,123.465a3.331,3.331,0,0,0,4.711,0l3.384-3.384a3.331,3.331,0,0,0,0-4.711l-.245-.245,1.6-1.6a5.792,5.792,0,0,1,2.476-1.464l.061-.019,9.658-3.252a18.2,18.2,0,0,0,5.572-3.089l5.642,5.642a2.658,2.658,0,0,0,3.759,0l46.4-46.4a2.658,2.658,0,0,0,0-3.759ZM60.793,86.752l-1.1-1.1a.992.992,0,0,1,0-1.4l2.156-2.156a3.353,3.353,0,0,1,4.1-.494Zm-1.269-19.1A7.957,7.957,0,0,1,71.351,78.261a4.347,4.347,0,0,0-1.325-3.06,6.145,6.145,0,0,0-4.54-1.919,18.783,18.783,0,0,0-8.1,1.725A8.017,8.017,0,0,1,59.524,67.649Zm-33.356,50.3-3.384,3.384a.318.318,0,0,1-.45,0L3.106,102.105a.318.318,0,0,1,0-.45L6.49,98.271a.318.318,0,0,1,.45,0L26.169,117.5a.318.318,0,0,1,0,.45Zm23.4-19.117-1.706,2.157a15.243,15.243,0,0,1-1.428,1.568l-.017.015-.011.012a15.163,15.163,0,0,1-5.531,3.355l-9.621,3.24A8.817,8.817,0,0,0,27.52,111.4l-1.6,1.6L11.44,98.511l6.572-6.572a1.507,1.507,0,0,0,.269-.365c1.97-3.755,5.042-13.082,6.5-18.371a10.2,10.2,0,0,1,3.333-5.161L41.264,57.67l.027-.022a4.753,4.753,0,0,1,3.629-1.425c.7.084,1.8.174,3.193.288,1.12.092,2.4.2,3.744.321L38.876,69.813a1.507,1.507,0,0,0-.441,1.065h0V84.072a1.5,1.5,0,0,0,.051.389,6,6,0,0,0,5.282,4.165h.049a5.041,5.041,0,0,0,3.591-1.483l6.012-6.013a15.8,15.8,0,0,1,3.667-2.642l.017-.007a1.493,1.493,0,0,0,.182-.1,16.754,16.754,0,0,1,8.038-2.091,3.332,3.332,0,0,1,2.408.865,1.558,1.558,0,0,0,.108.12,1.316,1.316,0,0,1,.471,1.278,2.543,2.543,0,0,1-.323.787,6.369,6.369,0,0,0-8.273.619l-2.156,2.156a4,4,0,0,0,0,5.663l1.1,1.1-5.8,5.8a1.547,1.547,0,0,0-.116.131l-3.174,4.015Z" transform="translate(0 0)"/>
  </g>
</svg>
