<svg height="121.398" viewBox="0 0 375.52 121.398" width="375.52" xmlns="http://www.w3.org/2000/svg"><path d="m102.58 39.582h16.571v65.956h-16.571z" fill="#b5c3c2"/><path d="m105.287 34.852h11.157v27.719h-11.157z" fill="#b5c3c2"/><path d="m107.768 31.854h6.189v15.373h-6.189z" fill="#b5c3c2"/><path d="m269.361 81.856h-4.221v-10.476h4.221z" fill="#b5c3c2" transform="translate(-156.387 -42.102)"/><path d="m268.949 70.73h-.459v-10.48h.459z" fill="#b5c3c2" transform="translate(-158.363 -35.537)"/><path d="m271.419 61.9h-.459v-10.48h.459z" fill="#b5c3c2" transform="translate(-159.82 -30.329)"/><path d="m102.137 39.413h17.453v.701h-17.453z" fill="#b5c3c2"/><path d="m104.877 34.516h11.969v.677h-11.969z" fill="#b5c3c2"/><path d="m107.317 31.571h6.899v.517h-6.899z" fill="#b5c3c2"/><path d="m106.312 35.976h.517v2.904h-.517z" fill="#b5c3c2" opacity=".29"/><path d="m107.748 35.976h.517v2.904h-.517z" fill="#b5c3c2" opacity=".29"/><path d="m109.179 35.976h.517v2.904h-.517z" fill="#b5c3c2" opacity=".29"/><path d="m110.615 35.976h.517v2.904h-.517z" fill="#b5c3c2" opacity=".29"/><path d="m112.051 35.976h.517v2.904h-.517z" fill="#b5c3c2" opacity=".29"/><path d="m113.486 35.976h.517v2.904h-.517z" fill="#b5c3c2" opacity=".29"/><path d="m114.922 35.976h.517v2.904h-.517z" fill="#b5c3c2" opacity=".29"/><path d="m104.032 42.211h1.255v3.445h-1.255z" fill="#b5c3c2"/><path d="m106.513 42.211h1.255v3.445h-1.255z" fill="#b5c3c2" opacity=".29"/><path d="m108.995 42.211h1.255v3.445h-1.255z" fill="#b5c3c2"/><path d="m111.476 42.211h1.255v3.445h-1.255z" fill="#b5c3c2"/><path d="m113.958 42.211h1.251v3.445h-1.251z" fill="#b5c3c2"/><path d="m116.439 42.211h1.251v3.445h-1.251z" fill="#b5c3c2"/><path d="m104.032 47.584h1.255v3.445h-1.255z" fill="#b5c3c2"/><path d="m106.513 47.584h1.255v3.445h-1.255z" fill="#b5c3c2"/><path d="m108.995 47.584h1.255v3.445h-1.255z" fill="#b5c3c2"/><path d="m111.476 47.584h1.255v3.445h-1.255z" fill="#b5c3c2" opacity=".29"/><path d="m113.958 47.584h1.251v3.445h-1.251z" fill="#b5c3c2"/><path d="m116.439 47.584h1.251v3.445h-1.251z" fill="#b5c3c2"/><path d="m104.032 52.953h1.255v3.445h-1.255z" fill="#b5c3c2"/><path d="m106.513 52.953h1.255v3.445h-1.255z" fill="#b5c3c2"/><path d="m108.995 52.953h1.255v3.445h-1.255z" fill="#b5c3c2"/><path d="m111.476 52.953h1.255v3.445h-1.255z" fill="#b5c3c2"/><path d="m113.958 52.953h1.251v3.445h-1.251z" fill="#b5c3c2" opacity=".29"/><path d="m116.439 52.953h1.251v3.445h-1.251z" fill="#b5c3c2" opacity=".29"/><path d="m104.032 58.322h1.255v3.445h-1.255z" fill="#b5c3c2" opacity=".29"/><path d="m106.513 58.322h1.255v3.445h-1.255z" fill="#b5c3c2"/><path d="m108.995 58.322h1.255v3.445h-1.255z" fill="#b5c3c2"/><path d="m111.476 58.322h1.255v3.445h-1.255z" fill="#b5c3c2"/><path d="m113.958 58.322h1.251v3.445h-1.251z" fill="#b5c3c2"/><path d="m116.439 58.322h1.251v3.445h-1.251z" fill="#b5c3c2"/><path d="m104.032 63.695h1.255v3.445h-1.255z" fill="#b5c3c2"/><path d="m106.513 63.695h1.255v3.445h-1.255z" fill="#b5c3c2" opacity=".29"/><path d="m108.995 63.695h1.255v3.445h-1.255z" fill="#b5c3c2"/><path d="m111.476 63.695h1.255v3.445h-1.255z" fill="#b5c3c2" opacity=".29"/><path d="m113.958 63.695h1.251v3.445h-1.251z" fill="#b5c3c2"/><path d="m116.439 63.695h1.251v3.445h-1.251z" fill="#b5c3c2"/><path d="m104.032 69.065h1.255v3.445h-1.255z" fill="#b5c3c2"/><path d="m106.513 69.065h1.255v3.445h-1.255z" fill="#b5c3c2"/><path d="m108.995 69.065h1.255v3.445h-1.255z" fill="#b5c3c2"/><path d="m111.476 69.065h1.255v3.445h-1.255z" fill="#b5c3c2"/><path d="m113.958 69.065h1.251v3.445h-1.251z" fill="#b5c3c2"/><path d="m116.439 69.065h1.251v3.445h-1.251z" fill="#b5c3c2" opacity=".29"/><path d="m104.032 74.438h1.255v3.445h-1.255z" fill="#b5c3c2"/><path d="m106.513 74.438h1.255v3.445h-1.255z" fill="#b5c3c2" opacity=".29"/><path d="m108.995 74.438h1.255v3.445h-1.255z" fill="#b5c3c2" opacity=".29"/><path d="m111.476 74.438h1.255v3.445h-1.255z" fill="#b5c3c2"/><path d="m113.958 74.438h1.251v3.445h-1.251z" fill="#b5c3c2"/><path d="m116.439 74.438h1.251v3.445h-1.251z" fill="#b5c3c2"/><path d="m104.032 79.807h1.255v3.445h-1.255z" fill="#b5c3c2"/><path d="m106.513 79.807h1.255v3.445h-1.255z" fill="#b5c3c2"/><path d="m108.995 79.807h1.255v3.445h-1.255z" fill="#b5c3c2"/><path d="m111.476 79.807h1.255v3.445h-1.255z" fill="#b5c3c2"/><path d="m113.958 79.807h1.251v3.445h-1.251z" fill="#b5c3c2" opacity=".29"/><path d="m116.439 79.807h1.251v3.445h-1.251z" fill="#b5c3c2"/><path d="m104.032 85.18h1.255v3.445h-1.255z" fill="#b5c3c2"/><path d="m106.513 85.18h1.255v3.445h-1.255z" fill="#b5c3c2" opacity=".29"/><path d="m108.995 85.18h1.255v3.445h-1.255z" fill="#b5c3c2"/><path d="m111.476 85.18h1.255v3.445h-1.255z" fill="#b5c3c2"/><path d="m113.958 85.18h1.251v3.445h-1.251z" fill="#b5c3c2"/><path d="m116.439 85.18h1.251v3.445h-1.251z" fill="#b5c3c2"/><path d="m104.032 90.549h1.255v3.445h-1.255z" fill="#b5c3c2"/><path d="m106.513 90.549h1.255v3.445h-1.255z" fill="#b5c3c2"/><path d="m108.995 90.549h1.255v3.445h-1.255z" fill="#b5c3c2"/><path d="m111.476 90.549h1.255v3.445h-1.255z" fill="#b5c3c2" opacity=".29"/><path d="m113.958 90.549h1.251v3.445h-1.251z" fill="#b5c3c2"/><path d="m116.439 90.549h1.251v3.445h-1.251z" fill="#b5c3c2" opacity=".29"/><path d="m104.032 95.923h1.255v3.445h-1.255z" fill="#b5c3c2" opacity=".29"/><path d="m106.513 95.923h1.255v3.445h-1.255z" fill="#b5c3c2"/><path d="m108.995 95.923h1.255v3.445h-1.255z" fill="#b5c3c2" opacity=".29"/><path d="m111.476 95.923h1.255v3.445h-1.255z" fill="#b5c3c2"/><path d="m113.958 95.923h1.251v3.445h-1.251z" fill="#b5c3c2"/><path d="m116.439 95.923h1.251v3.445h-1.251z" fill="#b5c3c2"/><path d="m54.454 42.092h26.637v55.562h-26.637z" fill="#b5c3c2"/><path d="m53.696 41.136h28.15v1.571h-28.15z" fill="#b5c3c2"/><path d="m55.349 39.126h24.848v7.465h-24.848z" fill="#b5c3c2"/><path d="m57.252 36.07h9.84v8.154h-9.84z" fill="#b5c3c2"/><path d="m145.273 87.37h-5.693v-4.29h4.081z" fill="#b5c3c2" transform="translate(-82.328 -49.003)"/><path d="m59.545 30.513h.554v9.561h-.554z" fill="#b5c3c2"/><circle cx="59.819" cy="30.016" fill="#b5c3c2" r=".496"/><path d="m688.327 130.914h-29.159l-3.638-81.694 32.8 6.809z" fill="#b5c3c2" transform="translate(-386.65 -29.031)"/><path d="m382.6 55.23v-27.314h-4.573v-7.316h-1.627v-10.727h-9v-7.888h-.8v7.888h-1.764v-9.873h-.8v9.873h-5.689v18.043h-2.947v27.314h-2.52v49.746h31.493v-49.746z" fill="#b5c3c2" transform="translate(-208.139)"/><path d="m17.223 100.869h348.387v8.285h-348.387z" fill="#b5c3c2"/><path d="m519.777 216.75h-15.427l6.009-30.89h9.418z" fill="#95a9a7" transform="translate(-297.48 -109.626)"/><path d="m4.725 108.33h365.791v13.064h-365.791z" fill="#95a9a7"/><path d="m473.875 77.533v-13.687h-4.955v-5.213h-2.65v-4.377h-.931v-7.506h-.239v7.506h-.931v4.377h-2.65v5.213h-4.919v13.687h-1.021v24.857h-7.619v28.33h26.9v-53.187z" fill="#95a9a7" transform="translate(-264.22 -27.574)"/><path d="m546.065 160.14h-23.975v.435h1.083v40.545h21.809v-40.545h1.083z" fill="#95a9a7" transform="translate(-307.944 -94.455)"/><path d="m107.535 75.783h21.259v33.773h-21.259z" fill="#95a9a7"/><path d="m67.773 93.088h36.559v16.468h-36.559z" fill="#95a9a7"/><path d="m87.366 56.292h8.027v40.443h-8.027z" fill="#95a9a7"/><path d="m89.138 45.504h.418v21.993h-.418z" fill="#95a9a7"/><path d="m90.496 47.17h.418v21.993h-.418z" fill="#95a9a7"/><path d="m87.986 53.79h4.906v5.418h-4.906z" fill="#95a9a7"/><path d="m102.9 81.829h13.966v27.728h-13.966z" fill="#95a9a7"/><path d="m132.235 52.49h26.218v57.067h-26.218z" fill="#95a9a7"/><path d="m134.811 50.525h21.066v9.504h-21.066z" fill="#95a9a7"/><path d="m130.205 53.683h30.283v.669h-30.283z" fill="#95a9a7"/><path d="m127.485 80.734h12.354v28.819h-12.354z" fill="#95a9a7"/><path d="m39.003 79.639h14.176v29.914h-14.176z" fill="#95a9a7"/><path d="m43.589 71.509h28.248v38.043h-28.248z" fill="#95a9a7"/><path d="m41.94 70.049h30.623v1.46h-30.623z" fill="#95a9a7"/><path d="m44.84 66.091h12.412v7.715h-12.412z" fill="#95a9a7"/><path d="m61.308 66.091h2.084v4.692h-2.084z" fill="#95a9a7"/><path d="m65.48 66.091h2.293v4.692h-2.293z" fill="#95a9a7"/><path d="m31.288 97.986h14.803v11.571h-14.803z" fill="#95a9a7"/><path d="m25.697 93.088h7.01v16.468h-7.01z" fill="#95a9a7"/><path d="m17.223 103.769h11.977v5.783h-11.977z" fill="#95a9a7"/><path d="m155.877 96.735h147.6v12.822h-147.6z" fill="#95a9a7"/><path d="m634.683 110.616a1.772 1.772 0 0 0 -1.768 1.641l-2.075-.066v-.611a21.87 21.87 0 0 0 -1.3-7.461l1.735-.64a1.764 1.764 0 1 0 -.07-.185l-1.727.628a21.738 21.738 0 0 0 -4.471-7.223l1.358-1.272a1.768 1.768 0 1 0 -.135-.144l-1.358 1.272q-.209-.221-.41-.439a21.826 21.826 0 0 0 -7.067-4.746l.742-1.8a1.78 1.78 0 1 0 -.185-.07l-.747 1.813a21.78 21.78 0 0 0 -7.408-1.575l.082-2.486h.057a1.776 1.776 0 1 0 -.254 0l-.082 2.5h-.611a21.882 21.882 0 0 0 -7.178 1.2l-.714-2.03a1.784 1.784 0 1 0 -.185.066l.714 2.03a21.739 21.739 0 0 0 -7.51 4.573l-1.3-1.382a1.78 1.78 0 1 0 -.14.135l1.292 1.382-.439.41a21.872 21.872 0 0 0 -4.356 6.2l-1.641-.759a1.772 1.772 0 1 0 -.074.185l1.641.755a21.738 21.738 0 0 0 -1.944 8.269l-2.112-.07a1.772 1.772 0 1 0 0 .2l2.112.07v.611a21.87 21.87 0 0 0 1.3 7.461l-1.735.64a1.763 1.763 0 1 0 .07.185l1.735-.64a21.739 21.739 0 0 0 4.475 7.218l-1.358 1.272a1.768 1.768 0 1 0 .135.144l1.358-1.272q.209.221.41.439a21.975 21.975 0 0 0 4.569 3.482l-10.693 19.713h-1.921v.562h-.939v1.112h48.86v-1.113h-.939v-.562h-1.92l-10.71-19.717a21.915 21.915 0 0 0 3.995-2.949l1.735 1.85a1.768 1.768 0 1 0 .156-.123l-1.747-1.862.439-.41a21.87 21.87 0 0 0 4.356-6.2l1.932.89a1.777 1.777 0 1 0 .057-.189l-1.9-.894a21.738 21.738 0 0 0 1.944-8.269l2.08.066a1.772 1.772 0 1 0 1.772-1.821zm-4.426.947v.591l-6.12-.2v-.41a15.072 15.072 0 0 0 -.9-5.139l5.742-2.121a21.278 21.278 0 0 1 1.276 7.276zm-6.423.386-13.651-.443a1.187 1.187 0 0 0 -.041-.258l12.818-4.717a14.767 14.767 0 0 1 .882 5.037q0 .185-.008.377zm-29.684-.767 13.651.443a1.187 1.187 0 0 0 .041.258l-12.819 4.717a14.767 14.767 0 0 1 -.882-5.037q0-.2.008-.386zm15.775-.357 9.959-9.335a14.871 14.871 0 0 1 3 4.852l-12.818 4.717a1.192 1.192 0 0 0 -.144-.238zm-.135-.144a1.2 1.2 0 0 0 -.258-.176l5.189-12.633a14.906 14.906 0 0 1 5.029 3.478zm-.439-.254a1.184 1.184 0 0 0 -.221-.049l.443-13.65a14.766 14.766 0 0 1 4.951 1.042zm-.41-.053a1.194 1.194 0 0 0 -.242.037l-4.541-12.879a14.766 14.766 0 0 1 4.844-.82h.386zm-.41.1a1.193 1.193 0 0 0 -.254.152l-9.34-9.963a14.868 14.868 0 0 1 5.045-3.076zm-.41.287a1.2 1.2 0 0 0 -.152.213l-12.4-5.742a14.923 14.923 0 0 1 3.22-4.45zm-.238.41a1.187 1.187 0 0 0 -.066.271l-13.651-.442a14.766 14.766 0 0 1 1.313-5.554zm.041.911a1.189 1.189 0 0 0 .115.193l-.082.148-9.844 9.229a14.871 14.871 0 0 1 -3-4.852zm-.267.894-6.181 11.395a14.945 14.945 0 0 1 -3.232-2.572zm.673-.41.131.078-5.2 12.6a14.8 14.8 0 0 1 -1.456-.71zm.312.152a1.186 1.186 0 0 0 .221.049l-.443 13.651a14.766 14.766 0 0 1 -4.971-1.091zm.358 13.71h-.386l.443-13.65a1.19 1.19 0 0 0 .242-.037l4.541 12.879a14.766 14.766 0 0 1 -4.852.788zm.488-13.757a1.192 1.192 0 0 0 .185-.1l6.489 11.977a14.763 14.763 0 0 1 -2.158.98zm1.1.747 8.491 9.061a14.935 14.935 0 0 1 -2.547 1.895zm-.373-.685-.246-.451a1.183 1.183 0 0 0 .07-.111l12.4 5.742a14.922 14.922 0 0 1 -3.22 4.45zm-.09-.742a1.184 1.184 0 0 0 .066-.271l13.638.406a14.766 14.766 0 0 1 -1.313 5.554zm-6.973 13.56-2.33 5.673a21 21 0 0 1 -2.08-1l2.924-5.394a15.094 15.094 0 0 0 1.485.705zm.18.074a15.041 15.041 0 0 0 5.07 1.087l-.2 6.12a21.194 21.194 0 0 1 -7.211-1.555zm5.267 1.1h.41a15.078 15.078 0 0 0 4.922-.82l2.051 5.783a21.292 21.292 0 0 1 -6.973 1.165h-.591zm5.517-.911a15.076 15.076 0 0 0 2.2-1l2.924 5.394a21 21 0 0 1 -3.089 1.39zm14.807-21.69-5.742 2.121a15.176 15.176 0 0 0 -3.064-4.951l4.475-4.192a21.162 21.162 0 0 1 4.336 7.018zm-4.893-7.58.41.41-4.475 4.192a15.2 15.2 0 0 0 -5.131-3.548l2.33-5.673a21.234 21.234 0 0 1 6.866 4.619zm-7.043-4.7-2.33 5.673a15.045 15.045 0 0 0 -5.053-1.087l.2-6.12a21.193 21.193 0 0 1 7.182 1.534zm-7.99-1.546h.591l-.2 6.12h-.41a15.078 15.078 0 0 0 -4.922.82l-2.056-5.785a21.292 21.292 0 0 1 6.99-1.153zm-7.166 1.231 2.051 5.783a15.176 15.176 0 0 0 -5.152 3.138l-4.192-4.475a21.149 21.149 0 0 1 7.272-4.446zm-7.875 5.012.41-.41 4.192 4.475a15.219 15.219 0 0 0 -3.281 4.541l-5.57-2.572a21.278 21.278 0 0 1 4.249-6.034zm-4.319 6.194 5.57 2.572a15.036 15.036 0 0 0 -1.341 5.664l-6.12-.2a21.16 21.16 0 0 1 1.888-8.038zm-1.907 8.827v-.591l6.12.2v.41a15.074 15.074 0 0 0 .9 5.139l-5.75 2.116a21.277 21.277 0 0 1 -1.276-7.276zm1.329 7.438 5.742-2.121a15.177 15.177 0 0 0 3.064 4.951l-4.475 4.192a21.16 21.16 0 0 1 -4.331-7.022zm4.893 7.592-.41-.41 4.471-4.217a15.246 15.246 0 0 0 3.306 2.629l-2.929 5.394a21.383 21.383 0 0 1 -4.437-3.388zm36.157 23.642h-42.247l10.591-19.52a21.585 21.585 0 0 0 2.137 1.03l-.747 1.817a1.776 1.776 0 1 0 .185.07l.746-1.813a21.78 21.78 0 0 0 7.408 1.575l-.062 1.858a1.772 1.772 0 1 0 .2 0l.062-1.862h.611a21.883 21.883 0 0 0 7.174-1.169l.636 1.809a1.78 1.78 0 1 0 .185-.074l-.636-1.8a21.573 21.573 0 0 0 3.175-1.432zm-10.529-20.234-2.929-5.394a15.233 15.233 0 0 0 2.609-1.94l4.192 4.475a21.332 21.332 0 0 1 -3.864 2.859zm4.438-3.409-.41.41-4.192-4.475a15.217 15.217 0 0 0 3.281-4.541l5.57 2.572a21.275 21.275 0 0 1 -4.241 6.034zm4.323-6.21-5.57-2.572a15.037 15.037 0 0 0 1.341-5.664l6.12.2a21.162 21.162 0 0 1 -1.883 8.039z" fill="#95a9a7" transform="translate(-342.989 -49.369)"/><path d="m295.975 76.161h22.793v33.396h-22.793z" fill="#95a9a7"/><path d="m315.43 89.143h22.793v20.221h-22.793z" fill="#95a9a7"/><path d="m227.042 86.173h12.785v16.973h-12.785z" fill="#95a9a7"/><path d="m307.37 44.401h16.12v65.156h-16.12z" fill="#95a9a7"/><path d="m822.813 212.387h-21.263v-38.047h16.124z" fill="#95a9a7" transform="translate(-472.777 -102.831)"/><path d="m340.725 100.869h18.622v8.683h-18.622z" fill="#95a9a7"/><path d="m319.322 30.787h.558v17.707h-.558z" fill="#95a9a7"/><path d="m321.197 34.59h.558v17.707h-.558z" fill="#95a9a7"/><path d="m317.62 37.034h.558v17.707h-.558z" fill="#95a9a7"/><path d="m329.605 68.437h7.609v5.993h-7.609z" fill="#95a9a7"/><path d="m330.442 66.3h5.943v3.368h-5.943z" fill="#95a9a7"/><path d="m340.237 70.193h1.46v2.42h-1.46z" fill="#95a9a7"/><path d="m342.214 67.982h2.084v4.627h-2.084z" fill="#95a9a7"/><path d="m226.976 59.097h19.327v62.297h-19.327z" fill="#658280"/><path d="m225.533 59.467h22.215v.632h-22.215z" fill="#658280"/><path d="m226.132 68.22h21.013v.628h-21.013z" fill="#658280"/><path d="m226.132 76.694h21.013v.628h-21.013z" fill="#658280"/><path d="m226.132 85.168h21.013v.628h-21.013z" fill="#658280"/><path d="m226.132 93.642h21.013v.628h-21.013z" fill="#658280"/><path d="m226.132 102.116h21.013v.628h-21.013z" fill="#658280"/><path d="m226.132 110.59h21.013v.628h-21.013z" fill="#658280"/><path d="m224.798 57.748h23.683v1.723h-23.683z" fill="#658280"/><path d="m228.716 62.145h2.01v4.975h-2.01z" fill="#658280" opacity=".29"/><path d="m233.207 62.145h2.01v4.975h-2.01z" fill="#658280"/><path d="m237.698 62.145h2.01v4.975h-2.01z" fill="#658280"/><path d="m242.19 62.145h2.01v4.975h-2.01z" fill="#658280"/><path d="m228.716 70.283h2.01v4.975h-2.01z" fill="#658280"/><path d="m233.207 70.283h2.01v4.975h-2.01z" fill="#658280" opacity=".29"/><path d="m237.698 70.283h2.01v4.975h-2.01z" fill="#658280"/><path d="m242.19 70.283h2.01v4.975h-2.01z" fill="#658280"/><path d="m228.716 78.757h2.01v4.975h-2.01z" fill="#658280"/><path d="m233.207 78.757h2.01v4.975h-2.01z" fill="#658280"/><path d="m237.698 78.757h2.01v4.975h-2.01z" fill="#658280"/><path d="m242.19 78.757h2.01v4.975h-2.01z" fill="#658280" opacity=".29"/><path d="m228.716 87.231h2.01v4.975h-2.01z" fill="#658280"/><path d="m233.207 87.231h2.01v4.975h-2.01z" fill="#658280" opacity=".29"/><path d="m237.698 87.231h2.01v4.975h-2.01z" fill="#658280" opacity=".29"/><path d="m242.19 87.231h2.01v4.975h-2.01z" fill="#658280"/><path d="m228.716 95.705h2.01v4.975h-2.01z" fill="#658280" opacity=".29"/><path d="m233.207 95.705h2.01v4.975h-2.01z" fill="#658280"/><path d="m237.698 95.705h2.01v4.975h-2.01z" fill="#658280"/><path d="m242.19 95.705h2.01v4.975h-2.01z" fill="#658280"/><path d="m228.716 104.179h2.01v4.975h-2.01z" fill="#658280"/><path d="m233.207 104.179h2.01v4.975h-2.01z" fill="#658280"/><path d="m237.698 104.179h2.01v4.975h-2.01z" fill="#658280" opacity=".29"/><path d="m242.19 104.179h2.01v4.975h-2.01z" fill="#658280"/><path d="m228.716 112.654h2.01v4.975h-2.01z" fill="#658280"/><path d="m233.207 112.654h2.01v4.975h-2.01z" fill="#658280" opacity=".29"/><path d="m237.698 112.654h2.01v4.975h-2.01z" fill="#658280"/><path d="m242.19 112.654h2.01v4.975h-2.01z" fill="#658280" opacity=".29"/><path d="m228.195 55.373h6.575v3.236h-6.575z" fill="#658280"/><path d="m227.752 55.279h7.465v.554h-7.465z" fill="#658280"/><path d="m448.812 201.788h-25.742v-59.188l25.742-6.3z" fill="#658280" transform="translate(-249.539 -80.394)"/><path d="m172.399 61.165h2.26v60.234h-2.26z" fill="#658280"/><path d="m178.835 59.467h2.264v61.928h-2.264z" fill="#658280"/><path d="m185.27 57.703h2.26v63.691h-2.26z" fill="#658280"/><path d="m191.71 56.267h2.26v65.127h-2.26z" fill="#658280"/><path d="m198.146 54.737h2.26v66.657h-2.26z" fill="#658280"/><path d="m175.246 66.218h3.002v4.573h-3.002z" fill="#658280" opacity=".29"/><path d="m181.685 66.218h3.002v4.573h-3.002z" fill="#658280" opacity=".29"/><path d="m188.121 66.218h3.002v4.573h-3.002z" fill="#658280"/><path d="m194.557 66.218h3.002v4.573h-3.002z" fill="#658280" opacity=".29"/><path d="m175.246 74.184h3.002v4.573h-3.002z" fill="#658280"/><path d="m181.685 74.184h3.002v4.573h-3.002z" fill="#658280"/><path d="m188.121 74.184h3.002v4.573h-3.002z" fill="#658280" opacity=".29"/><path d="m194.557 74.184h3.002v4.573h-3.002z" fill="#658280" opacity=".29"/><path d="m175.246 82.149h3.002v4.573h-3.002z" fill="#658280" opacity=".29"/><path d="m181.685 82.149h3.002v4.573h-3.002z" fill="#658280" opacity=".29"/><path d="m188.121 82.149h3.002v4.573h-3.002z" fill="#658280" opacity=".29"/><path d="m194.557 82.149h3.002v4.573h-3.002z" fill="#658280"/><path d="m175.246 90.111h3.002v4.573h-3.002z" fill="#658280" opacity=".29"/><path d="m181.685 90.111h3.002v4.573h-3.002z" fill="#658280"/><path d="m188.121 90.111h3.002v4.573h-3.002z" fill="#658280" opacity=".29"/><path d="m194.557 90.111h3.002v4.573h-3.002z" fill="#658280" opacity=".29"/><path d="m175.246 98.076h3.002v4.573h-3.002z" fill="#658280" opacity=".29"/><path d="m181.685 98.076h3.002v4.573h-3.002z" fill="#658280" opacity=".29"/><path d="m188.121 98.076h3.002v4.573h-3.002z" fill="#658280"/><path d="m194.557 98.076h3.002v4.573h-3.002z" fill="#658280" opacity=".29"/><path d="m175.246 106.042h3.002v4.573h-3.002z" fill="#658280"/><path d="m181.685 106.042h3.002v4.573h-3.002z" fill="#658280"/><path d="m188.121 106.042h3.002v4.573h-3.002z" fill="#658280" opacity=".29"/><path d="m194.557 106.042h3.002v4.573h-3.002z" fill="#658280" opacity=".29"/><path d="m175.246 114.007h3.002v4.573h-3.002z" fill="#658280" opacity=".29"/><path d="m181.685 114.007h3.002v4.573h-3.002z" fill="#658280"/><path d="m188.121 114.007h3.002v4.573h-3.002z" fill="#658280" opacity=".29"/><path d="m194.557 114.007h3.002v4.573h-3.002z" fill="#658280"/><path d="m232.288 158.57v.615h-.615v1.751h10.775v53.987h-17.678v-55.738h-.64v-.615z" fill="#658280" transform="translate(-132.198 -93.529)"/><path d="m130.205 89.565h15.144v31.833h-15.144z" fill="#658280"/><path d="m64.208 82.268h12.309v39.13h-12.309z" fill="#658280"/><path d="m74.077 90.418h13.413v30.976h-13.413z" fill="#658280"/><path d="m68.638 80.697h5.443v4.684h-5.443z" fill="#658280"/><path d="m75 89.91h14.299v1.144h-14.299z" fill="#658280"/><path d="m86.05 103.704h15.037v17.691h-15.037z" fill="#658280"/><path d="m37.449 89.315h12.231v32.079h-12.231z" fill="#658280"/><path d="m26.833 105.303h16.091v16.091h-16.091z" fill="#658280"/><path d="m9.114 102.67h10.066v18.724h-10.066z" fill="#658280"/><path d="m17.223 115.529h23.79v5.865h-23.79z" fill="#658280"/><path d="m0 113.634h12.194v7.76h-12.194z" fill="#658280"/><path d="m49.68 109.557h18.954v11.838h-18.954z" fill="#658280"/><path d="m105.287 116.296h29.528v5.098h-29.528z" fill="#658280"/><path d="m157.637 116.296h29.528v5.098h-29.528z" fill="#658280"/><path d="m302.908 247.02h-11.222l-4.746 17.522h15.968z" fill="#658280" transform="translate(-169.245 -145.7)"/><path d="m138.851 75.824h.312v19.438h-.312z" fill="#658280"/><path d="m140.414 82.403h.418v11.472h-.418z" fill="#658280"/><path d="m138.178 84.434h5.677v5.677h-5.677z" fill="#658280"/><path d="m137.219 83.995h7.518v.509h-7.518z" fill="#658280"/><path d="m142.592 104.975h18.347v16.419h-18.347z" fill="#658280"/><path d="m157.428 86.903h11.788v31.678h-11.788z" fill="#658280"/><path d="m203.465 92.859h18.831v28.536h-18.831z" fill="#658280"/><path d="m197.559 110.882h21.472v10.517h-21.472z" fill="#658280"/><path d="m221.255 117.633h13.962v3.765h-13.962z" fill="#658280"/><path d="m242.76 110.882h22.699v10.517h-22.699z" fill="#658280"/><path d="m0 0h28.248v38.043h-28.248z" fill="#658280" transform="matrix(-1 0 0 -1 280.049 121.394)"/><path d="m0 0h30.623v1.46h-30.623z" fill="#658280" transform="matrix(-1 0 0 -1 281.697 83.347)"/><path d="m0 0h12.412v7.715h-12.412z" fill="#658280" transform="matrix(-1 0 0 -1 278.798 85.644)"/><path d="m0 0h2.084v4.692h-2.084z" fill="#658280" transform="matrix(-1 0 0 -1 262.329 82.621)"/><path d="m0 0h2.293v4.692h-2.293z" fill="#658280" transform="matrix(-1 0 0 -1 258.158 82.621)"/><path d="m0 0h22.358v55.562h-22.358z" fill="#658280" transform="matrix(-1 0 0 -1 321.829 121.394)"/><path d="m0 0h23.63v1.571h-23.63z" fill="#658280" transform="matrix(-1 0 0 -1 322.46 66.444)"/><path d="m0 0h20.857v7.465h-20.857z" fill="#658280" transform="matrix(-1 0 0 -1 321.074 70.328)"/><path d="m0 0h8.261v8.154h-8.261z" fill="#658280" transform="matrix(-1 0 0 -1 319.478 67.965)"/><path d="m767.24 145.254h4.779v-4.294h-3.429z" fill="#658280" transform="translate(-452.54 -83.142)"/><path d="m0 0h.463v9.561h-.463z" fill="#658280" transform="matrix(-1 0 0 -1 317.55 63.814)"/><ellipse cx="317.32" cy="53.757" fill="#658280" rx=".414" ry=".496"/><path d="m318.765 98.458h10.008v22.937h-10.008z" fill="#658280"/><path d="m290.262 87.272h11.411v34.122h-11.411z" fill="#658280"/><path d="m698.469 269.719h-16.079v-18.249l13.568 6.009z" fill="#658280" transform="translate(-402.493 -148.324)"/><path d="m325.487 111.485h24.549v9.91h-24.549z" fill="#658280"/><path d="m340.967 81.829h14.262v39.565h-14.262z" fill="#658280"/><path d="m351.894 114.007h23.626v7.387h-23.626z" fill="#658280"/><path d="m340.237 81.103h15.644v1.296h-15.644z" fill="#658280"/><path d="m353.006 75.521h.312v7.974h-.312z" fill="#658280"/><path d="m350.922 76.53h.312v6.395h-.312z" fill="#658280"/><path d="m869.778 235.84h-6.358v18.125h9.069z" fill="#658280" transform="translate(-509.27 -139.105)"/><g fill="#fff"><g opacity=".52"><path d="m65.48 84.249h.931v.931h-.931z"/><path d="m67.35 84.249h.931v.931h-.931z"/><path d="m65.48 86.435h.931v.931h-.931z"/><path d="m67.35 86.435h.931v.931h-.931z"/><path d="m65.48 88.552h.931v.931h-.931z"/><path d="m69.43 84.249h.931v.931h-.931z"/></g><path d="m133.663 56.267h.636v3.515h-.636z" opacity=".5"/><path d="m135.853 56.267h.636v3.515h-.636z" opacity=".5"/><path d="m138.043 56.267h.636v3.515h-.636z" opacity=".5"/><path d="m140.233 56.267h.636v3.515h-.636z" opacity=".5"/><path d="m142.424 56.267h.636v3.515h-.636z" opacity=".5"/><path d="m144.614 56.267h.636v3.515h-.636z" opacity=".5"/><path d="m146.8 56.267h.636v3.515h-.636z" opacity=".5"/><path d="m148.991 56.267h.636v3.515h-.636z" opacity=".5"/><path d="m151.181 56.267h.636v3.515h-.636z" opacity=".5"/><path d="m153.371 56.267h.636v3.515h-.636z" opacity=".5"/><path d="m155.562 56.267h.636v3.515h-.636z" opacity=".5"/><path d="m133.663 61.165h.636v3.515h-.636z" opacity=".5"/><path d="m135.853 61.165h.636v3.515h-.636z" opacity=".5"/><path d="m138.043 61.165h.636v3.515h-.636z" opacity=".5"/><path d="m140.233 61.165h.636v3.515h-.636z" opacity=".5"/><path d="m142.424 61.165h.636v3.515h-.636z" opacity=".5"/><path d="m144.614 61.165h.636v3.515h-.636z" opacity=".5"/><path d="m146.8 61.165h.636v3.515h-.636z" opacity=".5"/><path d="m148.991 61.165h.636v3.515h-.636z" opacity=".5"/><path d="m151.181 61.165h.636v3.515h-.636z" opacity=".5"/><path d="m153.371 61.165h.636v3.515h-.636z" opacity=".5"/><path d="m155.562 61.165h.636v3.515h-.636z" opacity=".5"/><path d="m133.663 66.058h.636v3.515h-.636z" opacity=".5"/><path d="m135.853 66.058h.636v3.515h-.636z" opacity=".5"/><path d="m138.043 66.058h.636v3.515h-.636z" opacity=".5"/><path d="m140.233 66.058h.636v3.515h-.636z" opacity=".5"/><path d="m142.424 66.058h.636v3.515h-.636z" opacity=".5"/><path d="m144.614 66.058h.636v3.515h-.636z" opacity=".5"/><path d="m146.8 66.058h.636v3.515h-.636z" opacity=".5"/><path d="m148.991 66.058h.636v3.515h-.636z" opacity=".5"/><path d="m151.181 66.058h.636v3.515h-.636z" opacity=".5"/><path d="m153.371 66.058h.636v3.515h-.636z" opacity=".5"/><path d="m155.562 66.058h.636v3.515h-.636z" opacity=".5"/><path d="m140.233 70.956h.636v3.515h-.636z" opacity=".5"/><path d="m142.424 70.956h.636v3.515h-.636z" opacity=".5"/><path d="m144.614 70.956h.636v3.515h-.636z" opacity=".5"/><path d="m146.8 70.956h.636v3.515h-.636z" opacity=".5"/><path d="m148.991 70.956h.636v3.515h-.636z" opacity=".5"/><path d="m151.181 70.956h.636v3.515h-.636z" opacity=".5"/><path d="m153.371 70.956h.636v3.515h-.636z" opacity=".5"/><path d="m155.562 70.956h.636v3.515h-.636z" opacity=".5"/><path d="m142.424 76.124h.636v3.515h-.636z" opacity=".5"/><path d="m144.614 76.124h.636v3.515h-.636z" opacity=".5"/><path d="m146.8 76.124h.636v3.515h-.636z" opacity=".5"/><path d="m148.991 76.124h.636v3.515h-.636z" opacity=".5"/><path d="m151.181 76.124h.636v3.515h-.636z" opacity=".5"/><path d="m153.371 76.124h.636v3.515h-.636z" opacity=".5"/><path d="m155.562 76.124h.636v3.515h-.636z" opacity=".5"/><path d="m175.996 64.996h1.501v3.806h-1.501z" opacity=".33"/><path d="m175.996 72.28h1.501v3.806h-1.501z" opacity=".33"/><path d="m175.996 79.561h1.501v3.806h-1.501z" opacity=".33"/><path d="m175.996 86.846h1.501v3.806h-1.501z" opacity=".33"/><path d="m175.996 93.712h1.501v3.806h-1.501z" opacity=".33"/><path d="m175.996 100.992h1.501v3.806h-1.501z" opacity=".33"/><path d="m182.436 64.996h1.501v3.806h-1.501z" opacity=".33"/><path d="m182.436 72.28h1.501v3.806h-1.501z" opacity=".33"/><path d="m182.436 79.561h1.501v3.806h-1.501z" opacity=".33"/><path d="m182.436 86.846h1.501v3.806h-1.501z" opacity=".33"/><path d="m182.436 93.712h1.501v3.806h-1.501z" opacity=".33"/><path d="m182.436 100.992h1.501v3.806h-1.501z" opacity=".33"/><path d="m188.872 64.996h1.501v3.806h-1.501z" opacity=".33"/><path d="m188.872 72.28h1.501v3.806h-1.501z" opacity=".33"/><path d="m188.872 79.561h1.501v3.806h-1.501z" opacity=".33"/><path d="m188.872 86.846h1.501v3.806h-1.501z" opacity=".33"/><path d="m188.872 93.712h1.501v3.806h-1.501z" opacity=".33"/><path d="m188.872 100.992h1.501v3.806h-1.501z" opacity=".33"/><path d="m195.307 64.996h1.501v3.806h-1.501z" opacity=".33"/><path d="m195.307 72.28h1.501v3.806h-1.501z" opacity=".33"/><path d="m195.307 79.561h1.501v3.806h-1.501z" opacity=".33"/><path d="m195.307 86.846h1.501v3.806h-1.501z" opacity=".33"/><path d="m195.307 93.712h1.501v3.806h-1.501z" opacity=".33"/><path d="m195.307 100.992h1.501v3.806h-1.501z" opacity=".33"/><path d="m151.817 11.899h1.251v3.331h-1.251z" opacity=".5"/><path d="m154.901 11.899h1.251v3.331h-1.251z" opacity=".5"/><path d="m157.982 11.899h1.251v3.331h-1.251z" opacity=".5"/><path d="m161.062 11.899h1.251v3.331h-1.251z" opacity=".5"/><path d="m151.817 17.449h1.251v3.331h-1.251z" opacity=".5"/><path d="m154.901 17.449h1.251v3.331h-1.251z" opacity=".5"/><path d="m157.982 17.449h1.251v3.331h-1.251z" opacity=".5"/><path d="m161.062 17.449h1.251v3.331h-1.251z" opacity=".5"/><path d="m151.817 22.998h1.251v3.331h-1.251z" opacity=".5"/><path d="m154.901 22.998h1.251v3.331h-1.251z" opacity=".5"/><path d="m164.561 11.899h1.251v3.331h-1.251z" opacity=".5"/><path d="m68.638 45.656h.796v3.056h-.796z" opacity=".4"/><path d="m71.44 45.656h.796v3.056h-.796z" opacity=".4"/><path d="m74.717 45.656h.796v3.056h-.796z" opacity=".4"/><path d="m77.522 45.656h.796v3.056h-.796z" opacity=".4"/><path d="m62.412 45.656h.796v3.056h-.796z" opacity=".4"/><path d="m65.213 45.656h.796v3.056h-.796z" opacity=".4"/><path d="m68.638 50.96h.796v3.056h-.796z" opacity=".4"/><path d="m71.44 50.96h.796v3.056h-.796z" opacity=".4"/><path d="m74.717 50.96h.796v3.056h-.796z" opacity=".4"/><path d="m77.522 50.96h.796v3.056h-.796z" opacity=".4"/><path d="m62.412 50.96h.796v3.056h-.796z" opacity=".4"/><path d="m65.213 50.96h.796v3.056h-.796z" opacity=".4"/><path d="m68.638 56.263h.796v3.056h-.796z" opacity=".4"/><path d="m71.44 56.263h.796v3.056h-.796z" opacity=".4"/><path d="m74.717 56.263h.796v3.056h-.796z" opacity=".4"/><path d="m77.522 56.263h.796v3.056h-.796z" opacity=".4"/><path d="m62.412 56.263h.796v3.056h-.796z" opacity=".4"/><path d="m65.213 56.263h.796v3.056h-.796z" opacity=".4"/><path d="m216.874 69.065h1.231v4.737h-1.231z" opacity=".5"/><path d="m220.639 69.065h1.231v4.737h-1.231z" opacity=".5"/><path d="m224.183 69.065h1.231v4.737h-1.231z" opacity=".5"/><path d="m301.677 70.049h.935v2.662h-.935z" opacity=".33"/><path d="m304.605 70.049h.935v2.662h-.935z" opacity=".33"/><path d="m301.677 70.049h.935v2.662h-.935z" opacity=".33"/><path d="m304.605 70.049h.935v2.662h-.935z" opacity=".33"/><path d="m307.37 70.049h.935v2.662h-.935z" opacity=".33"/><path d="m310.299 70.049h.935v2.662h-.935z" opacity=".33"/><path d="m301.677 74.828h.935v2.662h-.935z" opacity=".33"/><path d="m304.605 74.828h.935v2.662h-.935z" opacity=".33"/><path d="m301.677 74.828h.935v2.662h-.935z" opacity=".33"/><path d="m304.605 74.828h.935v2.662h-.935z" opacity=".33"/><path d="m307.37 74.828h.935v2.662h-.935z" opacity=".33"/><path d="m310.299 74.828h.935v2.662h-.935z" opacity=".33"/><path d="m301.677 79.914h.935v2.662h-.935z" opacity=".33"/><path d="m304.605 79.914h.935v2.662h-.935z" opacity=".33"/><path d="m301.677 79.914h.935v2.662h-.935z" opacity=".33"/><path d="m304.605 79.914h.935v2.662h-.935z" opacity=".33"/><path d="m307.37 79.914h.935v2.662h-.935z" opacity=".33"/><path d="m310.299 79.914h.935v2.662h-.935z" opacity=".33"/><path d="m313.498 70.049h.935v2.662h-.935z" opacity=".33"/><path d="m313.498 74.828h.935v2.662h-.935z" opacity=".33"/><path d="m316.427 70.049h.935v2.662h-.935z" opacity=".33"/><path d="m228.716 62.145h1.005v4.155h-1.005z" opacity=".33"/><path d="m233.711 62.145h1.005v4.155h-1.005z" opacity=".33"/><path d="m238.703 62.145h1.005v4.155h-1.005z" opacity=".33"/><path d="m243.695 62.145h1.005v4.155h-1.005z" opacity=".33"/><path d="m228.716 70.693h1.005v4.155h-1.005z" opacity=".33"/><path d="m233.711 70.693h1.005v4.155h-1.005z" opacity=".33"/><path d="m238.703 70.693h1.005v4.155h-1.005z" opacity=".33"/><path d="m243.695 70.693h1.005v4.155h-1.005z" opacity=".33"/><path d="m228.716 79.454h1.005v4.155h-1.005z" opacity=".33"/><path d="m233.711 79.454h1.005v4.155h-1.005z" opacity=".33"/><path d="m238.703 79.454h1.005v4.155h-1.005z" opacity=".33"/><path d="m243.695 79.454h1.005v4.155h-1.005z" opacity=".33"/><path d="m228.716 88.216h1.005v4.155h-1.005z" opacity=".33"/><path d="m233.711 88.216h1.005v4.155h-1.005z" opacity=".33"/><path d="m238.703 88.216h1.005v4.155h-1.005z" opacity=".33"/><path d="m243.695 88.216h1.005v4.155h-1.005z" opacity=".33"/><path d="m228.716 96.173h1.005v4.155h-1.005z" opacity=".33"/><path d="m233.711 96.173h1.005v4.155h-1.005z" opacity=".33"/><path d="m238.703 96.173h1.005v4.155h-1.005z" opacity=".33"/><path d="m228.716 105.049h1.005v4.155h-1.005z" opacity=".33"/><path d="m233.711 105.049h1.005v4.155h-1.005z" opacity=".33"/><path d="m238.703 105.049h1.005v4.155h-1.005z" opacity=".33"/><path d="m243.695 96.173h1.005v4.155h-1.005z" opacity=".33"/><path d="m342.23 84.102h1.025v2.383h-1.025z" opacity=".33"/><path d="m342.23 87.953h1.025v2.383h-1.025z" opacity=".33"/><path d="m344.864 84.102h1.025v2.383h-1.025z" opacity=".33"/></g></svg>