<?xml version="1.0"?>
<svg xmlns="http://www.w3.org/2000/svg" xmlns:xlink="http://www.w3.org/1999/xlink" xmlns:svgjs="http://svgjs.com/svgjs" version="1.1" width="512" height="512" x="0" y="0" viewBox="0 0 512 512" style="enable-background:new 0 0 512 512" xml:space="preserve" class=""><g><g xmlns="http://www.w3.org/2000/svg"><g><path d="m165.976 267.071c-2.132 0-4.255-.877-5.781-2.597-2.833-3.191-2.542-8.074.649-10.907l24.39-21.652-18.771-20.466c-2.831-3.193-2.538-8.076.655-10.907 3.194-2.832 8.077-2.537 10.907.655l23.894 26.244c2.829 3.192 2.538 8.072-.652 10.904l-30.164 26.778c-1.472 1.306-3.303 1.948-5.127 1.948zm-54.927-61.849c-2.132.001-4.254-.877-5.781-2.597-2.833-3.191-2.543-8.074.648-10.907l30.194-26.807c3.191-2.833 8.075-2.542 10.907.648l25.647 29.36c2.833 3.191 2.543 8.074-.648 10.907s-8.074 2.544-10.907-.648l-20.517-23.582-24.416 21.678c-1.472 1.305-3.303 1.948-5.127 1.948z" fill="#9facba" data-original="#9facba" style=""/></g><g><path clip-rule="evenodd" d="m28.378 243.08 82.493 92.979c2.044 2.307 5.607 2.511 7.914.467l60.505-53.732c2.307-2.044 2.511-5.578.467-7.884l-13.783-15.565-54.927-61.85-13.783-15.565c-2.044-2.278-5.607-2.511-7.913-.467l-60.505 53.731c-2.308 2.045-2.512 5.608-.468 7.886z" fill="#935d38" fill-rule="evenodd" data-original="#935d38" style="" class=""/></g><g><path clip-rule="evenodd" d="m118.784 336.526 60.505-53.732c2.307-2.044 2.511-5.578.467-7.884l-13.783-15.535c2.044 2.307 1.81 5.84-.467 7.885l-60.534 53.702c-2.278 2.044-5.84 1.84-7.884-.467l13.783 15.565c2.073 2.305 5.606 2.51 7.913.466z" fill="#7f4d2a" fill-rule="evenodd" data-original="#7f4d2a" style="" class=""/></g><g><path clip-rule="evenodd" d="m252.117 395.543 23.273-31.071-.642-.613c10.22-25.698-14.542-56.769-45.203-75.808l-16.761 45.38-6.599 16.324c-2.511 6.162-4.906 8.177-11.476 9.023l-62.461 8.41-6.862 28.647 15.798 22.047 95.984-13.608c8.028-1.109 11.532-4.205 14.949-8.731z" fill="#935d38" fill-rule="evenodd" data-original="#935d38" style="" class=""/></g><g><path clip-rule="evenodd" d="m261.315 351.944c-15.185-14.075-33.873-35.393-31.771-63.894l-11.914 32.268c6.629 19.77 22.28 34.721 33.756 44.854l-3.738 5.023c-3.417 4.556-6.921 7.622-14.951 8.731l-108.891 15.331 17.375 23.624 95.984-13.608c8.03-1.11 11.534-4.205 14.951-8.731l23.273-31.071-.642-.613c-3.416-3.095-8.205-7.066-13.432-11.914z" fill="#7f4d2a" fill-rule="evenodd" data-original="#7f4d2a" style="" class=""/></g><g><path clip-rule="evenodd" d="m360.044 380.562c-1.752-15.039-1.372-20.033-9.198-30.837l-18.134-33.144c-33.581-32.443-66.754-33.027-103.168-28.53-2.803 38.284 31.858 63.631 45.203 75.808l.642.613 12.673 11.33c11.71 9.461 11.534 9.666 14.659 21.726l17.871 69.062 27.361 7.622 22.222-7.622z" fill="#935d38" fill-rule="evenodd" data-original="#935d38" style="" class=""/></g><g><path clip-rule="evenodd" d="m350.846 349.725-18.134-33.144c-8.352-5.286-16.177-17.93-32.588-22.398l28.5 55.542c7.797 10.805 7.563 15.798 9.198 30.837l10.133 93.651 22.222-7.622-10.133-86.029c-1.752-15.039-1.372-20.032-9.198-30.837z" fill="#7f4d2a" fill-rule="evenodd" data-original="#7f4d2a" style="" class=""/></g><g><path clip-rule="evenodd" d="m410.211 512c1.256-31.713-28.442-45.409-40.006-45.409h-.029-49.583l-.082 42.312c-.003 1.709 1.381 3.096 3.091 3.096h86.609z" fill="#375e7d" fill-rule="evenodd" data-original="#375e7d" style="" class=""/></g><g><path clip-rule="evenodd" d="m410.211 512c1.256-31.713-28.442-45.409-40.006-45.409h-.029-22.222c11.564 0 41.29 13.696 40.006 45.409z" fill="#2b4d66" fill-rule="evenodd" data-original="#2b4d66" style="" class=""/></g><g><path clip-rule="evenodd" d="m364.745 219.981c11.914-34.867 3.212-57.323-10.074-65.383l-68.331-17.667c-13.695-4.643-44.678-17.463-73.966 5.694l-26.777 21.142-6.015 4.848 5.461 20.325 19.477 10.688 33.523-26.953 25.493 6.483-33.99 108.894c32.851 7.33 70.316 21.201 103.168 28.53l27.566-83.138z" fill="#ff6b81" fill-rule="evenodd" data-original="#eb5468" style="" class=""/></g><g><path clip-rule="evenodd" d="m320.884 255.87c7.865-23.85 9.29-77.517 1.403-99.607-8.251 22.505-30.361 63.831-47.048 80.876-.803.82-1.072 2.019-.712 3.11l8.519 25.853c.531 1.611 2.261 2.493 3.876 1.977l31.96-10.217c.95-.305 1.69-1.045 2.002-1.992z" fill="#eff6ff" fill-rule="evenodd" data-original="#eff6ff" style="" class=""/></g><g><path clip-rule="evenodd" d="m464.467 226.756-3.154-20.763-23.127-9.14-25.434 22.369c-.321.263-.818.672-1.343 1.051l-41.203-35.685c-16.031 1.197-29.435 26.457-9.782 48.475l29.99 23.858c15.623 11.243 34.925 4.205 48.62-7.797z" fill="#ff6b81" fill-rule="evenodd" data-original="#eb5468" style="" class=""/></g><g><path clip-rule="evenodd" d="m478.279 214.608c8.235-7.242 9.052-19.857 1.81-28.092-7.213-8.206-19.828-9.023-28.062-1.811l-13.841 12.148 26.281 29.903z" fill="#fdd9b4" fill-rule="evenodd" data-original="#ffe5c1" style="" class=""/></g><g><path clip-rule="evenodd" d="m204.519 199.627 33.523-26.953 25.493 6.483 1.256-4.03c1.256-4.059 2.482-7.067-2.015-8.06l-31.479-7.125-39.918 32.472z" fill="#ff6b81" fill-rule="evenodd" data-original="#e5384f" style="" class=""/></g><g><path clip-rule="evenodd" d="m332.712 316.581 27.566-83.138.146-.38 4.322-13.082c4.701-13.783 6.191-25.639 5.461-35.393-1.139-14.981-7.505-25.114-15.535-29.99l-12.644-3.271c8.848 10.922 16.148 36.473 6.541 64.653l-4.468 13.462-27.566 83.138c5.489 1.49 10.891 2.833 16.177 4.001z" fill="#ff6b81" fill-rule="evenodd" data-original="#e5384f" style="" class=""/></g><g><path clip-rule="evenodd" d="m320.884 255.87c7.865-23.85 9.29-77.517 1.403-99.607-1.489 4.059-3.446 8.731-5.723 13.783 2.725 25.601.456 60.885-5.518 79.013-.313.949-1.051 1.694-2.002 1.998l-27.988 8.96 1.993 6.079c.529 1.613 2.261 2.498 3.878 1.981l31.956-10.216c.949-.304 1.689-1.044 2.001-1.991z" fill="#d9eeff" fill-rule="evenodd" data-original="#d9eeff" style="" class=""/></g><g><path clip-rule="evenodd" d="m439.033 249.124 25.434-22.369-2.57-16.879-34.165 30.253c-13.695 12.031-32.997 19.069-48.62 7.797l11.301 8.994c15.623 11.244 34.925 4.206 48.62-7.796z" fill="#ff6b81" fill-rule="evenodd" data-original="#e5384f" style="" class=""/></g><g><path clip-rule="evenodd" d="m478.279 214.608c8.235-7.242 9.052-19.857 1.81-28.092-1.664-1.898-3.621-3.387-5.753-4.497 2.745 7.476.788 16.236-5.519 21.814l-13.841 12.119 9.49 10.805z" fill="#fed1a3" fill-rule="evenodd" data-original="#fed1a3" style="" class=""/></g><g><path clip-rule="evenodd" d="m330.171 157.343c6.745.526 13.17.058 19.185-1.285 32.501-7.3 52.796-40.591 44.795-80.685-107.811-54.87-108.745-29.085-106.672-.233 1.139 16.09 11.272 33.144-15.214 37.612 3.475 9.345 8.06 17.463 14.075 24.179 6.687 7.446 15.185 13.112 25.872 16.674.759.263 1.548.526 2.336.759 5.374 1.577 10.571 2.57 15.623 2.979z" fill="#fdd9b4" fill-rule="evenodd" data-original="#ffe5c1" style="" class=""/></g><g><path clip-rule="evenodd" d="m328.682 61.444 65.469 13.929 10.446 2.218c2.102.446 4.016-1.344 3.707-3.471-12.676-87.326-99.502-86.483-115.13-53.559-29.464 7.125-35.333 44.883-20.908 92.19 27.274 0 27.741-8.469 27.507-28.559-.117-10.25 9.257-26.924 28.909-22.748z" fill="#375e7d" fill-rule="evenodd" data-original="#375e7d" style="" class=""/></g><g><path clip-rule="evenodd" d="m349.356 156.058c32.501-7.3 52.796-40.591 44.795-80.685l-14.601-3.095c4.555 36.999-15.243 66.989-45.904 73.881-3.855.847-7.914 1.343-12.089 1.46-2.307.058-4.672 0-7.096-.204-5.023-.409-10.25-1.372-15.593-2.979-.788-.234-1.577-.467-2.365-.73-1.869-.642-3.679-1.314-5.431-2.073 5.84 5.169 12.819 9.199 21.142 11.973.759.263 1.548.526 2.336.759 2.57.759 5.11 1.372 7.621 1.869 2.716.526 5.373.876 8.001 1.11 1.664.117 3.3.204 4.906.204 4.963.058 9.723-.468 14.278-1.49z" fill="#fed1a3" fill-rule="evenodd" data-original="#fed1a3" style="" class=""/></g><g><path clip-rule="evenodd" d="m321.615 1.288c28.413 2.307 60.096 22.777 68.009 71.807.088.438.146.905.204 1.373l4.322.905 10.446 2.218c2.101.446 4.015-1.341 3.707-3.466-8.968-61.727-54.982-79.401-86.688-72.837z" fill="#2b4d66" fill-rule="evenodd" data-original="#2b4d66" style="" class=""/></g><g><path clip-rule="evenodd" d="m141.182 417.882-8.936-50.694-41.778 6.302c-1.718.259-2.884 1.882-2.583 3.593l15.539 88.077c31.45-4.263 39.772-35.889 37.758-47.278z" fill="#375e7d" fill-rule="evenodd" data-original="#375e7d" style="" class=""/></g><g><path clip-rule="evenodd" d="m103.425 465.16c31.45-4.263 39.772-35.889 37.757-47.278l-4.468-25.347c2.015 11.389-6.307 43.044-37.757 47.278z" fill="#2b4d66" fill-rule="evenodd" data-original="#2b4d66" style="" class=""/></g><g><path clip-rule="evenodd" d="m204.519 199.627-24.938-31.012-14.338 11.535c-3.358 2.687-5.577 6.22-6.658 10.075-1.694 5.986-.584 12.703 3.621 17.901 4.614 5.753 11.797 8.235 18.63 7.184 3.3-.526 6.541-1.898 9.344-4.147z" fill="#fdd9b4" fill-rule="evenodd" data-original="#ffe5c1" style="" class=""/></g><g><path clip-rule="evenodd" d="m190.181 211.162 14.338-11.535-8.702-10.805-4.439 3.592-9.899 7.943c-2.774 2.249-6.015 3.621-9.344 4.147-4.555.701-9.286-.175-13.316-2.57.73 2.19 1.84 4.293 3.387 6.191 4.614 5.753 11.797 8.235 18.63 7.184 3.3-.526 6.542-1.898 9.345-4.147z" fill="#fed1a3" fill-rule="evenodd" data-original="#fed1a3" style="" class=""/></g></g></g></svg>
