<svg height="61.011" viewBox="0 0 61 61.011" width="61" xmlns="http://www.w3.org/2000/svg"><path d="m156.487 156.486a5.837 5.837 0 0 1 -8.66-.449l-17.051-21.012 4.249-4.249 21.012 17.051a5.836 5.836 0 0 1 .449 8.66z" fill="#8852a8" transform="translate(-97.649 -97.637)"/><path d="m166.21 147.827-21.01-17.051-1.275 1.275 21.012 17.05a5.838 5.838 0 0 1 1.038 7.973 5.919 5.919 0 0 0 .687-.588 5.836 5.836 0 0 0 -.449-8.66z" fill="#6a348a" transform="translate(-107.823 -97.637)"/><path d="m147.827 166.21-17.051-21.01 1.275-1.275 17.05 21.012a5.838 5.838 0 0 0 7.972 1.038 5.836 5.836 0 0 1 -9.248.238z" fill="#a670c6" transform="translate(-97.649 -107.81)"/><path d="m150.808 157.1q-.162 0-.325-.009a6.3 6.3 0 0 1 -4.558-2.318l-17.05-21.012a.452.452 0 0 1 .031-.6l4.249-4.249a.452.452 0 0 1 .6-.031l21.013 17.05a6.29 6.29 0 0 1 -3.965 11.174zm-20.973-23.592 16.793 20.692a5.385 5.385 0 1 0 7.575-7.573l-20.7-16.794z" fill="#690589" transform="translate(-96.099 -96.09)"/><circle cx="19.08" cy="19.08" fill="#fcc24c" r="19.08" transform="matrix(.271 -.963 .963 .271 0 36.748)"/><path d="m86.393 42.141q.493.04.993.056a19.074 19.074 0 0 0 0-38.132c-.332.012-.663.029-.992.056a19.074 19.074 0 0 1 0 38.02z" fill="#dea42e" transform="translate(-63.306 .413)"/><path d="m23.53 4.117c-.329-.027-.66-.044-.993-.056a19.074 19.074 0 0 0 0 38.132c.332-.012.663-.029.992-.056a19.074 19.074 0 0 1 0-38.02z" fill="#fce06a" transform="translate(.444 .416)"/><path d="m21.539 41.048a19.523 19.523 0 1 1 18.05-12.048 19.528 19.528 0 0 1 -18.049 12.05zm0-38.142a18.619 18.619 0 1 0 13.172 5.448 18.619 18.619 0 0 0 -13.172-5.447z" fill="#690589" transform="translate(1.991 2.018)"/><path d="m10.47 81.661a.452.452 0 0 1 -.452-.436 20.821 20.821 0 0 1 .082-2.775.452.452 0 1 1 .9.088 19.918 19.918 0 0 0 -.08 2.654.452.452 0 0 1 -.435.469z" fill="#690589" transform="translate(-4.195 -56.831)"/><circle cx="14.076" cy="14.076" fill="#f4efed" r="14.076" transform="matrix(.927 -.375 .375 .927 5.197 15.786)"/><g fill="#690589"><path d="m38.646 53.177a14.529 14.529 0 1 1 13.422-8.969 14.529 14.529 0 0 1 -13.422 8.969zm0-28.146a13.613 13.613 0 1 0 9.634 3.984 13.613 13.613 0 0 0 -9.634-3.984z" transform="translate(-15.115 -15.106)"/><path d="m83.016 66.381a1.747 1.747 0 0 1 1.7-1.7 3.88 3.88 0 1 0 0-7.76 3.827 3.827 0 0 0 -3.326 1.906 1.709 1.709 0 0 1 -2.355.623 1.689 1.689 0 0 1 -.588-2.321 7.28 7.28 0 1 1 7.963 10.742v2.251a1.657 1.657 0 0 1 -1.7 1.7 1.7 1.7 0 0 1 -1.7-1.7zm3.395 9.076v.624a1.657 1.657 0 0 1 -1.7 1.7 1.7 1.7 0 0 1 -1.7-1.7v-.624a1.723 1.723 0 0 1 1.7-1.7 1.678 1.678 0 0 1 1.7 1.7z" transform="translate(-61.569 -42.08)"/></g></svg>