<svg height="227.195" viewBox="0 0 233 227.195" width="233" xmlns="http://www.w3.org/2000/svg"><g opacity=".5"><path d="m68.815 331.822c45.494 23.77 119.255 23.77 164.75 0s45.5-62.3 0-86.07-119.255-23.764-164.755 0-45.495 62.295.005 86.07z" fill="#f5f5f5" transform="translate(-34.688 -122.454)"/><path d="m196.2 360.129c12.261 5.844 32.135 5.844 44.369 0s12.261-15.313 0-21.156-32.13-5.844-44.369 0-12.282 15.318 0 21.156z" fill="#ebebeb" transform="translate(-104.589 -171.405)"/><path d="m314.124 326.838-43.828 25.3a2.592 2.592 0 0 1 -2.343 0l-54.785-31.643a.714.714 0 0 1 0-1.353l43.832-25.299a2.592 2.592 0 0 1 2.343 0l54.8 31.643a.714.714 0 0 1 -.016 1.353z" fill="#ebebeb" transform="translate(-116.374 -152.577)"/><path d="m399.754 76.235v11.617s-4.772 2.235-13.527 2.235-13.527-2.24-13.527-2.24v-11.363l9.134-25.848a2.329 2.329 0 0 0 1.423 2.262 5.606 5.606 0 0 0 5.27.33 4.969 4.969 0 0 0 .682-.33c1.136-.655 1.623-1.553 1.4-2.408z" fill="#f5f5f5" transform="translate(-189.807 -41.026)"/><path d="m399.754 76.235v11.617s-4.772 2.235-13.527 2.235-13.527-2.24-13.527-2.24v-11.363l9.134-25.848a2.329 2.329 0 0 0 1.423 2.262 5.606 5.606 0 0 0 5.27.33 4.969 4.969 0 0 0 .682-.33c1.136-.655 1.623-1.553 1.4-2.408z" fill="#fff" opacity=".5" transform="translate(-189.807 -41.026)"/><path d="m398.682 246.014a9.2 9.2 0 0 1 -2.916 2.511c-5.292 3.057-13.868 3.057-19.154 0a9.2 9.2 0 0 1 -2.922-2.511 5.232 5.232 0 0 1 -1.039-2.8v6.033c.1 1.926 1.412 3.836 3.961 5.308 5.286 3.052 13.863 3.052 19.154 0 2.64-1.526 3.966-3.528 3.966-5.53v-6.025a5.125 5.125 0 0 1 -1.05 3.014z" fill="#f5f5f5" transform="translate(-189.784 -129.372)"/><path d="m398.682 234.864a9.2 9.2 0 0 1 -2.916 2.511c-.314.179-.633.346-.963.5a21.671 21.671 0 0 1 -17.228 0c-.33-.157-.655-.325-.963-.5a9.2 9.2 0 0 1 -2.922-2.511 5.216 5.216 0 0 1 -1.039-2.792v6.028a5.233 5.233 0 0 0 1.039 2.8 9.2 9.2 0 0 0 2.922 2.511c5.286 3.057 13.863 3.057 19.154 0a9.2 9.2 0 0 0 2.916-2.511 5.124 5.124 0 0 0 1.05-3.014v-6.036a5.119 5.119 0 0 1 -1.05 3.014z" fill="#ebebeb" transform="translate(-189.784 -124.255)"/><path d="m398.682 223.714a9.263 9.263 0 0 1 -2.916 2.516c-.314.179-.633.341-.963.5a21.671 21.671 0 0 1 -17.228 0c-.33-.162-.655-.325-.963-.5a9.293 9.293 0 0 1 -2.922-2.516 5.216 5.216 0 0 1 -1.039-2.792v6.033a5.216 5.216 0 0 0 1.039 2.792 9.2 9.2 0 0 0 2.922 2.511c.308.179.633.346.963.5a21.671 21.671 0 0 0 17.228 0c.33-.157.649-.325.963-.5a9.2 9.2 0 0 0 2.916-2.511 5.119 5.119 0 0 0 1.05-3.014v-6.033a5.108 5.108 0 0 1 -1.05 3.014z" fill="#f5f5f5" transform="translate(-189.784 -119.138)"/><path d="m372.65 98.49v66.348a5.215 5.215 0 0 0 1.039 2.792 9.291 9.291 0 0 0 2.922 2.516c.308.179.633.341.963.5a17.853 17.853 0 0 0 4.1 1.336l-2.451-69.924z" fill="#f5f5f5" transform="translate(-189.784 -63.054)"/><path d="m408.457 101.868-2.457 69.925a17.855 17.855 0 0 0 4.1-1.337c.33-.162.649-.325.963-.5a9.263 9.263 0 0 0 2.916-2.516 5.108 5.108 0 0 0 1.05-3.014v-66.356z" fill="#f5f5f5" transform="translate(-205.089 -62.861)"/><path d="m372.65 98.49v66.348a5.215 5.215 0 0 0 1.039 2.792 9.291 9.291 0 0 0 2.922 2.516c.308.179.633.341.963.5a17.853 17.853 0 0 0 4.1 1.336l-2.451-69.924z" fill="#e0e0e0" transform="translate(-189.784 -63.054)"/><path d="m408.457 101.868-2.457 69.925a17.855 17.855 0 0 0 4.1-1.337c.33-.162.649-.325.963-.5a9.263 9.263 0 0 0 2.916-2.516 5.108 5.108 0 0 0 1.05-3.014v-66.356z" fill="#e0e0e0" transform="translate(-205.089 -62.861)"/><path d="m384.8 105.09v69.259a19.4 19.4 0 0 0 2.451.671 22.672 22.672 0 0 0 4.513.449 23.083 23.083 0 0 0 4.513-.449 19.4 19.4 0 0 0 2.451-.671v-69.259z" fill="#ebebeb" transform="translate(-195.36 -66.083)"/><path d="m396.9 44.844a4.974 4.974 0 0 1 -.682.33 5.606 5.606 0 0 1 -5.27-.33 2.3 2.3 0 0 1 -1.423-2.262l3.117-8.728a1.363 1.363 0 0 1 1.28-.854 1.369 1.369 0 0 1 1.288.855l3.084 8.571a2.26 2.26 0 0 1 -1.394 2.418z" fill="#e0e0e0" transform="translate(-197.518 -33)"/><path d="m395.761 259.67c-4.545 2.624-11.514 2.987-16.741 1.082q-.438-.152-.86-.341l-.39-.162c-.406-.184-.8-.384-1.163-.6-2.549-1.472-3.863-3.382-3.961-5.308v16.438c-.1 2.078 1.217 4.172 3.961 5.752.325.189.665.368 1.017.541.13.065.271.114.4.173.227.1.449.2.682.287s.363.13.541.189.384.141.584.2.444.124.666.184.341.1.514.135.514.114.774.162a3.134 3.134 0 0 1 .438.087c.292.054.59.092.887.135l.352.049c.33.038.66.065.99.087h.26c.363.027.725.038 1.082.043h1.429c.411 0 .822-.049 1.234-.087a18.6 18.6 0 0 0 6.91-1.98c.119-.065.244-.119.363-.189 2.641-1.526 3.966-3.528 3.966-5.53v-16.877c.031 2.002-1.296 4.004-3.935 5.53z" fill="#e0e0e0" transform="translate(-189.78 -134.484)"/><path d="m102.209 236.354c-1.564-.4-9.913-5.146-10.762-5.725s-2.527-1.775-2.527-3.836c0-1.823.189-19.019 1.683-27.325a19.284 19.284 0 0 1 8.576-12.661c5.194-3.219 10.416-5.552 14.815-3.723s8.414 5.189 10.145 9.247 2.916 12.185 3.041 15.329 0 13.922 0 14.88-.173 2.2-5.33 5.411-12.277 7.034-14.479 8.024a8.409 8.409 0 0 1 -5.162.379z" fill="#37474f" transform="translate(-36.951 -81.158)"/><path d="m109.254 186.085c-.476.271-1.851-.406-2.056-.747a7.915 7.915 0 0 1 .768-4.919c1.028-1.629 7.44-4.632 9.025-4.41a4.421 4.421 0 0 1 2.949 1.883c.195.417.411 3.16 0 3.723s-1.878-.3-2.007-.541.482-2.246-.541-2.662c-.941-.379-5.411 1.52-7.229 3.046-.79.666-.752 2.316-.714 3.133s.043 1.353-.195 1.494z" fill="#455a64" transform="translate(-45.284 -78.201)"/><path d="m108.214 213.619c.92-8.933 2.576-14.149 11.314-18.04s12.131-.579 13.37 2.4c1.623 4.177 2.743 11.861 2.862 14.9.124 3.144 0 13.922 0 14.88s-.173 2.2-5.33 5.411-12.277 7.034-14.479 8.024a8.409 8.409 0 0 1 -5.162.395 6.869 6.869 0 0 1 -1.006-.395c-2.721-3.494-2.413-19.416-1.569-27.575z" fill="#455a64" transform="translate(-45.532 -86.375)"/><path d="m124.159 188.906c-2.283-1.336-6.028-2.218-11.525.233-9.826 4.377-12.321 9.859-13.311 19.479-.179 1.764-.444 3.863-.541 6.12l-.812-.492c.114-2.435.352-4.518.541-6.4 1.082-9.691 3.988-15.048 13.376-19.23 5.2-2.316 8.614-2.013 10.876-.871a17.014 17.014 0 0 1 1.396 1.161z" fill="#263238" transform="translate(-41.104 -83.192)"/><path d="m124.789 189.4c-2.278-1.337-6.028-2.218-11.52.233-9.832 4.377-12.326 9.859-13.316 19.479-.179 1.764-.444 3.863-.541 6.12l-.812-.492c.114-2.435.352-4.518.541-6.4 1.082-9.691 3.988-15.053 13.376-19.23 5.2-2.316 8.706-1.932 10.968-.8a15.073 15.073 0 0 1 1.304 1.09z" fill="#455a64" transform="translate(-41.393 -83.44)"/><path d="m135.209 205.28-2.971-1.7a.638.638 0 0 0 -.866.238l-3.046 5.3a.638.638 0 0 0 .227.871l2.933 1.71a.638.638 0 0 0 .871-.227l3.084-5.33a.622.622 0 0 0 -.233-.86z" fill="#263238" transform="translate(-54.995 -90.822)"/><path d="m132.46 211.543 2.927-5.048a.314.314 0 0 0 -.119-.433l-2.705-1.537a.319.319 0 0 0 -.433.119l-2.895 5.027a.319.319 0 0 0 .119.433l2.657 1.553a.319.319 0 0 0 .449-.114z" fill="#455a64" transform="translate(-55.434 -91.274)"/><path d="m136.151 210.505a.59.59 0 0 0 .281-.444v-2.419c0-.157-.124-.206-.281-.119a.59.59 0 0 0 -.281.444v2.419c0 .157.124.206.281.119z" fill="#37474f" transform="translate(-58.497 -92.65)"/><path d="m133.251 212.183a.606.606 0 0 0 .281-.449v-2.413c0-.157-.13-.211-.281-.119a.579.579 0 0 0 -.281.444v2.419c.016.151.124.205.281.118z" fill="#37474f" transform="translate(-57.166 -93.418)"/><path d="m115.588 244.38s1.472 1.212 2.532 5.779 1.7 10.318.541 11.011-2.83-.758-3.247-1.255c-.854-1.023-.643-11.877.174-15.535z" fill="#263238" transform="translate(-48.858 -109.583)"/><path d="m116.2 235.609s1.472 1.212 2.532 5.779 1.7 10.319.541 11.011l17.856-10.53c1.169-.693 1.455-6.736.4-11.3a8.7 8.7 0 0 0 -2.77-5.059 1.147 1.147 0 0 0 -1.282-.081z" fill="#37474f" transform="translate(-49.47 -100.812)"/><path d="m134.4 226.9c.855.422 2.3 1.585 2.96 4.675a2.321 2.321 0 0 1 -.73 2.348c-.6.422-13.376 7.689-15.069 8.7-1.461.871-2.218-.287-2.538-1.012-.541-1.288-1.006-2.289-1.407-3.057a6.407 6.407 0 0 0 -1.4-2.245l17.028-9.361a1.234 1.234 0 0 1 1.158-.049z" fill="#263238" transform="translate(-49.475 -101.504)"/><path d="m99.205 239.65a15.691 15.691 0 0 1 .482 2.841c0 .195-.265.3-.341.3a3.447 3.447 0 0 1 -1.656-.844 16.357 16.357 0 0 1 .444-2.424z" fill="#263238" transform="translate(-40.976 -107.352)"/><path d="m99.757 237.474a1.033 1.033 0 1 0 -1.033 1.033 1.034 1.034 0 0 0 1.033-1.033z" fill="#263238" transform="translate(-40.976 -105.939)"/><path d="m125.4 180.342c1.131-.108 2.2 0 2.467 1.131a3.679 3.679 0 0 1 0 2.305 2.706 2.706 0 0 1 -1.526-.725c-.13-.244.482-2.246-.541-2.662a1.007 1.007 0 0 0 -.39-.049z" fill="#263238" transform="translate(-53.692 -80.18)"/><path d="m133.585 225.3a1.234 1.234 0 0 1 1.163-.049c.855.422 2.305 1.585 2.96 4.675a2.327 2.327 0 0 1 -.73 2.348c-.6.422-13.37 7.689-15.064 8.7-1.461.871-2.224-.287-2.543-1.012-1.769-3.7-3.171-4.421-3.171-4.421z" fill="#37474f" transform="translate(-49.47 -100.75)"/><path d="m132.381 62.011-5.817 3.355a6.171 6.171 0 0 0 .049-.768v-1.684c0-3-2.1-4.215-4.7-2.705a9 9 0 0 0 -2.8 2.705c-.427-3.788-3.382-5.173-6.975-3.1a15.554 15.554 0 0 0 -7.034 12.18v2.521a6.666 6.666 0 0 0 .6 2.922l-4.832 2.787a5.773 5.773 0 0 0 -2.608 4.518c0 1.661 1.169 2.337 2.608 1.5l31.513-18.191a5.773 5.773 0 0 0 2.608-4.518c-.004-1.679-1.162-2.355-2.612-1.522z" fill="#f0f0f0" transform="translate(-63.862 -44.864)"/><path d="m383.752 343.3-1.082-.611.768-.346s.6.162.617.189a3.107 3.107 0 0 1 -.043.417z" fill="#e0e0e0" transform="translate(-194.382 -174.961)"/><path d="m383.752 343.3-1.082-.611.768-.346s.6.162.617.189a3.107 3.107 0 0 1 -.043.417z" fill="#698096" transform="translate(-194.382 -174.961)"/><path d="m383.752 343.3-1.082-.611.768-.346s.6.162.617.189a3.107 3.107 0 0 1 -.043.417z" fill="#fff" opacity=".1" transform="translate(-194.382 -174.961)"/><path d="m267.251 338.586a3.425 3.425 0 0 0 3.1 0l34.705-20.02-51.944-30-1.212-.7-34.71 20.024a.944.944 0 0 0 0 1.786z" fill="#698096" transform="translate(-118.148 -149.964)"/><path d="m267.251 338.586a3.425 3.425 0 0 0 3.1 0l34.705-20.02-51.944-30-1.212-.7-34.71 20.024a.944.944 0 0 0 0 1.786z" fill="#fff" opacity=".8" transform="translate(-118.148 -149.964)"/><path d="m330.733 311.64 12.1 6.964 7.835-4.523 9.1 5.27v6.549c0 .8-.893 1.926-1.217 1.742a8.989 8.989 0 0 0 -1.742.617 13.086 13.086 0 0 0 -2.516 1.861l-27.813-16.051z" fill="#e0e0e0" transform="translate(-168.596 -160.872)"/><path d="m330.733 311.64 12.1 6.964 7.835-4.523 9.1 5.27v6.549c0 .8-.893 1.926-1.217 1.742a8.989 8.989 0 0 0 -1.742.617 13.086 13.086 0 0 0 -2.516 1.861l-27.813-16.051z" fill="#698096" transform="translate(-168.596 -160.872)"/><path d="m330.733 311.64 12.1 6.964 7.835-4.523 9.1 5.27v6.549c0 .8-.893 1.926-1.217 1.742a8.989 8.989 0 0 0 -1.742.617 13.086 13.086 0 0 0 -2.516 1.861l-27.813-16.051z" fill="#fff" opacity=".1" transform="translate(-168.596 -160.872)"/><path d="m314.692 360.875 2.094-1.212 31.421-18.137a2 2 0 0 1 .427-1.125 4.545 4.545 0 0 1 1.374-1.212 3.154 3.154 0 0 1 1.483-.46 1.58 1.58 0 0 1 .974.319 5.342 5.342 0 0 0 .579-2.6h1.19c0 1.623-.541 3.29-1.207 3.669l-.6.352c-.341.195-.611.206-.611 0v-.319c0-.357-.541-.341-1.212.049s-1.207.985-1.207 1.342v.325c0 .184-.465.6-1.028.92l-30.387 17.547-3.29 1.894a3.246 3.246 0 0 1 -1.542.363v-1.374a3.09 3.09 0 0 0 1.542-.341z" fill="#698096" transform="translate(-162.478 -172.258)"/><path d="m314.692 360.875 2.094-1.212 31.421-18.137a2 2 0 0 1 .427-1.125 4.545 4.545 0 0 1 1.374-1.212 3.154 3.154 0 0 1 1.483-.46 1.58 1.58 0 0 1 .974.319 5.342 5.342 0 0 0 .579-2.6h1.19c0 1.623-.541 3.29-1.207 3.669l-.6.352c-.341.195-.611.206-.611 0v-.319c0-.357-.541-.341-1.212.049s-1.207.985-1.207 1.342v.325c0 .184-.465.6-1.028.92l-30.387 17.547-3.29 1.894a3.246 3.246 0 0 1 -1.542.363v-1.374a3.09 3.09 0 0 0 1.542-.341z" fill="#fff" opacity=".6" transform="translate(-162.478 -172.258)"/><path d="m216.53 326.47v1.4a1.082 1.082 0 0 0 .617.877l46.788 27.011 3.284 1.894a3.246 3.246 0 0 0 1.542.362v-1.374a3.09 3.09 0 0 1 -1.547-.373l-2.089-1.207-47.978-27.709a1.082 1.082 0 0 1 -.617-.881z" fill="#698096" transform="translate(-118.138 -167.678)"/><path d="m216.53 326.47v1.4a1.082 1.082 0 0 0 .617.877l46.788 27.011 3.284 1.894a3.246 3.246 0 0 0 1.542.362v-1.374a3.09 3.09 0 0 1 -1.547-.373l-2.089-1.207-47.978-27.709a1.082 1.082 0 0 1 -.617-.881z" fill="#fff" opacity=".1" transform="translate(-118.138 -167.678)"/><path d="m313.11 348.6v8.03a2.033 2.033 0 0 0 1.028-.244l3.788-2.2 29-16.741v-8.375z" fill="#fff" transform="translate(-162.46 -168.871)"/><path d="m219.32 312.86v6.174a2.278 2.278 0 0 0 1.028 1.786l44.91 25.918 3.788 2.2a2.051 2.051 0 0 0 1.028.243v-7.169z" fill="#f0f0f0" transform="translate(-119.418 -161.432)"/><path d="m375.64 335.338a2.035 2.035 0 0 1 .438-1.125 4.6 4.6 0 0 1 1.374-1.207 3.079 3.079 0 0 1 1.477-.465 1.623 1.623 0 0 1 .979.319v-8.36l-4.258 2.462z" fill="#455a64" transform="translate(-191.156 -166.774)"/><path d="m377.344 335.495a4.328 4.328 0 0 0 -1.266 1.136 2.035 2.035 0 0 0 -.438 1.125v-7.986h1.7z" fill="#f5f5f5" transform="translate(-191.156 -169.192)"/><path d="m284.09 269.27 51.944 30v.7c0 .384.541.541 1.207.141s1.212-.866 1.212-1.531l.065-.66-52.934-30.56-.211-.124a.713.713 0 0 0 -.092.319v.325c.01.394-.525 1.02-1.191 1.39z" fill="#698096" transform="translate(-149.142 -140.492)"/><path d="m284.09 269.27 51.944 30v.7c0 .384.541.541 1.207.141s1.212-.866 1.212-1.531l.065-.66-52.934-30.56-.211-.124a.713.713 0 0 0 -.092.319v.325c.01.394-.525 1.02-1.191 1.39z" fill="#fff" opacity=".6" transform="translate(-149.142 -140.492)"/><path d="m270.39 320.707 33.937-19.6c.427-.222.822-.406.99-.319l-.222-.124-51.944-30-.606-.352a1.986 1.986 0 0 0 -1.623.243l-33.672 19.451a.944.944 0 0 0 0 1.786l50.072 28.916a3.425 3.425 0 0 0 3.068-.001z" fill="#698096" transform="translate(-118.176 -141.873)"/><path d="m270.39 320.707 33.937-19.6c.427-.222.822-.406.99-.319l-.222-.124-51.944-30-.606-.352a1.986 1.986 0 0 0 -1.623.243l-33.672 19.451a.944.944 0 0 0 0 1.786l50.072 28.916a3.425 3.425 0 0 0 3.068-.001z" fill="#fff" opacity=".8" transform="translate(-118.176 -141.873)"/><path d="m286.48 266.435.211.124 52.934 30.577a.427.427 0 0 1 .114-.146l.179-.1.384-.216.471-.276a.481.481 0 0 1 .6.054.273.273 0 0 1 .059.054.857.857 0 0 1 .157.222 1.514 1.514 0 0 1 .141.3 2.81 2.81 0 0 1 .1.341c.032.135.054.265.081.406a1.773 1.773 0 0 1 .027.243v-.828a3.171 3.171 0 0 0 -1.548-2.375l-50.077-28.916a3.106 3.106 0 0 0 -2.754-.2l-.633.368-.271.151a.541.541 0 0 0 -.175.217z" fill="#698096" transform="translate(-150.239 -139.681)"/><path d="m286.48 266.435.211.124 52.934 30.577a.427.427 0 0 1 .114-.146l.179-.1.384-.216.471-.276a.481.481 0 0 1 .6.054.273.273 0 0 1 .059.054.857.857 0 0 1 .157.222 1.514 1.514 0 0 1 .141.3 2.81 2.81 0 0 1 .1.341c.032.135.054.265.081.406a1.773 1.773 0 0 1 .027.243v-.828a3.171 3.171 0 0 0 -1.548-2.375l-50.077-28.916a3.106 3.106 0 0 0 -2.754-.2l-.633.368-.271.151a.541.541 0 0 0 -.175.217z" fill="#fff" opacity=".8" transform="translate(-150.239 -139.681)"/><path d="m314.715 344.659 2.1-1.217 24.138-13.927 7.705-4.448c.541-.325 1-.438 1.023-.271v.346c0 .39.541.39 1.207 0a1.623 1.623 0 0 0 .952-1.212v-.379a.541.541 0 0 1 .179-.454l.179-.1.384-.216.471-.276a.482.482 0 0 1 .6.054.272.272 0 0 1 .06.054.675.675 0 0 1 .1.141.263.263 0 0 1 .054.081 1.511 1.511 0 0 1 .141.3 2.807 2.807 0 0 1 .1.341c.032.135.054.265.081.406a1.754 1.754 0 0 1 .027.244v5.874h-1.19v-5.584l-.032-.3a.049.049 0 0 0 0-.027 3.411 3.411 0 0 1 -1.8 2.235 2.965 2.965 0 0 1 -1.45.455 1.623 1.623 0 0 1 -1.082-.395l-.108.06-.206.124-30.387 17.547-3.252 1.915a3.208 3.208 0 0 1 -1.515.352v-1.374a3.192 3.192 0 0 0 1.521-.349z" fill="#698096" transform="translate(-162.501 -165.82)"/><path d="m314.715 344.659 2.1-1.217 24.138-13.927 7.705-4.448c.541-.325 1-.438 1.023-.271v.346c0 .39.541.39 1.207 0a1.623 1.623 0 0 0 .952-1.212v-.379a.541.541 0 0 1 .179-.454l.179-.1.384-.216.471-.276a.482.482 0 0 1 .6.054.272.272 0 0 1 .06.054.675.675 0 0 1 .1.141.263.263 0 0 1 .054.081 1.511 1.511 0 0 1 .141.3 2.807 2.807 0 0 1 .1.341c.032.135.054.265.081.406a1.754 1.754 0 0 1 .027.244v5.874h-1.19v-5.584l-.032-.3a.049.049 0 0 0 0-.027 3.411 3.411 0 0 1 -1.8 2.235 2.965 2.965 0 0 1 -1.45.455 1.623 1.623 0 0 1 -1.082-.395l-.108.06-.206.124-30.387 17.547-3.252 1.915a3.208 3.208 0 0 1 -1.515.352v-1.374a3.192 3.192 0 0 0 1.521-.349z" fill="#fff" opacity=".6" transform="translate(-162.501 -165.82)"/><path d="m216.53 308.39v1.41a1.082 1.082 0 0 0 .617.882l46.787 27.018 3.284 1.9a3.246 3.246 0 0 0 1.542.363v-1.374a3.149 3.149 0 0 1 -1.547-.368l-2.089-1.207-47.977-27.714a1.082 1.082 0 0 1 -.617-.91z" fill="#698096" transform="translate(-118.138 -159.381)"/><path d="m216.53 308.39v1.41a1.082 1.082 0 0 0 .617.882l46.787 27.018 3.284 1.9a3.246 3.246 0 0 0 1.542.363v-1.374a3.149 3.149 0 0 1 -1.547-.368l-2.089-1.207-47.977-27.714a1.082 1.082 0 0 1 -.617-.91z" fill="#fff" opacity=".1" transform="translate(-118.138 -159.381)"/><path d="m254.241 268.372a1.986 1.986 0 0 1 1.623-.243l.606.352c.666-.39 1.2-1.012 1.2-1.4v-.325a.715.715 0 0 1 .092-.319.541.541 0 0 1 .189-.216l.271-.152.633-.368a3.106 3.106 0 0 1 2.754.2l50.077 28.916.054.032-35.338 20.4a2.267 2.267 0 0 1 -2.062 0l-50.4-29.386z" fill="#263238" transform="translate(-121.538 -139.686)"/><path d="m325 351.246-1.336-.768a2.164 2.164 0 0 1 1.12-.081c.353.184.216.849.216.849z" fill="#698096" transform="translate(-167.301 -178.641)"/><path d="m325 351.246-1.336-.768a2.164 2.164 0 0 1 1.12-.081c.353.184.216.849.216.849z" opacity=".7" transform="translate(-167.301 -178.641)"/><path d="m323.727 344.376a1.623 1.623 0 0 0 -2.386 0c-1.3 1.2-1.369 2.381-1.91 2.365s-.541-9.55-.541-9.55l5.146 4.767z" fill="#698096" transform="translate(-165.112 -172.598)"/><path d="m323.727 344.376a1.623 1.623 0 0 0 -2.386 0c-1.3 1.2-1.369 2.381-1.91 2.365s-.541-9.55-.541-9.55l5.146 4.767z" opacity=".7" transform="translate(-165.112 -172.598)"/><path d="m228.337 268.628-.087-.049.822-.476 35.428-20.453 51.625 33.407c.849.492 1 1.207.335 1.585l-1.207.7-33.114 19.149-.238-.173z" fill="#698096" transform="translate(-123.516 -131.506)"/><path d="m228.337 268.628-.087-.049.822-.476 35.428-20.453 51.625 33.407c.849.492 1 1.207.335 1.585l-1.207.7-33.114 19.149-.238-.173z" opacity=".5" transform="translate(-123.516 -131.506)"/><path d="m319.561 328.391 2.565-.541v10.281c-1.547.66-2.532 1.277-2.705 2.57z" fill="#455a64" transform="translate(-165.356 -168.311)"/><path d="m325.272 320.937 32.806-18.937a2.278 2.278 0 0 0 1.033-1.786v-10.124l-33.125 19.29a3.035 3.035 0 0 1 -1.569 1.883c-1.174.449-.276.909-.276.909v8.657c1.012-.146 1.131.108 1.131.108z" fill="#f0f0f0" transform="translate(-167.372 -150.983)"/><path d="m275.653 300.3c.341-.195.611-.206.611 0v.319c0 .357.541.341 1.212-.049s1.212-.985 1.212-1.342v-.328c0-.184.46-.6 1.023-.92l-53.373-30.58-.828.476a.774.774 0 0 0 -.206.444v.325c0 .357-.541.958-1.207 1.342s-1.212.406-1.212.049v-.325c0-.184-.271-.168-.606.027z" fill="#698096" transform="translate(-120.777 -140.57)"/><path d="m275.653 300.3c.341-.195.611-.206.611 0v.319c0 .357.541.341 1.212-.049s1.212-.985 1.212-1.342v-.328c0-.184.46-.6 1.023-.92l-53.373-30.58-.828.476a.774.774 0 0 0 -.206.444v.325c0 .357-.541.958-1.207 1.342s-1.212.406-1.212.049v-.325c0-.184-.271-.168-.606.027z" opacity=".6" transform="translate(-120.777 -140.57)"/><path d="m228.337 250.538-.087-.049.822-.476 35.428-20.453 51.625 29.814c.849.492 1 1.2.335 1.585l-1.207.693-33.122 19.948z" fill="#698096" transform="translate(-123.516 -123.205)"/><path d="m228.337 250.538-.087-.049.822-.476 35.428-20.453 51.625 29.814c.849.492 1 1.2.335 1.585l-1.207.693-33.122 19.948z" opacity=".5" transform="translate(-123.516 -123.205)"/><path d="m221.967 271.06 53.362 30.809-1.867 1.461-53.162-30.69a2.035 2.035 0 0 1 .709-.99z" fill="#698096" transform="translate(-119.868 -142.25)"/><path d="m221.967 271.06 53.362 30.809-1.867 1.461-53.162-30.69a2.035 2.035 0 0 1 .709-.99z" opacity=".5" transform="translate(-119.868 -142.25)"/><path d="m220.065 287.714a.58.58 0 0 1 -.092-.07.146.146 0 0 1 -.06-.054.568.568 0 0 1 -.108-.146.2.2 0 0 1 -.054-.076 1.252 1.252 0 0 1 -.135-.3 2.353 2.353 0 0 1 -.108-.346c-.032-.13-.054-.26-.076-.4a1.262 1.262 0 0 1 -.032-.243v-9.474a7.191 7.191 0 0 1 .5-2.705l53.162 30.69.222 13.809-53.156-30.7z" fill="#698096" transform="translate(-119.455 -143.553)"/><path d="m220.065 287.714a.58.58 0 0 1 -.092-.07.146.146 0 0 1 -.06-.054.568.568 0 0 1 -.108-.146.2.2 0 0 1 -.054-.076 1.252 1.252 0 0 1 -.135-.3 2.353 2.353 0 0 1 -.108-.346c-.032-.13-.054-.26-.076-.4a1.262 1.262 0 0 1 -.032-.243v-9.474a7.191 7.191 0 0 1 .5-2.705l53.162 30.69.222 13.809-53.156-30.7z" opacity=".7" transform="translate(-119.455 -143.553)"/><path d="m273.04 304.612s-41.869-19.593-45.678-21.389c-2.516-1.185-3.75 1.3-3.154 3.88a12.494 12.494 0 0 0 2.743 4.572l-6.845-3.955a.586.586 0 0 1 -.092-.07.146.146 0 0 1 -.06-.054.568.568 0 0 1 -.108-.146.2.2 0 0 1 -.054-.076 1.25 1.25 0 0 1 -.135-.3 2.355 2.355 0 0 1 -.108-.346c-.032-.13-.054-.26-.076-.4a1.256 1.256 0 0 1 -.032-.243v-9.48a7.192 7.192 0 0 1 .5-2.705z" fill="#263238" opacity=".79" transform="translate(-119.473 -143.553)"/><path d="m317.59 313.051h1.19a5.411 5.411 0 0 1 .573-2.6 1.623 1.623 0 0 0 .979.319 3.08 3.08 0 0 0 1.477-.465 4.525 4.525 0 0 0 1.374-1.207.771.771 0 0 0 .076-.108 1.953 1.953 0 0 0 .352-1.017l31.421-18.137 1.082-.622 1.363-.785a.714.714 0 0 0 .417-.611v-1.388a.731.731 0 0 1 -.417.628l-3.609 2.078-30.382 17.547c-.568.325-1.028.736-1.028.92v.325a.98.98 0 0 1 -.281.541 3.388 3.388 0 0 1 -.931.779c-.671.39-1.212.406-1.212.049v-.319c0-.189-.265-.173-.606 0l-.6.352c-.697.432-1.238 2.082-1.238 3.721z" fill="#698096" transform="translate(-164.516 -149.303)"/><path d="m318.822 324.4v9.182l.027.3a.049.049 0 0 0 0 .027 3.411 3.411 0 0 1 1.8-2.235 2.971 2.971 0 0 1 1.455-.455 1.624 1.624 0 0 1 1.082.395l.1-.059.211-.124 30.382-17.547 1.748-1.006.5-.292 1.472-.85a.693.693 0 0 0 .325-.568v1.391a.682.682 0 0 1 -.3.541c-.173.1-.357.2-.541.314l-.341.2-.584.335c-.13.081-.249.151-.363.211s-.179.108-.254.146l-.449.265-24.145 13.929-7.705 4.448c-.541.325-.99.438-1.023.271a.313.313 0 0 1 0-.06v-.308c0-.39-.541-.39-1.207 0a1.623 1.623 0 0 0 -.952 1.212v.379a.541.541 0 0 1 -.179.455l-.179.1-.379.216-.471.276a.482.482 0 0 1 -.6-.054.146.146 0 0 1 -.06-.054.542.542 0 0 1 -.108-.141.386.386 0 0 1 -.054-.076 1.251 1.251 0 0 1 -.135-.3 2.1 2.1 0 0 1 -.108-.341c-.032-.135-.054-.265-.076-.406a1.2 1.2 0 0 1 -.032-.243v-9.474z" fill="#698096" transform="translate(-164.557 -160.657)"/><g opacity=".6" transform="translate(153.074 137.127)"><path d="m317.59 313.051h1.19a5.411 5.411 0 0 1 .573-2.6 1.623 1.623 0 0 0 .979.319 3.08 3.08 0 0 0 1.477-.465 4.525 4.525 0 0 0 1.374-1.207.771.771 0 0 0 .076-.108 1.953 1.953 0 0 0 .352-1.017l31.421-18.137 1.082-.622 1.363-.785a.714.714 0 0 0 .417-.611v-1.388a.731.731 0 0 1 -.417.628l-3.609 2.078-30.382 17.547c-.568.325-1.028.736-1.028.92v.325a.98.98 0 0 1 -.281.541 3.388 3.388 0 0 1 -.931.779c-.671.39-1.212.406-1.212.049v-.319c0-.189-.265-.173-.606 0l-.6.352c-.697.432-1.238 2.082-1.238 3.721z" transform="translate(-317.59 -286.43)"/><path d="m318.822 324.4v9.182l.027.3a.049.049 0 0 0 0 .027 3.411 3.411 0 0 1 1.8-2.235 2.971 2.971 0 0 1 1.455-.455 1.624 1.624 0 0 1 1.082.395l.1-.059.211-.124 30.382-17.547 1.748-1.006.5-.292 1.472-.85a.693.693 0 0 0 .325-.568v1.391a.682.682 0 0 1 -.3.541c-.173.1-.357.2-.541.314l-.341.2-.584.335c-.13.081-.249.151-.363.211s-.179.108-.254.146l-.449.265-24.145 13.929-7.705 4.448c-.541.325-.99.438-1.023.271a.313.313 0 0 1 0-.06v-.308c0-.39-.541-.39-1.207 0a1.623 1.623 0 0 0 -.952 1.212v.379a.541.541 0 0 1 -.179.455l-.179.1-.379.216-.471.276a.482.482 0 0 1 -.6-.054.146.146 0 0 1 -.06-.054.542.542 0 0 1 -.108-.141.386.386 0 0 1 -.054-.076 1.251 1.251 0 0 1 -.135-.3 2.1 2.1 0 0 1 -.108-.341c-.032-.135-.054-.265-.076-.406a1.2 1.2 0 0 1 -.032-.243v-9.474z" transform="translate(-317.631 -297.784)"/></g><path d="m220.25 254.477 50.527 29.175 38.19-22.049a.628.628 0 0 0 0-1.19l-50-28.872-33.547 19.382-.828.482a.769.769 0 0 0 -.2.438v.325c0 .357-.541.958-1.207 1.342a.5.5 0 0 1 -.108.054l-1.115-.644-.541.3-.076.038-.39.227a2.046 2.046 0 0 0 -.705.992z" fill="#263238" transform="translate(-119.845 -124.113)"/><path d="m377.71 286.532-1.52-.812 1.385-.33a1.033 1.033 0 0 1 .135 1.142z" fill="#e0e0e0" transform="translate(-191.408 -148.826)"/><path d="m377.71 286.532-1.52-.812 1.385-.33a1.033 1.033 0 0 1 .135 1.142z" fill="#e0e0e0" opacity=".5" transform="translate(-191.408 -148.826)"/><path d="m261.526 279.572a3.414 3.414 0 0 0 3.09 0l34.705-20.02-51.944-32.838-1.217-.7-34.7 22.855a.944.944 0 0 0 0 1.786z" fill="#698096" transform="translate(-115.519 -121.575)"/><path d="m325.021 249.77 26.221 17.769-14.117-10.822 7.835-4.523 9.112 5.276v9.409c0 .8-.893 1.932-1.217 1.748a8.979 8.979 0 0 0 -1.742.617 13.077 13.077 0 0 0 -2.513 1.856l-27.81-18.9z" fill="#698096" transform="translate(-165.984 -132.479)"/><path d="m325.021 249.77 26.221 17.769-14.117-10.822 7.835-4.523 9.112 5.276v9.409c0 .8-.893 1.932-1.217 1.748a8.979 8.979 0 0 0 -1.742.617 13.077 13.077 0 0 0 -2.513 1.856l-27.81-18.9z" opacity=".2" transform="translate(-165.984 -132.479)"/><path d="m307.38 286.719v10.865a2.116 2.116 0 0 0 1.033-.243l3.788-2.2 29-16.741v-11.22z" fill="#fff" transform="translate(-159.83 -140.469)"/><path d="m213.59 251v9.02a2.289 2.289 0 0 0 1.028 1.786l44.91 25.918 3.788 2.2a2.111 2.111 0 0 0 1.028.244v-10.025z" fill="#f0f0f0" transform="translate(-116.789 -133.044)"/><path d="m369.92 276.314a2.023 2.023 0 0 1 .433-1.125 4.453 4.453 0 0 1 1.374-1.207 3.1 3.1 0 0 1 1.483-.465 1.542 1.542 0 0 1 .974.227v-11.114l-4.258 2.462z" fill="#455a64" transform="translate(-188.531 -138.381)"/><path d="m371.619 276.475a4.519 4.519 0 0 0 -1.266 1.142 2.024 2.024 0 0 0 -.433 1.125v-10.822h1.694z" fill="#f5f5f5" transform="translate(-188.531 -140.809)"/><path d="m278.37 207.43 51.944 30v.693c0 .39.541.541 1.207.146s1.218-.871 1.218-1.537l.065-.66-52.934-30.56-.216-.124a.709.709 0 0 0 -.087.325v.319c.004.386-.531 1.008-1.197 1.398z" fill="#698096" transform="translate(-146.517 -112.113)"/><path d="m278.37 207.43 51.944 30v.693c0 .39.541.541 1.207.146s1.218-.871 1.218-1.537l.065-.66-52.934-30.56-.216-.124a.709.709 0 0 0 -.087.325v.319c.004.386-.531 1.008-1.197 1.398z" opacity=".2" transform="translate(-146.517 -112.113)"/><path d="m264.616 258.838 33.958-19.593c.433-.227.828-.411.99-.325l-.222-.119-51.944-30-.611-.346a1.937 1.937 0 0 0 -1.623.243l-33.7 19.441a.944.944 0 0 0 0 1.786l50.077 28.916a3.414 3.414 0 0 0 3.075-.003z" fill="#698096" transform="translate(-115.519 -113.481)"/><path d="m280.75 204.554.216.124 52.945 30.56a.427.427 0 0 1 .114-.146l.179-.1.379-.222.471-.276a.487.487 0 0 1 .6.054.279.279 0 0 1 .059.054 1.175 1.175 0 0 1 .162.222 1.5 1.5 0 0 1 .135.3 3.229 3.229 0 0 1 .108.346c.027.13.054.26.076.4a1.84 1.84 0 0 1 .033.249v-.828a3.16 3.16 0 0 0 -1.548-2.381l-50.079-28.91a3.1 3.1 0 0 0 -2.754-.195l-.633.368-.265.157a.541.541 0 0 0 -.198.224z" fill="#698096" transform="translate(-147.609 -111.276)"/><path d="m308.932 304.28 2.094-1.212 31.421-18.143a2.039 2.039 0 0 1 .433-1.125 4.535 4.535 0 0 1 1.374-1.207 3.133 3.133 0 0 1 1.477-.46 1.564 1.564 0 0 1 .979.319 5.449 5.449 0 0 0 .574-2.6h1.19c0 1.623-.541 3.29-1.207 3.674l-.6.352c-.341.195-.606.206-.606 0v-.319c0-.357-.541-.341-1.217.043s-1.207.99-1.207 1.347v.319c0 .184-.46.6-1.028.925l-30.387 17.547-3.29 1.9a3.246 3.246 0 0 1 -1.542.363v-1.374a3.132 3.132 0 0 0 1.542-.349z" fill="#698096" transform="translate(-159.835 -146.283)"/><path d="m308.932 304.28 2.094-1.212 31.421-18.143a2.039 2.039 0 0 1 .433-1.125 4.535 4.535 0 0 1 1.374-1.207 3.133 3.133 0 0 1 1.477-.46 1.564 1.564 0 0 1 .979.319 5.449 5.449 0 0 0 .574-2.6h1.19c0 1.623-.541 3.29-1.207 3.674l-.6.352c-.341.195-.606.206-.606 0v-.319c0-.357-.541-.341-1.217.043s-1.207.99-1.207 1.347v.319c0 .184-.46.6-1.028.925l-30.387 17.547-3.29 1.9a3.246 3.246 0 0 1 -1.542.363v-1.374a3.132 3.132 0 0 0 1.542-.349z" opacity=".4" transform="translate(-159.835 -146.283)"/><path d="m308.926 282.79 2.094-1.212 24.138-13.927 7.738-4.458c.541-.319 1-.433 1.028-.265v.352c0 .384.541.384 1.207 0a1.624 1.624 0 0 0 .952-1.217v-.379a.541.541 0 0 1 .179-.455l.179-.1.379-.222.471-.276a.487.487 0 0 1 .6.054.279.279 0 0 1 .059.054.731.731 0 0 1 .108.146.462.462 0 0 1 .054.076 1.507 1.507 0 0 1 .135.3 3.252 3.252 0 0 1 .108.346c.027.13.054.26.076.4a1.835 1.835 0 0 1 .032.249v8.711h-1.19v-8.381l-.027-.3a3.4 3.4 0 0 1 -1.8 2.235 2.927 2.927 0 0 1 -1.45.454 1.623 1.623 0 0 1 -1.082-.395l-.1.059-.211.124-30.393 17.551-3.29 1.9a3.214 3.214 0 0 1 -1.52.352v-1.374a3.192 3.192 0 0 0 1.526-.402z" fill="#698096" transform="translate(-159.839 -137.428)"/><path d="m308.926 282.79 2.094-1.212 24.138-13.927 7.738-4.458c.541-.319 1-.433 1.028-.265v.352c0 .384.541.384 1.207 0a1.624 1.624 0 0 0 .952-1.217v-.379a.541.541 0 0 1 .179-.455l.179-.1.379-.222.471-.276a.487.487 0 0 1 .6.054.279.279 0 0 1 .059.054.731.731 0 0 1 .108.146.462.462 0 0 1 .054.076 1.507 1.507 0 0 1 .135.3 3.252 3.252 0 0 1 .108.346c.027.13.054.26.076.4a1.835 1.835 0 0 1 .032.249v8.711h-1.19v-8.381l-.027-.3a3.4 3.4 0 0 1 -1.8 2.235 2.927 2.927 0 0 1 -1.45.454 1.623 1.623 0 0 1 -1.082-.395l-.1.059-.211.124-30.393 17.551-3.29 1.9a3.214 3.214 0 0 1 -1.52.352v-1.374a3.192 3.192 0 0 0 1.526-.402z" opacity=".4" transform="translate(-159.839 -137.428)"/><path d="m210.81 246.52v1.4a1.082 1.082 0 0 0 .611.882l46.793 27.011 3.284 1.9a3.246 3.246 0 0 0 1.537.363v-1.376a3.128 3.128 0 0 1 -1.542-.368l-2.089-1.207-47.951-27.693a1.05 1.05 0 0 1 -.643-.912z" fill="#698096" transform="translate(-115.513 -130.988)"/><path d="m210.81 246.52v1.4a1.082 1.082 0 0 0 .611.882l46.793 27.011 3.284 1.9a3.246 3.246 0 0 0 1.537.363v-1.376a3.128 3.128 0 0 1 -1.542-.368l-2.089-1.207-47.951-27.693a1.05 1.05 0 0 1 -.643-.912z" opacity=".2" transform="translate(-115.513 -130.988)"/><path d="m210.81 269.86v1.4a1.082 1.082 0 0 0 .611.882l46.815 27.016 3.284 1.9a3.247 3.247 0 0 0 1.537.362v-1.374a3.128 3.128 0 0 1 -1.542-.368l-2.089-1.207-47.973-27.7a1.05 1.05 0 0 1 -.644-.909z" fill="#698096" transform="translate(-115.513 -141.699)"/><path d="m210.81 269.86v1.4a1.082 1.082 0 0 0 .611.882l46.815 27.016 3.284 1.9a3.247 3.247 0 0 0 1.537.362v-1.374a3.128 3.128 0 0 1 -1.542-.368l-2.089-1.207-47.973-27.7a1.05 1.05 0 0 1 -.644-.909z" opacity=".2" transform="translate(-115.513 -141.699)"/><path d="m246.537 179.13-4.967 8.852 7.24 3.853 5.27-7.846z" fill="#ffa8a7" transform="translate(-129.629 -100.062)"/><path d="m267.864 142.094c-2.76-.471-6.937-.6-9.653 4.064s-8.571 16.157-8.571 16.157 3.42 4.426 8.371 5.232l8.089-12.835z" fill="#698096" transform="translate(-133.332 -82.965)"/><path d="m121.832 167.541h6.179v10.578h-6.179z" fill="#ffa8a7"/><path d="m232.708 328.385-6.179.211-.308-11.2 6.174-.211z" fill="#ffa8a7" transform="translate(-122.585 -163.419)"/><path d="m251.562 355.792v-.882c-.59.254-1.964 5.5-4.415 7.732-1.948 1.78-4.6 3.831-5.281 5.811-.7 2.061 3.7 3.2 5.519 2.879 2.116-.373 5.784-1.861 6.7-3.246s1.353-3.414 2.1-4.426 2.473-2.164 2.879-3.317a7.543 7.543 0 0 0 -.352-3.246c-.287-1.082-.6-2.294-.974-2.191v.671a4.883 4.883 0 0 1 -3.09 1.044c-.9.042-3.091-.136-3.086-.829z" fill="#263238" transform="translate(-129.73 -180.724)"/><path d="m214.211 334.458c-.319 0-.579.465-1.288 1.228a13.443 13.443 0 0 1 -3.636 2.613c-2.316 1.163-6.8 2.944-8.847 3.869-1.272.574-1.212 2.11.1 2.987s4.486 1.5 8.3.649c2.072-.465 4.778-2.381 6.493-2.278s4.913.081 6.174-.79.758-2.705.4-4.329c-.39-1.742-.947-4.41-1.526-4.291v.541c-.741 1.125-4.523 1.585-6.158.758z" fill="#263238" transform="translate(-110.332 -171.186)"/><path d="m270.488 217.9c1.353 9.55-.471 11.363-9.545 20.529-4.87 4.918-12.743 12.131-12.743 12.131s.114 3.052.173 9.891c.06 6.022-2.457 25.62-2.457 25.62s-4.1 1.726-6.915-.065c0 0-1.272-14.582-1.959-22.184-.931-10.281-1.418-15.464-.893-17.677.465-1.953 9.7-13.619 11.834-16.887l-19.631 11.406a67 67 0 0 1 .574 8.717c-.216 8.176-1.223 24.506-1.223 24.506s-4.491 2.007-6.72.276c0 0-5.654-35.712-5.654-38.644 0-4.453 19.338-17.748 23-20.843 2.089-1.764 4.415-3.674 4.415-3.674z" fill="#455a64" transform="translate(-117.587 -114.687)"/><path d="m259.031 239.321a14.192 14.192 0 0 1 -4.486-6.4 32.2 32.2 0 0 0 .7 4.87c.541 2.121-15.843 12.932-15.843 12.932z" fill="#37474f" transform="translate(-128.633 -124.747)"/><circle cx="8.771" cy="8.771" fill="#263238" r="8.771" transform="matrix(.228 -.974 .974 .228 122.227 46.587)"/><path d="m291.413 147.593s2.164 1.775 2.164 7.38v12.1l-.308 20.356c-4.329 4.713-23.808 2.927-28.629-7.353 0 0 .038-21.486.038-26.3s2.705-11.065 10.064-11.5l9.534 2.218z" fill="#263238" transform="translate(-140.216 -83.151)"/><path d="m304.909 118.54a76.354 76.354 0 0 1 -1.991 7.775 3 3 0 0 1 -1.748 1.407l.1-4.7z" fill="#263238" transform="translate(-156.98 -72.256)"/><path d="m304 100.843a3.284 3.284 0 0 1 2.705.958c1.169 1.2.514 4.94-.941 8.609l-2.678.308z" fill="#263238" transform="translate(-157.861 -64.125)"/><path d="m285.458 107.217c.541.319 1.3-.709 1.964-1.4a2.336 2.336 0 0 1 3.9.633c1.077 2.256-.952 5.373-2.651 5.909-2.933.92-3.376-.963-3.376-.963l-.222 10.578c-2.527 2.824-11.168 2.164-9.539-.281v-3.247a18.425 18.425 0 0 1 -3.95.206c-2.164-.335-3.517-2.034-4.172-4.372-1.05-3.75-1.45-6.774-.541-14.149.979-8.084 10.378-8.165 15.453-4.973s3.134 12.059 3.134 12.059z" fill="#ffa8a7" transform="translate(-141.008 -60.624)"/><g fill="#263238"><path d="m284.917 117.454h-.454a2.992 2.992 0 1 1 0-5.984h.46a2.992 2.992 0 1 1 0 5.984zm-.454-5.481a2.489 2.489 0 1 0 0 4.978h.46a2.489 2.489 0 1 0 0-4.978z" transform="translate(-147.94 -69.011)"/><path d="m268.072 117.454h-.46a2.992 2.992 0 0 1 0-5.984h.46a2.992 2.992 0 1 1 0 5.984zm-.46-5.481a2.489 2.489 0 0 0 0 4.978h.46a2.489 2.489 0 0 0 0-4.978z" transform="translate(-140.207 -69.011)"/><path d="m278.68 114.807a1.98 1.98 0 0 0 -1.58-.807 1.623 1.623 0 0 0 -1.38.541l-.4-.3a2.067 2.067 0 0 1 1.807-.72 2.457 2.457 0 0 1 1.986 1.044z" transform="translate(-145.117 -69.946)"/><path d="m139.693 44.839h6.363v.503h-6.363z"/><path d="m284.684 105.21c.271 0 1.293-1.7 1.964-2.305.925-.844-.271-8.473-.271-8.473a3.6 3.6 0 0 0 -.893-3.858c-1.266-1.4-3.387-1.553-7.007-2.121-1.9-.3-4.778-.833-6.677-1.185-2.262-.422-4.139-.866-5.736.541a4.015 4.015 0 0 0 -1.109 4.5 4.107 4.107 0 0 0 2.273 2.083s.985.877 4.421 1.293a50.711 50.711 0 0 0 9.518-.179c1-.135 1.207.828 1.748 3.468.47 2.297.876 6.22 1.769 6.236z" transform="translate(-140.234 -57.714)"/><path d="m304.6 99.652 3.246-1.748a1.791 1.791 0 0 0 -2.456-.812 1.948 1.948 0 0 0 -.79 2.56z" transform="translate(-158.461 -62.317)"/></g><path d="m283.315 136.376a36.851 36.851 0 0 0 6.493-1.861 5.552 5.552 0 0 0 2.327-2.305 7.575 7.575 0 0 1 -1.32 2.705c-1.234 1.575-7.5 2.732-7.5 2.732z" fill="#f28f8f" transform="translate(-148.784 -78.529)"/><path d="m285.46 116.036a.969.969 0 1 0 .963-1.006.985.985 0 0 0 -.963 1.006z" fill="#263238" transform="translate(-149.771 -70.645)"/><path d="m288.32 108.975 2.067 1.136a1.245 1.245 0 0 0 -.482-1.623 1.152 1.152 0 0 0 -1.585.487z" fill="#263238" transform="translate(-151.083 -67.577)"/><path d="m282.262 129.2-2.2.828a1.152 1.152 0 0 0 1.493.73 1.234 1.234 0 0 0 .707-1.558z" fill="#f28f8f" transform="translate(-147.293 -77.148)"/><path d="m268.909 109.431 1.883-1.445a1.136 1.136 0 0 0 -1.623-.254 1.245 1.245 0 0 0 -.26 1.699z" fill="#263238" transform="translate(-142.072 -67.189)"/><path d="m270.63 115.526a.969.969 0 1 0 .963-1.006.985.985 0 0 0 -.963 1.006z" fill="#263238" transform="translate(-142.965 -70.411)"/><path d="m276.416 114.95-.108 5.849-3.458-.763z" fill="#f28f8f" transform="translate(-143.984 -70.608)"/><path d="m229.719 198.8v.541a1.575 1.575 0 0 1 -.79 1.363l-15.029 8.657a1.575 1.575 0 0 1 -1.575 0l-27.565-15.913a1.575 1.575 0 0 1 -.79-1.364v-.384l29.143 16.822z" fill="#698096" transform="translate(-103.195 -105.83)"/><path d="m229.719 198.8v.541a1.575 1.575 0 0 1 -.79 1.363l-15.029 8.657a1.575 1.575 0 0 1 -1.575 0l-27.565-15.913a1.575 1.575 0 0 1 -.79-1.364v-.384l29.143 16.822z" opacity=".6" transform="translate(-103.195 -105.83)"/><path d="m184 183.6 16.346-9.437a.941.941 0 0 1 .941 0l28.353 16.373a.211.211 0 0 1 0 .363l-16.5 9.523z" fill="#698096" transform="translate(-103.209 -97.724)"/><path d="m184 183.6 16.346-9.437a.941.941 0 0 1 .941 0l28.353 16.373a.211.211 0 0 1 0 .363l-16.5 9.523z" opacity=".5" transform="translate(-103.209 -97.724)"/><path d="m216.206 203.306 8.814-5.086-25.777-14.88-8.863 5.06z" fill="#263238" transform="translate(-106.137 -101.994)"/><path d="m235.666 190.259-.162.092-4.323 2.494-7.683-4.437-.157-.092 4.48-2.586z" fill="#263238" transform="translate(-121.263 -103.09)"/><path d="m235.637 190.507-4.324 2.493-7.683-4.437 4.323-2.494z" fill="#263238" transform="translate(-121.396 -103.246)"/><path d="m213.113 208.532v1.05a1.569 1.569 0 0 1 -.785-.211l-27.568-15.913a1.574 1.574 0 0 1 -.79-1.364v-.384z" opacity=".7" transform="translate(-103.196 -105.835)"/><path d="m209.006 192a1.85 1.85 0 0 1 -1.623-.124l-27.444-15.843a1.861 1.861 0 0 1 -.909-1.3l-3-17.921a1.9 1.9 0 0 1 -.027-.3 1.877 1.877 0 0 1 .541-1.331l28.521 16.471a1.391 1.391 0 0 1 .7.969z" fill="#698096" transform="translate(-99.538 -89.066)"/><path d="m209.006 192a1.85 1.85 0 0 1 -1.623-.124l-27.444-15.843a1.861 1.861 0 0 1 -.909-1.3l-3-17.921a1.9 1.9 0 0 1 -.027-.3 1.877 1.877 0 0 1 .541-1.331l28.521 16.471a1.391 1.391 0 0 1 .7.969z" opacity=".5" transform="translate(-99.538 -89.066)"/><path d="m209.942 191.52-.184.108a1.89 1.89 0 0 1 -.26.124l-3.247-19.387a1.391 1.391 0 0 0 -.671-.969l-28.52-16.469a1.834 1.834 0 0 1 .379-.287l28.58 16.5a1.39 1.39 0 0 1 .671.969z" fill="#e0e0e0" transform="translate(-100.024 -88.823)"/><path d="m204.345 189.3a6.056 6.056 0 0 0 -2.765-3.555c-1.326-.763-2.24-.417-2.034.785a6.087 6.087 0 0 0 2.765 3.56c1.325.77 2.24.41 2.034-.79z" fill="#698096" transform="translate(-110.33 -102.912)"/><path d="m209.374 206.1a9.671 9.671 0 0 0 -.449-2.283c-.422-1.326-1.677-6.433-4.545-7.2a2.034 2.034 0 0 0 -1.05-.032 2.14 2.14 0 0 0 -1.315 1.786 12.481 12.481 0 0 0 0 3.3 6.462 6.462 0 0 0 -1.531-1.282 3.133 3.133 0 0 0 -1.759-.628.541.541 0 0 0 -.46.216.533.533 0 0 0 .162.6c.287.346.638.638.925.985a10.1 10.1 0 0 1 .622.941c.363.584.768 1.136 1.174 1.694a11.849 11.849 0 0 0 2.889 2.987 10.892 10.892 0 0 0 4.329 1.726 13.19 13.19 0 0 0 5.449-.233z" fill="#ffa8a7" transform="translate(-109.737 -108.047)"/><path d="m284.451 152.258c-1.932-1-4.756 2.949-3.858 7.072s5.324 18.619 5.324 18.619-19.993 1.786-21.692 2a9.052 9.052 0 0 1 -3.609-.822c-1.493-.5-3-.844-4.475-1.385a1.9 1.9 0 0 0 -.817-.173.644.644 0 0 0 -.6.5.855.855 0 0 0 .124.482 6.316 6.316 0 0 0 2.061 2.4 9.2 9.2 0 0 1 1.212.855c.233.233.747.877.541 1.228l-7.943 4.572s1.829 1.591 8.452-.265a43.359 43.359 0 0 0 6.964-2.473s23.559.979 27.817-.308c1.5-.46 2.045-1.526 1.028-6.374-1.163-5.616-4.5-15.859-5.259-18.565-1.661-5.859-2.056-5.721-5.27-7.363z" fill="#ffa8a7" transform="translate(-133.828 -87.658)"/><path d="m308.057 150.84s3.192.9 4.567 2.705 6.677 19.29 6.677 19.29a12.445 12.445 0 0 1 -10.1 2.705s-4.264-12.093-4.718-15.324c-.803-5.004 1.642-8.943 3.574-9.376z" fill="#698096" transform="translate(-158.43 -87.079)"/><path d="m279.34 171.026c-.26-1.353.584-2.083 1.888-1.623a4.772 4.772 0 0 1 2.814 3.247c.258 1.369-4.447-.282-4.702-1.624z" fill="#698096" transform="translate(-146.941 -95.535)"/><path d="m284.943 176.584-3.836-2.44c.195 1.039-1.207.893-2.467.455s-2.8-1.326-3-2.365l-3.344-.043c-.308 0-.314.4 0 .73.828.925 2.754 2.565 6.8 3.977s5.6.974 6.185.541c.186-.163.013-.634-.338-.855z" fill="#698096" transform="translate(-143.621 -96.877)"/></g></svg>