<svg height="303.976" viewBox="0 0 214.802 303.976" width="214.802" xmlns="http://www.w3.org/2000/svg" xmlns:xlink="http://www.w3.org/1999/xlink"><clipPath id="a"><path d="m0 0h214.802v303.976h-214.802z"/></clipPath><g clip-path="url(#a)"><path d="m399.833 211.726h-1.67v-45.748a26.478 26.478 0 0 0 -26.478-26.478h-96.923a26.478 26.478 0 0 0 -26.478 26.478v250.977a26.478 26.478 0 0 0 26.478 26.478h96.923a26.478 26.478 0 0 0 26.478-26.478v-172.665h1.67z" fill="#3f3d56" transform="translate(-216.657 -139.5)"/><path d="m378.474 151.783h-12.651a9.394 9.394 0 0 1 -8.7 12.942h-55.523a9.394 9.394 0 0 1 -8.7-12.942h-11.816a19.773 19.773 0 0 0 -19.773 19.773v250.609a19.773 19.773 0 0 0 19.773 19.773h97.39a19.773 19.773 0 0 0 19.773-19.773v-250.609a19.773 19.773 0 0 0 -19.773-19.773z" fill="#fff" transform="translate(-222.378 -144.894)"/><path d="m406.133 680.622h-213.68a.561.561 0 0 1 0-1.122h213.68a.561.561 0 0 1 0 1.122z" fill="#cbcbcb" transform="translate(-191.892 -376.646)"/><circle cx="47.361" cy="47.361" fill="#00264d" r="47.361" transform="translate(60.04 99.15)"/><path d="m362.436 404.742a4.912 4.912 0 0 1 -2.955-.982l-.053-.04-11.13-8.514a4.946 4.946 0 1 1 6.019-7.851l7.209 5.529 17.036-22.225a4.944 4.944 0 0 1 6.932-.916l-.106.147.109-.147a4.95 4.95 0 0 1 .915 6.933l-20.038 26.13a4.947 4.947 0 0 1 -3.934 1.929z" fill="#fff" transform="translate(-259.729 -240.165)"/></g></svg>