<svg height="45.506" viewBox="0 0 45.506 45.506" width="45.506" xmlns="http://www.w3.org/2000/svg"><path d="m419.147 369.658-1.553-4.292h-5.784l-1.553 4.292a1.333 1.333 0 0 0 .042 1.01l3.192 6.954a1.333 1.333 0 0 0 2.423 0l3.192-6.954a1.333 1.333 0 0 0 .041-1.01z" fill="#f4f1f1" transform="translate(-373.72 -332.893)"/><path d="m465.535 369.658-1.553-4.292h-2.892v13.034a1.333 1.333 0 0 0 1.212-.777l3.192-6.954a1.333 1.333 0 0 0 .041-1.011z" fill="#e7dfdd" transform="translate(-420.109 -332.893)"/><path d="m32.532 0h-31.199a1.333 1.333 0 0 0 -1.333 1.333v42.84a1.333 1.333 0 0 0 1.333 1.333h31.2a1.333 1.333 0 0 0 1.333-1.333v-42.84a1.333 1.333 0 0 0 -1.334-1.333z" fill="#f4f1f1"/><path d="m206.115 0h-15.6v45.506h15.6a1.333 1.333 0 0 0 1.333-1.333v-42.84a1.333 1.333 0 0 0 -1.333-1.333z" fill="#e7dfdd" transform="translate(-173.582)"/><g fill="#38336b"><path d="m232.943 116.345h-8.467a1.333 1.333 0 1 1 0-2.666h8.467a1.333 1.333 0 1 1 0 2.666z" transform="translate(-203.31 -103.575)"/><path d="m232.943 207.35h-8.467a1.333 1.333 0 1 1 0-2.666h8.467a1.333 1.333 0 1 1 0 2.666z" transform="translate(-203.31 -186.492)"/><path d="m232.943 298.354h-8.467a1.333 1.333 0 0 1 0-2.666h8.467a1.333 1.333 0 0 1 0 2.666z" transform="translate(-203.31 -269.407)"/><path d="m232.943 392.844h-8.467a1.333 1.333 0 1 1 0-2.666h8.467a1.333 1.333 0 1 1 0 2.666z" transform="translate(-203.31 -355.499)"/></g><path d="m51.077 92.743a1.332 1.332 0 0 1 -.943-.391l-1.909-1.909a1.333 1.333 0 0 1 1.885-1.885l.966.966 3.107-3.107a1.333 1.333 0 1 1 1.886 1.883l-4.05 4.05a1.333 1.333 0 0 1 -.943.391z" fill="#90d960" transform="translate(-43.583 -78.38)"/><path d="m51.077 183.748a1.333 1.333 0 0 1 -.943-.391l-1.909-1.909a1.333 1.333 0 0 1 1.885-1.885l.966.966 3.107-3.107a1.333 1.333 0 1 1 1.885 1.885l-4.05 4.05a1.333 1.333 0 0 1 -.941.391z" fill="#90d960" transform="translate(-43.583 -161.297)"/><path d="m51.077 274.752a1.333 1.333 0 0 1 -.943-.391l-1.909-1.909a1.333 1.333 0 1 1 1.885-1.885l.966.966 3.107-3.107a1.333 1.333 0 1 1 1.885 1.885l-4.05 4.05a1.333 1.333 0 0 1 -.941.391z" fill="#90d960" transform="translate(-43.583 -244.213)"/><path d="m419.23 4.525v27.783a1.333 1.333 0 0 1 -1.333 1.333h-6.383a1.333 1.333 0 0 1 -1.333-1.333v-27.783a4.525 4.525 0 0 1 9.05 0z" fill="#ffda2c" transform="translate(-373.724)"/><path d="m461.09 0v33.641h3.192a1.333 1.333 0 0 0 1.333-1.333v-27.783a4.53 4.53 0 0 0 -4.525-4.525z" fill="#febf00" transform="translate(-420.109)"/><path d="m410.18 94.91h9.05v2.666h-9.05z" fill="#d20041" transform="translate(-373.724 -86.474)"/><path d="m461.09 94.91h4.525v2.666h-4.525z" fill="#ba003a" transform="translate(-420.109 -86.474)"/></svg>