<svg height="70.373" viewBox="0 0 62.451 70.373" width="62.451" xmlns="http://www.w3.org/2000/svg"><g transform="translate(0 .001)"><path d="m51.367 51.339v14.628a4.406 4.406 0 0 1 -4.406 4.405h-42.556a4.405 4.405 0 0 1 -4.405-4.405v-61.562a4.406 4.406 0 0 1 4.405-4.405h42.557a4.406 4.406 0 0 1 4.406 4.406zm0 0" fill="#dce1ea"/><path d="m4.406 0a4.406 4.406 0 0 0 -4.406 4.405v61.562a4.406 4.406 0 0 0 4.405 4.406h21.279v-70.373zm0 0" fill="#f3f5fb" transform="translate(0 -.001)"/><g fill="#195285"><path d="m244.414 75.164h-8.5a2.047 2.047 0 1 1 0-4.094h8.5a2.047 2.047 0 1 1 0 4.094zm0 0" transform="translate(-201.72 -61.302)"/><path d="m63.212 75.164h-12.953a2.047 2.047 0 1 1 0-4.094h12.953a2.047 2.047 0 1 1 0 4.094zm0 0" transform="translate(-41.585 -61.302)"/><path d="m54.369 144.446h-4.111a2.047 2.047 0 1 1 0-4.094h4.111a2.047 2.047 0 1 1 0 4.094zm0 0" transform="translate(-41.585 -121.061)"/><path d="m54.9 213.727h-4.642a2.047 2.047 0 1 1 0-4.094h4.642a2.047 2.047 0 0 1 0 4.094zm0 0" transform="translate(-41.585 -180.82)"/><path d="m64.692 283.008h-14.434a2.047 2.047 0 0 1 0-4.094h14.434a2.047 2.047 0 1 1 0 4.094zm0 0" transform="translate(-41.585 -240.579)"/><path d="m84.278 352.289h-34.02a2.047 2.047 0 1 1 0-4.094h34.02a2.047 2.047 0 1 1 0 4.094zm0 0" transform="translate(-41.584 -300.337)"/><path d="m84.278 421.571h-34.02a2.047 2.047 0 0 1 0-4.094h34.02a2.047 2.047 0 1 1 0 4.094zm0 0" transform="translate(-41.584 -360.097)"/></g><path d="m50.258 75.164h12.954a2.047 2.047 0 1 0 0-4.094h-12.954a2.047 2.047 0 1 0 0 4.094zm0 0" fill="#2570b7" transform="translate(-41.585 -61.302)"/><path d="m50.258 144.446h4.111a2.047 2.047 0 1 0 0-4.094h-4.111a2.047 2.047 0 1 0 0 4.094zm0 0" fill="#2570b7" transform="translate(-41.585 -121.062)"/><path d="m50.258 213.727h4.642a2.047 2.047 0 0 0 0-4.094h-4.642a2.047 2.047 0 1 0 0 4.094zm0 0" fill="#2570b7" transform="translate(-41.585 -180.82)"/><path d="m50.258 283.008h14.435a2.047 2.047 0 1 0 0-4.094h-14.435a2.047 2.047 0 0 0 0 4.094zm0 0" fill="#2570b7" transform="translate(-41.585 -240.579)"/><path d="m50.258 348.195a2.047 2.047 0 1 0 0 4.094h17.011v-4.094zm0 0" fill="#2570b7" transform="translate(-41.585 -300.337)"/><path d="m48.211 419.524a2.047 2.047 0 0 0 2.047 2.047h17.011v-4.094h-17.011a2.047 2.047 0 0 0 -2.047 2.047zm0 0" fill="#2570b7" transform="translate(-41.585 -360.097)"/><path d="m318.651 326.023-11.645-13.1-5.032 2.454-3.134 4.424 10.741 13.849a5.981 5.981 0 0 0 8.535.878 5.888 5.888 0 0 0 .535-8.507zm0 0" fill="#e01f26" transform="translate(-257.765 -269.916)"/><path d="m298.84 335.194 10.741 13.849a5.981 5.981 0 0 0 8.535.878l-16.143-19.151zm0 0" fill="#ff432e" transform="translate(-257.766 -285.307)"/><path d="m261.134 257.574-7.634 6.45 6.232 8.035 8.167-6.877zm0 0" fill="#afb4c8" transform="translate(-218.658 -222.172)"/><path d="m253.5 284.924 6.232 8.035 4.014-3.38-6.553-7.774zm0 0" fill="#ced2e1" transform="translate(-218.658 -243.072)"/><path d="m101.1 109.621a17.4 17.4 0 0 1 -10.072-5.808 17.13 17.13 0 0 1 2-24.251 17.37 17.37 0 0 1 24.372 2.038 17.131 17.131 0 0 1 -2 24.251 17.289 17.289 0 0 1 -14.3 3.771zm0 0" fill="#bde6fc" transform="translate(-74.973 -65.125)"/><path d="m94.851 60.93-.739 4.027a15.251 15.251 0 0 1 8.882 5.122 15.083 15.083 0 0 1 -1.758 21.357 15.323 15.323 0 0 1 -21.495-1.8 15.084 15.084 0 0 1 1.759-21.355 15.266 15.266 0 0 1 12.611-3.324l.738-4.027a19.331 19.331 0 0 0 -15.986 4.218 19.177 19.177 0 0 0 -2.238 27.146 19.418 19.418 0 0 0 27.246 2.275 19.178 19.178 0 0 0 2.239-27.146 19.451 19.451 0 0 0 -11.259-6.493zm0 0" fill="#ced2e1" transform="translate(-62.124 -52.277)"/><path d="m86.979 116.746a17.055 17.055 0 0 0 4.054 12.554 17.368 17.368 0 0 0 24.242 2.141l-22.246-26.387a17.019 17.019 0 0 0 -6.05 11.692zm0 0" fill="#e1f1fa" transform="translate(-74.973 -90.616)"/><path d="m88.626 123.277a15.253 15.253 0 0 1 -8.884-5.122 15.083 15.083 0 0 1 1.758-21.355l-2.639-3.13a19.177 19.177 0 0 0 -2.235 27.143 19.415 19.415 0 0 0 27.119 2.378l-2.639-3.131a15.264 15.264 0 0 1 -12.481 3.219zm0 0" fill="#dce1ea" transform="translate(-62.124 -80.794)"/></g></svg>