<svg height="69.512" viewBox="0 0 69.525 69.512" width="69.525" xmlns="http://www.w3.org/2000/svg"><path d="m254.37 197.543a19.44 19.44 0 1 0 -13.383 18.487l6.036 6.036v-9.3a19.418 19.418 0 0 0 7.347-15.223z" fill="#ff5d5d" transform="translate(-186.203 -153.912)"/><path d="m30.091 10.046a20.094 20.094 0 0 0 -12.762 35.614v8.42l5.285-5.285a20.1 20.1 0 1 0 7.477-38.748z" fill="#62cd4d" transform="translate(-8.64 -8.688)"/><path d="m48.712 22.866a20.742 20.742 0 0 0 -5.925.857 21.58 21.58 0 0 0 .113-2.223 21.224 21.224 0 0 0 -2.344-9.76 1.358 1.358 0 0 0 -2.417 1.237 18.53 18.53 0 0 1 2.047 8.523 18.745 18.745 0 0 1 -25.707 17.393 1.359 1.359 0 0 0 -1.466.3l-2.966 2.967v-5.141a1.358 1.358 0 0 0 -.495-1.048 18.736 18.736 0 0 1 21.248-30.714 1.358 1.358 0 0 0 1.357-2.352 21.453 21.453 0 0 0 -24.826 34.742v7.791a1.358 1.358 0 0 0 2.318.96l4.666-4.666a21.5 21.5 0 0 0 13.659.2c-.048.58-.074 1.162-.074 1.744a20.619 20.619 0 0 0 2.075 9.069 1.358 1.358 0 1 0 2.443-1.185 17.923 17.923 0 0 1 -1.8-7.884 18.259 18.259 0 0 1 .233-2.9 21.542 21.542 0 0 0 11.4-14.006 18.1 18.1 0 0 1 17.73 31.071 1.357 1.357 0 0 0 -.512 1.062v6.019l-3.725-3.722a1.358 1.358 0 0 0 -1.383-.33 18.154 18.154 0 0 1 -13.521-.9 1.358 1.358 0 1 0 -1.183 2.444 20.876 20.876 0 0 0 14.743 1.286l5.46 5.46a1.358 1.358 0 0 0 2.318-.96v-8.654a20.812 20.812 0 0 0 -13.466-36.68z" transform="translate(0 -.047)"/><path d="m250.282 413.6a1.358 1.358 0 0 0 -1.911 1.928l.144.141a1.358 1.358 0 1 0 1.891-1.948z" transform="translate(-214.297 -357.103)"/><path d="m256.865 49.719a1.355 1.355 0 0 0 .994.441 1.381 1.381 0 0 0 .939-.371 1.382 1.382 0 1 0 -1.945-.083z" transform="translate(-221.647 -40.976)"/><path d="m99.73 120.984a1.357 1.357 0 1 0 .4.96 1.366 1.366 0 0 0 -.4-.96z" transform="translate(-84.184 -104.218)"/><path d="m200.851 122.9a1.359 1.359 0 1 0 -.96.4 1.368 1.368 0 0 0 .96-.4z" transform="translate(-171.574 -104.217)"/><path d="m118.475 188.676a6.385 6.385 0 0 0 6.16-4.733 1.358 1.358 0 0 0 -2.623-.7 3.659 3.659 0 0 1 -7.073 0 1.358 1.358 0 0 0 -2.623.7 6.385 6.385 0 0 0 6.159 4.733z" transform="translate(-97.024 -157.495)"/><path d="m301.213 284.615a1.358 1.358 0 1 0 .96.4 1.368 1.368 0 0 0 -.96-.4z" transform="translate(-259.138 -245.973)"/><path d="m399.924 286.933a1.357 1.357 0 1 0 -.96.4 1.368 1.368 0 0 0 .96-.4z" transform="translate(-343.615 -245.974)"/><path d="m320.26 344.221a6.218 6.218 0 0 0 -6 4.609 1.358 1.358 0 1 0 2.623.7 3.492 3.492 0 0 1 6.75 0 1.358 1.358 0 0 0 2.623-.7 6.218 6.218 0 0 0 -5.996-4.609z" transform="translate(-271.548 -297.485)"/></svg>