<svg height="78.993" viewBox="0 0 75.399 78.993" width="75.399" xmlns="http://www.w3.org/2000/svg"><path d="m121.511 223.938a9.878 9.878 0 0 0 14.527 0l1.539-1.636-2.17-.84a1.345 1.345 0 0 1 -.859-1.255v-4.83a9.676 9.676 0 0 1 -5.495 1.706 10.174 10.174 0 0 1 -5.8-1.73v4.807a1.416 1.416 0 0 1 -.9 1.321l-2.306.894zm0 0" fill="#ffbeab" transform="translate(-101.519 -182.127)"/><path d="m127.882 217.02a9.985 9.985 0 0 1 -4.633-1.669v4.807a1.417 1.417 0 0 1 -.9 1.321l-2.306.894 1.472 1.565a9.966 9.966 0 0 0 6.371 3.141zm0 0" fill="#f7af9f" transform="translate(-101.519 -182.126)"/><path d="m58.239 282a4.048 4.048 0 0 0 -1.867.042l-7.659 1.958a.5.5 0 0 1 -.539-.752l.95-1.454a4.115 4.115 0 0 0 -.486-5.124 19.134 19.134 0 0 1 -5.152-16.551l-.664-.257-1.564 1.662a9.545 9.545 0 0 1 -14.037 0l-1.5-1.593-11.942 4.63a9.47 9.47 0 0 0 -5.527 8.574v22.025a2.519 2.519 0 0 0 2.519 2.519h47.192a2.519 2.519 0 0 0 2.519-2.519v-12.815a19.032 19.032 0 0 1 -2.243-.345zm0 0" fill="#54a0ff" transform="translate(-6.98 -219.768)"/><path d="m12.882 316.307v-24.507a9.08 9.08 0 0 1 3.065-6.933l-2.166.84a9.47 9.47 0 0 0 -5.528 8.574v22.025a2.519 2.519 0 0 0 2.519 2.519h4.628a2.519 2.519 0 0 1 -2.518-2.518zm0 0" fill="#338def" transform="translate(-6.981 -240.917)"/><path d="m263.894 161.125a19.254 19.254 0 0 0 -24.534 29.415 3.983 3.983 0 0 1 .468 4.932l-.95 1.454a.651.651 0 0 0 .706.987l7.659-1.96a3.921 3.921 0 0 1 1.8-.04 19.255 19.255 0 0 0 14.855-34.787zm0 0" fill="#feca57" transform="translate(-197.812 -133.532)"/><path d="m244.456 195.475a3.984 3.984 0 0 0 -.468-4.932 19.2 19.2 0 0 1 11.557-32.51 19.229 19.229 0 0 0 -16.186 32.51 3.983 3.983 0 0 1 .468 4.932l-.95 1.454a.651.651 0 0 0 .706.987l3.937-1.008zm0 0" fill="#f4b537" transform="translate(-197.812 -133.535)"/><path d="m102.133 7.977a13.531 13.531 0 0 0 -13.533 13.531v5a4.15 4.15 0 0 1 3.447-.834v-.674a.923.923 0 0 1 .988-.919 24.223 24.223 0 0 0 14.581-3.916.922.922 0 0 1 1.179.144c3.442 3.7 3.421 3.556 3.421 4.039v1.323a4.005 4.005 0 0 1 3.446.716v-4.879a13.531 13.531 0 0 0 -13.529-13.531zm0 0" fill="#576574" transform="translate(-74.932 -6.746)"/><path d="m93.23 21.508a13.534 13.534 0 0 1 11.216-13.334 13.54 13.54 0 0 0 -15.846 13.334v5a4.15 4.15 0 0 1 3.447-.834v-.674a.923.923 0 0 1 .988-.919c.064 0 .13.008.194.011zm0 0" fill="#3e4b5a" transform="translate(-74.932 -6.746)"/><path d="m241.022 119.949v7.563c0 .082 0 .163-.006.245a3.982 3.982 0 1 0 .006-7.808zm0 0" fill="#ffbeab" transform="translate(-203.831 -101.398)"/><path d="m85.467 127.486v-7.618a4.226 4.226 0 0 0 -4.8 3.931 4.042 4.042 0 0 0 4.809 3.933c0-.083-.006-.165-.006-.246zm0 0" fill="#ffbeab" transform="translate(-68.219 -101.345)"/><path d="m244.561 121a4.176 4.176 0 0 0 -3.539-1.049v7.563c0 .082 0 .163-.006.245a4.174 4.174 0 0 0 3.546-1.049zm0 0" fill="#f7af9f" transform="translate(-203.831 -101.398)"/><path d="m85.467 126.7a3.943 3.943 0 0 1 -1.263-2.9 3.774 3.774 0 0 1 1.263-2.777v-1.154a4.226 4.226 0 0 0 -4.8 3.931 4.042 4.042 0 0 0 4.809 3.933c0-.082-.006-.164-.006-.246zm0 0" fill="#f7af9f" transform="translate(-68.219 -101.345)"/><path d="m127.69 84.371a.922.922 0 0 0 -1.179-.143 24.226 24.226 0 0 1 -14.582 3.916.922.922 0 0 0 -.988.919v8.084a10.086 10.086 0 0 0 20.169 0v-8.737c0-.483.02-.34-3.421-4.039zm0 0" fill="#ffcdbf" transform="translate(-93.825 -71.105)"/><path d="m115.57 119.132v-9.058a21.471 21.471 0 0 1 -3.641.055.922.922 0 0 0 -.988.919v8.084a10.192 10.192 0 0 0 12.463 9.684 9.881 9.881 0 0 1 -7.834-9.684zm0 0" fill="#ffbeab" transform="translate(-93.825 -93.091)"/><g fill="#020202"><path d="m314.22 243.3h-16.848a1.157 1.157 0 1 0 0 2.314h16.848a1.157 1.157 0 1 0 0-2.314zm0 0" transform="translate(-250.514 -205.767)"/><path d="m314.22 276.98h-16.848a1.157 1.157 0 1 0 0 2.314h16.848a1.157 1.157 0 1 0 0-2.314zm0 0" transform="translate(-250.514 -234.247)"/><path d="m314.22 310.656h-16.848a1.157 1.157 0 1 0 0 2.314h16.848a1.157 1.157 0 1 0 0-2.314zm0 0" transform="translate(-250.514 -262.727)"/><path d="m73.093 41.329a1.157 1.157 0 1 0 2.3-.277 20.283 20.283 0 0 0 -39.82-2.377l-1.353-.524a.189.189 0 0 1 -.121-.177v-3.235a11.1 11.1 0 0 0 4.215-7.334 5.025 5.025 0 0 0 3.539-8.305v-4.412a14.688 14.688 0 1 0 -29.376 0v4.526a4.961 4.961 0 0 0 3.541 8.191 10.978 10.978 0 0 0 4.456 7.509v3.012a.262.262 0 0 1 -.166.243l-14.037 5.442-.022.009a10.566 10.566 0 0 0 -6.249 9.651v22.043a3.683 3.683 0 0 0 3.679 3.679h20.786a1.157 1.157 0 1 0 0-2.314h-12.735v-21.241a1.157 1.157 0 0 0 -2.315 0v21.24h-5.737a1.366 1.366 0 0 1 -1.364-1.364v-22.043a8.311 8.311 0 0 1 4.808-7.508l11.21-4.346a11.45 11.45 0 0 0 8.833 4.469 10.721 10.721 0 0 0 7.851-3.426 20.326 20.326 0 0 0 5.731 15.157 2.978 2.978 0 0 1 .345 3.687l-.95 1.454a1.655 1.655 0 0 0 1.795 2.508l.919-.236v11.649h-12.99a1.157 1.157 0 0 0 0 2.314h21.042a3.683 3.683 0 0 0 3.678-3.679v-11.585a20.279 20.279 0 0 0 20.68-16.95 1.157 1.157 0 0 0 -2.284-.377 18.008 18.008 0 0 1 -19.456 14.936c-2.172-.209-2.815-.706-4.5-.275l-6.017 1.537.021-.033a5.307 5.307 0 0 0 -.63-6.567 17.943 17.943 0 1 1 30.69-14.673zm-32.329-18.947a2.716 2.716 0 0 1 -2.357 2.686v-5.368a2.719 2.719 0 0 1 2.357 2.686zm-24.84 2.686a2.714 2.714 0 0 1 -2.356-2.686 2.858 2.858 0 0 1 2.356-2.629zm.058-7.669a5.913 5.913 0 0 0 -1.19.271v-2.982a12.374 12.374 0 1 1 24.747 0v2.9a5.255 5.255 0 0 0 -1.132-.22 1.746 1.746 0 0 0 -.48-1.435v-.006c-.445-.556-1.249-1.374-3.245-3.521a2.075 2.075 0 0 0 -2.658-.325 22.939 22.939 0 0 1 -13.861 3.732 2.082 2.082 0 0 0 -2.182 1.587zm2.257 8.569v-7.833a25.325 25.325 0 0 0 14.879-4.01c1.736 1.864 2.681 2.847 2.976 3.211v8.631a8.8 8.8 0 0 1 -5.156 8c-5.657 2.577-12.7-1.359-12.7-8zm15.109 14.89a8.432 8.432 0 0 1 -6.182 2.715 8.54 8.54 0 0 1 -6.5-3.057l.483-.187a2.592 2.592 0 0 0 1.644-2.4v-1.729a11.652 11.652 0 0 0 8.994-.077v1.851a2.52 2.52 0 0 0 1.6 2.335l.352.137zm11.822 23.581 4.43-1.139c.9-.229 1.3.008 2.67.212v11.8a1.366 1.366 0 0 1 -1.364 1.364h-5.736zm0 0"/></g></svg>