<svg height="59.063" viewBox="0 0 51.665 59.063" width="51.665" xmlns="http://www.w3.org/2000/svg"><path d="m131.988 59.281v-51.781h-44.37v57.329h38.822a5.548 5.548 0 0 0 5.548-5.548z" fill="#fbe4a5" transform="translate(-81.189 -6.633)"/><path d="m6.429.867h4.61v57.329h-4.61z" fill="#f8c94a"/><path d="m78.336 455.5h-38.836a5.548 5.548 0 0 0 5.548 5.548h38.836a5.548 5.548 0 0 1 -5.548-5.548z" fill="#fad677" transform="translate(-38.633 -402.852)"/><path d="m11.963 6.415h33.288v7.397h-33.288z" fill="#fad677"/><path d="m82.8 0h-44.372a.867.867 0 0 0 -.867.867v28.664a.867.867 0 0 0 1.734 0v-27.797h42.637v50.914a4.681 4.681 0 1 1 -9.362 0 .867.867 0 0 0 -.867-.867h-32.403v-18.163a.867.867 0 1 0 -1.734 0v18.163h-4.699a.867.867 0 0 0 -.867.867 6.422 6.422 0 0 0 6.415 6.415h38.836a6.422 6.422 0 0 0 6.415-6.415v-51.781a.867.867 0 0 0 -.866-.867zm-44.372 57.329h-.014a4.689 4.689 0 0 1 -4.6-3.814h37.08a6.405 6.405 0 0 0 1.975 3.814z" transform="translate(-32)"/><path d="m163.022 48.867a.867.867 0 0 0 -.867-.867h-33.288a.867.867 0 0 0 -.867.867v7.4a.867.867 0 0 0 .867.867h33.288a.867.867 0 0 0 .867-.867zm-1.734 6.53h-31.554v-5.663h31.554z" transform="translate(-116.904 -42.452)"/><path d="m128.867 161.734h5.548a.867.867 0 0 0 0-1.734h-5.548a.867.867 0 0 0 0 1.734z" transform="translate(-116.904 -141.507)"/><path d="m239.983 160h-23.116a.867.867 0 1 0 0 1.734h23.117a.867.867 0 0 0 0-1.734z" transform="translate(-194.733 -141.507)"/><path d="m128.867 193.734h10.171a.867.867 0 1 0 0-1.734h-10.171a.867.867 0 1 0 0 1.734z" transform="translate(-116.904 -169.808)"/><path d="m268.285 192h-19.418a.867.867 0 1 0 0 1.734h19.418a.867.867 0 1 0 0-1.734z" transform="translate(-223.034 -169.808)"/><path d="m128.867 401.734h6.473a.867.867 0 0 0 0-1.734h-6.473a.867.867 0 0 0 0 1.734z" transform="translate(-116.904 -353.767)"/><path d="m216.867 401.734h23.117a.867.867 0 0 0 0-1.734h-23.117a.867.867 0 0 0 0 1.734z" transform="translate(-194.733 -353.767)"/><path d="m148.566 248.528a.867.867 0 0 0 .867-.867v-.982h.058a3.641 3.641 0 1 0 0-7.282h-1.849a1.907 1.907 0 1 1 0-3.814h4.623a.867.867 0 1 0 0-1.734h-2.832v-.982a.867.867 0 1 0 -1.734 0v.982h-.058a3.641 3.641 0 1 0 0 7.282h1.849a1.907 1.907 0 1 1 0 3.814h-4.623a.867.867 0 1 0 0 1.734h2.833v.982a.867.867 0 0 0 .866.867z" transform="translate(-131.055 -205.185)"/><path d="m245.49 244.945h-4.623a.867.867 0 1 0 0 1.734h2.833v.982a.867.867 0 1 0 1.734 0v-.982h.058a3.641 3.641 0 1 0 0-7.282h-1.849a1.907 1.907 0 1 1 0-3.814h4.623a.867.867 0 1 0 0-1.734h-2.832v-.982a.867.867 0 1 0 -1.734 0v.982h-.058a3.641 3.641 0 1 0 0 7.282h1.849a1.907 1.907 0 1 1 0 3.814z" transform="translate(-215.959 -205.185)"/><path d="m341.49 244.945h-4.623a.867.867 0 1 0 0 1.734h2.833v.982a.867.867 0 1 0 1.734 0v-.982h.058a3.641 3.641 0 1 0 0-7.282h-1.849a1.907 1.907 0 1 1 0-3.814h4.623a.867.867 0 1 0 0-1.734h-2.832v-.982a.867.867 0 1 0 -1.734 0v.982h-.058a3.641 3.641 0 1 0 0 7.282h1.849a1.907 1.907 0 0 1 0 3.814z" transform="translate(-300.863 -205.185)"/></svg>