<svg height="22.312" viewBox="0 0 24 22.312" width="24" xmlns="http://www.w3.org/2000/svg"><path d="m20.25 0h-16.5a3.754 3.754 0 0 0 -3.75 3.75v13.124a3.754 3.754 0 0 0 3.75 3.75h12.8a.937.937 0 0 0 0-1.875h-3.456l-2.155-2.8 6.831-8.688 4.6 5.082a.937.937 0 0 0 1.63-.625v-7.968a3.754 3.754 0 0 0 -3.75-3.75zm1.875 9.285-3.711-4.1a.937.937 0 0 0 -1.432.05l-7.225 9.186-2.457-3.181a.938.938 0 0 0 -.742-.365.937.937 0 0 0 -.742.366l-2.06 2.681a.938.938 0 0 0 1.486 1.143l1.321-1.717 4.163 5.4h-6.976a1.877 1.877 0 0 1 -1.875-1.875v-13.123a1.877 1.877 0 0 1 1.875-1.875h16.5a1.877 1.877 0 0 1 1.875 1.875zm0 0"/><path d="m82.812 72a2.812 2.812 0 1 0 2.812 2.812 2.816 2.816 0 0 0 -2.812-2.812zm0 3.75a.937.937 0 1 1 .937-.937.939.939 0 0 1 -.937.937zm0 0" transform="translate(-76.25 -68.625)"/><path d="m358.412 288.7-.008-.008a2.337 2.337 0 0 0 -3.316 0l-1.81 1.785a.937.937 0 0 0 1.317 1.335l1.212-1.195v5.262a.937.937 0 1 0 1.875 0v-5.233l1.16 1.2a.937.937 0 1 0 1.347-1.3zm0 0" transform="translate(-336.453 -274.5)"/></svg>