<svg height="213.739" viewBox="0 0 316.02 213.739" width="316.02" xmlns="http://www.w3.org/2000/svg"><path d="m345.811 74.6s-18.063-41.685-75.032-50.485-82.392 6.947-98.654 28.253-27.79-4.632-75.5-6.484c-16.905-.658-36 2.371-47.609 15.9-8.935 10.416-12.416 26.554-3.933 38.304 7.517 10.412 24.717 26.085 16.345 40.295-10.653 18.063-24.548 45.853-9.726 66.7s30.569 29.642 76.422 20.842 62.064-26.863 84.3-15.748 68.085 28.253 95.412 21.769 18.527-39.832 16.674-51.411 28.253-23.621 29.179-54.653-2.783-41.703-7.878-53.282z" fill="#00264d" transform="translate(-37.807 -21.627)"/><path d="m345.811 74.6s-18.063-41.685-75.032-50.485-82.392 6.947-98.654 28.253-27.79-4.632-75.5-6.484c-16.905-.658-36 2.371-47.609 15.9-8.935 10.416-12.416 26.554-3.933 38.304 7.517 10.412 24.717 26.085 16.345 40.295-10.653 18.063-24.548 45.853-9.726 66.7s30.569 29.642 76.422 20.842 62.064-26.863 84.3-15.748 68.085 28.253 95.412 21.769 18.527-39.832 16.674-51.411 28.253-23.621 29.179-54.653-2.783-41.703-7.878-53.282z" fill="#fff" opacity=".7" transform="translate(-37.807 -21.627)"/><path d="m311.709 129.858h-306.614" fill="none" stroke="#263238" stroke-linecap="round" stroke-linejoin="round"/><path d="m311.709 134.026h-306.614" fill="none" stroke="#263238" stroke-linecap="round" stroke-linejoin="round"/><ellipse cx="253.882" cy="127.617" fill="#00264d" rx="4.256" ry="11.167" stroke="#263238" stroke-miterlimit="10"/><path d="m603.145 272.2c-1.329 4.168-3.886 7.119-5.711 6.54s-2.223-4.446-.894-8.633 3.891-7.119 5.715-6.54 2.219 4.445.89 8.633z" fill="#00264d" stroke="#263238" stroke-miterlimit="10" transform="translate(-336.034 -151.47)"/><path d="m535.807 328.63c-4.335-.736-7.591-2.862-7.272-4.747s4.094-2.821 8.425-2.084 7.591 2.858 7.272 4.743-4.095 2.82-8.425 2.088z" fill="#00264d" stroke="#263238" stroke-miterlimit="10" transform="translate(-299.936 -182.635)"/><path d="m608.523 302.731c-3.622 3.59-7.874 5.15-9.555 3.478s-.065-5.933 3.557-9.523 7.9-5.146 9.532-3.469.083 5.925-3.534 9.514z" fill="#00264d" stroke="#263238" stroke-miterlimit="10" transform="translate(-337.401 -167.065)"/><path d="m553.158 285.349c3.5 5.095 4.544 10.435 2.316 11.959s-6.846-1.352-10.347-6.433-4.544-10.43-2.316-11.959 6.869 1.357 10.347 6.433z" fill="#00264d" stroke="#263238" stroke-miterlimit="10" transform="translate(-306.982 -159.529)"/><path d="m254.179 138.232.329 33.973" fill="none" stroke="#263238" stroke-linecap="round" stroke-miterlimit="10"/><path d="m253.781 123.467.398 14.766" fill="none" stroke="#263238" stroke-linecap="round" stroke-miterlimit="10"/><path d="m253.813 121.058-.032 1.13" fill="none" stroke="#263238" stroke-linecap="round" stroke-miterlimit="10"/><path d="m571.51 317.54a42.964 42.964 0 0 1 4.206 16.109v21.014" fill="none" stroke="#263238" stroke-linecap="round" stroke-miterlimit="10" transform="translate(-323.018 -180.484)"/><path d="m555.71 293.38a50.483 50.483 0 0 1 7.318 11.19" fill="none" stroke="#263238" stroke-linecap="round" stroke-miterlimit="10" transform="translate(-314.536 -167.514)"/><path d="m550.75 288.12a15.347 15.347 0 0 1 1.163 1.176" fill="none" stroke="#263238" stroke-linecap="round" stroke-miterlimit="10" transform="translate(-311.874 -164.69)"/><path d="m592.311 320.94a50.336 50.336 0 0 0 -6.9 13.7" fill="none" stroke="#263238" stroke-linecap="round" stroke-miterlimit="10" transform="translate(-330.48 -182.309)"/><path d="m605.21 308.79a40.019 40.019 0 0 0 -4.9 5.627" fill="none" stroke="#263238" stroke-linecap="round" stroke-miterlimit="10" transform="translate(-338.479 -175.787)"/><path d="m617.885 300.18a22.233 22.233 0 0 0 -3.705 2.645" fill="none" stroke="#263238" stroke-linecap="round" stroke-miterlimit="10" transform="translate(-345.925 -171.165)"/><path d="m591.808 294.17a201.818 201.818 0 0 0 -7 27.91" fill="none" stroke="#263238" stroke-linecap="round" stroke-miterlimit="10" transform="translate(-330.158 -167.938)"/><path d="m601.33 284.66c-.422 1.251-.926 2.737-1.44 4.4" fill="none" stroke="#263238" stroke-linecap="round" stroke-miterlimit="10" transform="translate(-338.254 -162.833)"/><path d="m604.959 275.46s-.412 1.139-1.079 3.085" fill="none" stroke="#263238" stroke-linecap="round" stroke-miterlimit="10" transform="translate(-340.396 -157.894)"/><path d="m562 330.11c2.946 1.116 6.975 4.233 8.374 8.337" fill="none" stroke="#263238" stroke-linecap="round" stroke-miterlimit="10" transform="translate(-317.913 -187.232)"/><path d="m550.22 327.72a18.526 18.526 0 0 1 5.456 1.107" fill="none" stroke="#263238" stroke-linecap="round" stroke-miterlimit="10" transform="translate(-311.589 -185.949)"/><path d="m542.61 327.781s.523-.074 1.389-.111" fill="none" stroke="#263238" stroke-linecap="round" stroke-miterlimit="10" transform="translate(-307.504 -185.922)"/><path d="m552.385 363.15c-3.983 1.853-7.874 1.964-8.675.232s1.76-4.632 5.743-6.484 7.874-1.959 8.68-.227-1.765 4.621-5.748 6.479z" fill="#00264d" stroke="#263238" stroke-miterlimit="10" transform="translate(-308.016 -200.828)"/><path d="m562.34 358.238a18.6 18.6 0 0 1 5.095-2.181 2.547 2.547 0 0 1 2.737.051c.542.357.361 3.052.361 3.052v14.006" fill="none" stroke="#263238" stroke-linecap="round" stroke-miterlimit="10" transform="translate(-318.096 -200.961)"/><path d="m556.18 364.67s.389-.361 1.084-.88" fill="none" stroke="#263238" stroke-linecap="round" stroke-miterlimit="10" transform="translate(-314.789 -205.313)"/><path d="m614.54 328.63c4.335-.736 7.591-2.862 7.272-4.747s-4.094-2.821-8.425-2.084-7.591 2.858-7.272 4.743 4.104 2.82 8.425 2.088z" fill="#00264d" stroke="#263238" stroke-miterlimit="10" transform="translate(-341.584 -182.635)"/><path d="m598.322 330a14.045 14.045 0 0 0 -1.542.676 10.806 10.806 0 0 0 -5.78 9.648v18.526" fill="none" stroke="#263238" stroke-linecap="round" stroke-miterlimit="10" transform="translate(-333.481 -187.173)"/><path d="m612.618 327.67a18.99 18.99 0 0 0 -5.808 1.079" fill="none" stroke="#263238" stroke-linecap="round" stroke-miterlimit="10" transform="translate(-341.969 -185.922)"/><path d="m624.926 327.808s-.343-.051-.926-.088" fill="none" stroke="#263238" stroke-linecap="round" stroke-miterlimit="10" transform="translate(-351.197 -185.949)"/><ellipse cx="3.464" cy="7.957" fill="#00264d" rx="3.464" ry="7.957" stroke="#263238" stroke-miterlimit="10" transform="matrix(.49939528 -.86637426 .86637426 .49939528 261.719 154.716)"/><path d="m604.217 350.585a18.991 18.991 0 0 0 -5.174-2.858s-4.724-.778-5.8 2.274" fill="none" stroke="#263238" stroke-linecap="round" stroke-miterlimit="10" transform="translate(-334.684 -196.642)"/><path d="m621.122 357.617s-.236-.259-.672-.667" fill="none" stroke="#263238" stroke-linecap="round" stroke-miterlimit="10" transform="translate(-349.291 -201.641)"/><path d="m588.348 352.944s-5.558-1.079-5.558 2.7 3.951 6.822 5.558 11.116 4.669 4.488 6.285.181-.718-12.195-6.285-13.997z" fill="#00264d" stroke="#263238" stroke-miterlimit="10" transform="translate(-329.074 -199.414)"/><path d="m586.65 353.5a11.758 11.758 0 0 1 6.285 8.258" fill="#00264d" stroke="#263238" stroke-miterlimit="10" transform="translate(-331.146 -199.789)"/><path d="m255.865 161.969v10.236" fill="none" stroke="#263238" stroke-linecap="round" stroke-miterlimit="10"/><path d="m580.826 411.991a43.624 43.624 0 0 0 2-13.1 39.369 39.369 0 0 0 -.806-8.013h-22.7a39.377 39.377 0 0 0 -.806 8.013 43.616 43.616 0 0 0 2.013 13.092z" fill="#263238" transform="translate(-316.045 -219.856)"/><path d="m558.888 399c-.065.616-.111 1.241-.148 1.853h24.145c-.037-.63-.083-1.255-.148-1.853z" fill="#7a7a7a" transform="translate(-316.163 -224.215)"/><path d="m582.705 417.483c.074-.621.139-1.246.19-1.853h-24.015c.051.625.116 1.251.19 1.853z" fill="#7a7a7a" transform="translate(-316.238 -233.143)"/><path d="m562.646 407.326a.977.977 0 1 1 -.977-.926.959.959 0 0 1 .977.926z" fill="#8c8c8c" transform="translate(-317.211 -228.187)"/><path d="m573.2 407.326a.977.977 0 1 1 -.977-.926.959.959 0 0 1 .977.926z" fill="#8c8c8c" transform="translate(-322.875 -228.187)"/><path d="m583.736 407.326a.977.977 0 1 1 -.977-.926.959.959 0 0 1 .977.926z" fill="#8c8c8c" transform="translate(-328.533 -228.187)"/><path d="m594.3 407.326a.977.977 0 1 1 -.977-.926.959.959 0 0 1 .977.926z" fill="#8c8c8c" transform="translate(-334.202 -228.187)"/><path d="m604.846 407.326a.977.977 0 1 1 -.977-.926.959.959 0 0 1 .977.926z" fill="#8c8c8c" transform="translate(-339.866 -228.187)"/><g stroke="#263238"><path d="m426.68 56.87v86.148h31.52v-86.148zm29.93 1.913v12.717h-13.11v-12.717zm-15.076 0v12.717h-13.265v-12.717zm-13.265 14.733h13.265v12.617h-13.265zm28.341 67.584h-28.341v-52.8h28.341zm-13.11-54.967v-12.617h13.11v12.617z" fill="none" stroke-linecap="round" stroke-linejoin="round" transform="translate(-245.268 -40.547)"/><path d="m494.46 56.87v86.148h31.518v-86.148zm29.93 1.913v12.717h-13.117v-12.717zm-15.076 0v12.717h-13.265v-12.717zm-13.265 14.733h13.265v12.617h-13.265zm28.341 67.584h-28.341v-52.8h28.341zm-13.117-54.967v-12.617h13.117v12.617z" fill="none" stroke-linecap="round" stroke-linejoin="round" transform="translate(-281.655 -40.547)"/><path d="m204.288 62.07-7.911 8.745" fill="none" stroke-linecap="round" stroke-linejoin="round"/><path d="m206.252 59.902-1.26 1.389" fill="none" stroke-linecap="round" stroke-linejoin="round"/><path d="m187.771 77.192-1.621 1.691" fill="none" stroke-linecap="round" stroke-linejoin="round"/><path d="m198.281 66.229-9.296 9.699" fill="none" stroke-linecap="round" stroke-linejoin="round"/><path d="m236.167 64.742-7.911 8.745" fill="none" stroke-linecap="round" stroke-linejoin="round"/><path d="m238.131 62.57-1.26 1.389" fill="none" stroke-linecap="round" stroke-linejoin="round"/><path d="m219.655 79.86-1.621 1.691" fill="none" stroke-linecap="round" stroke-linejoin="round"/><path d="m230.16 68.897-9.296 9.699" fill="none" stroke-linecap="round" stroke-linejoin="round"/><path d="m571.6 56.87v86.148h31.5v-86.148zm29.93 1.913v12.717h-13.117v-12.717zm-15.076 0v12.717h-13.279v-12.717zm-13.279 14.733h13.265v12.617h-13.265zm28.341 67.584h-28.341v-52.8h28.341zm-13.1-54.968v-12.616h13.114v12.617z" fill="none" stroke-linecap="round" stroke-linejoin="round" transform="translate(-323.066 -40.547)"/><path d="m639.38 56.87v86.148h31.5v-86.148zm29.93 1.913v12.717h-13.117v-12.717zm-15.076 0v12.717h-13.265v-12.717zm-13.265 14.733h13.265v12.617h-13.265zm28.341 67.584h-28.341v-52.8h28.341zm-13.117-54.967v-12.617h13.117v12.617z" fill="none" stroke-linecap="round" stroke-linejoin="round" transform="translate(-359.453 -40.547)"/><path d="m271.409 62.07-7.911 8.745" fill="none" stroke-linecap="round" stroke-linejoin="round"/><path d="m273.373 59.902-1.26 1.389" fill="none" stroke-linecap="round" stroke-linejoin="round"/><path d="m254.893 77.192-1.621 1.691" fill="none" stroke-linecap="round" stroke-linejoin="round"/><path d="m265.402 66.229-9.296 9.699" fill="none" stroke-linecap="round" stroke-linejoin="round"/><path d="m303.289 64.742-7.911 8.745" fill="none" stroke-linecap="round" stroke-linejoin="round"/><path d="m305.253 62.57-1.26 1.389" fill="none" stroke-linecap="round" stroke-linejoin="round"/><path d="m286.777 79.86-1.621 1.691" fill="none" stroke-linecap="round" stroke-linejoin="round"/><path d="m297.282 68.897-9.296 9.699" fill="none" stroke-linecap="round" stroke-linejoin="round"/><circle cx="15.887" cy="15.887" fill="#263238" r="15.887" stroke-linejoin="round" transform="matrix(.70710678 -.70710678 .70710678 .70710678 124.681 48.947)"/><circle cx="14.534" cy="14.534" fill="#fff" r="14.534" stroke-linejoin="round" transform="matrix(.6411818 -.76738901 .76738901 .6411818 126.671 50.77)"/><path d="m352.485 125.732a1.352 1.352 0 1 0 -1.352 1.352 1.352 1.352 0 0 0 1.352-1.352z" fill="#263238" stroke-linejoin="round" transform="translate(-203.986 -76.789)"/><path d="m148.254 49.949 2.117 2.672" fill="#fff" stroke-linejoin="round"/><path d="m148.254 47.948 6.012-8.578" fill="#fff" stroke-linejoin="round"/><path d="m288.653 190.005h-288.653" fill="none" stroke-linejoin="round"/><path d="m303.372 190.005h-10.921" fill="none" stroke-linejoin="round"/><path d="m302.679 392.567h-2.038l-.241-38.067h2.52z" fill="#fff" stroke-linejoin="round" transform="translate(-177.477 -200.326)"/><path d="m300.409 356.112h2.5l.009-1.612h-2.518z" fill="#263238" stroke-miterlimit="10" transform="translate(-177.477 -200.326)"/><path d="m309.263 392.567h-2.043l-.24-38.067h2.52z" fill="#263238" stroke-miterlimit="10" transform="translate(-181.009 -200.326)"/><path d="m386.579 392.567h-2.038l-.241-38.067h2.52z" fill="#fff" stroke-linejoin="round" transform="translate(-222.517 -200.326)"/><path d="m384.309 356.112h2.5l.009-1.612h-2.518z" fill="#263238" stroke-miterlimit="10" transform="translate(-222.517 -200.326)"/><path d="m379.419 392.567h-2.038l-.241-38.067h2.52z" fill="#263238" stroke-miterlimit="10" transform="translate(-218.674 -200.326)"/><path d="m342.313 339.091h-42.773l5.428-8.351h31.912z" fill="#fff" stroke-linejoin="round" transform="translate(-177.015 -187.57)"/><path d="m122.525 151.52h42.829v2.825h-42.829z" fill="#fff" stroke-linejoin="round"/><path d="m314.165 263.73h25.983a2.9 2.9 0 0 1 2.895 2.895v28.142h-31.773v-28.133a2.895 2.895 0 0 1 2.895-2.9z" fill="#fff" stroke-linejoin="round" transform="translate(-183.312 -151.597)"/><path d="m424.259 392.567h-2.038l-.241-38.067h2.52z" fill="#fff" stroke-linejoin="round" transform="translate(-242.745 -200.325)"/><path d="m421.989 356.112h2.5l.009-1.612h-2.52z" fill="#263238" stroke-miterlimit="10" transform="translate(-242.745 -200.325)"/><path d="m430.843 392.567h-2.043l-.24-38.067h2.52z" fill="#263238" stroke-miterlimit="10" transform="translate(-246.277 -200.325)"/><path d="m508.159 392.567h-2.038l-.241-38.067h2.52z" fill="#fff" stroke-linejoin="round" transform="translate(-287.785 -200.325)"/><path d="m505.889 356.112h2.5l.009-1.612h-2.52z" fill="#263238" stroke-miterlimit="10" transform="translate(-287.785 -200.325)"/><path d="m501 392.567h-2.038l-.242-38.067h2.52z" fill="#263238" stroke-miterlimit="10" transform="translate(-283.942 -200.325)"/><path d="m463.893 339.091h-42.773l5.433-8.351h31.907z" fill="#fff" stroke-linejoin="round" transform="translate(-242.283 -187.57)"/><path d="m178.837 151.521h42.829v2.825h-42.829z" fill="#fff" stroke-linejoin="round"/><path d="m435.745 263.73h25.983a2.9 2.9 0 0 1 2.895 2.895v28.142h-31.773v-28.133a2.895 2.895 0 0 1 2.895-2.9z" fill="#fff" stroke-linejoin="round" transform="translate(-248.58 -151.597)"/><path d="m437.227 419.432a36.543 36.543 0 0 0 -2.019 3.576c-.408 1.01-3.242 3.64-3.914 4.923s.2 2.362 3.372 2.7 4.317-1.825 5.058-2.779.746-2.316 1.621-2.9 2.561-2.223 2.7-3.844a8.234 8.234 0 0 0 -.2-2.779z" fill="#fff" stroke-miterlimit="10" transform="translate(-247.631 -234.592)"/><path d="m444.049 421.843a8.946 8.946 0 0 0 -.074-2.163 14.437 14.437 0 0 0 -.259 1.556c-.273 2.362-3.1 3.242-3.705 4.585s-1.487 4.048-3.983 4.59c-1.853.4-3.937-.635-4.91-1.2-.176 1.033.857 1.853 3.562 2.149 3.173.333 4.317-1.825 5.058-2.779s.746-2.316 1.621-2.9 2.556-2.217 2.69-3.838z" fill="#fff" stroke-miterlimit="10" transform="translate(-247.64 -235.316)"/><path d="m484.959 419.432a36.334 36.334 0 0 1 2.024 3.576c.4 1.01 3.242 3.64 3.914 4.923s-.2 2.362-3.376 2.7-4.317-1.825-5.058-2.779-.741-2.316-1.616-2.9-2.566-2.223-2.7-3.844a8.3 8.3 0 0 1 .2-2.779z" fill="#fff" stroke-miterlimit="10" transform="translate(-272.877 -234.592)"/><path d="m478.153 421.843a9.189 9.189 0 0 1 .074-2.163 13.275 13.275 0 0 1 .264 1.556c.269 2.362 3.1 3.242 3.705 4.585s1.482 4.048 3.979 4.59c1.853.4 3.942-.635 4.914-1.2.171 1.033-.861 1.853-3.566 2.149-3.168.333-4.317-1.825-5.058-2.779s-.741-2.316-1.616-2.9-2.562-2.217-2.696-3.838z" fill="#fff" stroke-miterlimit="10" transform="translate(-272.883 -235.316)"/><path d="m464.955 328.7c0-2.293-6.322-11.023-6.322-11.023l-2.293-5.405-11.672 1.1h-2.682l-11.672-1.1-2.293 5.405s-6.321 8.729-6.321 11.023a10.237 10.237 0 0 0 .273 3.024l10.19 27.79-.824 1.922.366 1.468a6.031 6.031 0 0 0 3.756 1.1 5.9 5.9 0 0 0 3.942-1.464s.273-3.024.273-4.127-2.015-6.415-2.015-7.513-1.927-21.194-1.927-21.194l7.147-5.053h.894l7.16 5.062s-1.927 20.073-1.927 21.171-2.015 6.415-2.015 7.513.273 4.127.273 4.127a5.9 5.9 0 0 0 3.942 1.464 6.031 6.031 0 0 0 3.756-1.1l.371-1.468-.829-1.922 10.19-27.79a10.6 10.6 0 0 0 .259-3.01z" fill="#263238" stroke-miterlimit="10" transform="translate(-242.595 -177.655)"/></g><path d="m471 328.229s3.664-5.5 8.156-7.059" fill="none" stroke="#7d7d7d" stroke-miterlimit="10" transform="translate(-269.061 -182.433)"/><path d="m479.48 325.384s3.39-2.659 6.688-3.024" fill="none" stroke="#7d7d7d" stroke-miterlimit="10" transform="translate(-273.613 -183.071)"/><path d="m454.55 325.13a19.278 19.278 0 0 1 4.4 4.488" fill="none" stroke="#7d7d7d" stroke-miterlimit="10" transform="translate(-260.23 -184.558)"/><path d="m441.041 235.814-11.181 4.215 2.381 20.435s.824 10.264 1.649 10.653a95.961 95.961 0 0 0 13.561 2.015c2.015-.093 12.737-.366 13.932-2.293s4.488-29.967 4.4-30.7-14.02-5.59-14.02-5.59z" fill="#00264d" stroke="#263238" stroke-linejoin="round" transform="translate(-246.975 -135.932)"/><path d="m455.594 242.759 3.39 4.034 3.756-3.942s2.473-6.6 2.381-7.332-1.829-2.015-1.829-2.015l-6.327-.185-4.4 2.019z" fill="#fff" stroke="#263238" stroke-linejoin="round" transform="translate(-259.167 -135.272)"/><path d="m454.371 230.463-2.371 2.637 3.3 7.874 3.205-3.205 3.942 3.3s1.922-4.488 2.381-5.683a9.438 9.438 0 0 0 .463-2.839l-2.491-2.547z" fill="#fff" stroke="#263238" stroke-linejoin="round" transform="translate(-258.861 -133.489)"/><path d="m455.14 227.741.458 3.024 4.581 5.5 5.132-5.683.273-3.39-5.678 2.751z" fill="#fff" stroke="#263238" stroke-linejoin="round" transform="translate(-260.546 -131.981)"/><path d="m448.435 208.259s-.926.181-.824 1.742 2.381 3.39 2.381 3.39l-.732-5.59z" fill="#fff" stroke="#263238" stroke-linejoin="round" transform="translate(-256.5 -121.571)"/><path d="m450.156 200.917s.824 9.161 1.389 10.078 3.849 4.493 5.317 4.673c.778.1 5.864-3.39 6.23-4.854s.829-4.307.829-4.307 1.1.088 1.737-2.478-.366-3.024-.824-3.024h-.734a32.471 32.471 0 0 0 -.463-4.488c-.283-.732-12.464 1.01-13.561 1.922s.08 2.478.08 2.478z" fill="#fff" stroke="#263238" stroke-linejoin="round" transform="translate(-257.577 -115.42)"/><path d="m471.894 216.988c0 .431-.185.778-.412.778s-.412-.347-.412-.778.185-.778.412-.778.412.366.412.778z" fill="#263238" transform="translate(-269.098 -126.086)"/><path d="m458.434 216.493c0 .426-.185.778-.412.778s-.412-.352-.412-.778.185-.783.412-.783.412.352.412.783z" fill="#263238" transform="translate(-261.872 -125.818)"/><path d="m463.243 223.23s-.093.824.463 1.1a1.26 1.26 0 0 0 1.741-1.1" fill="none" stroke="#263238" stroke-linejoin="round" transform="translate(-264.893 -129.855)"/><path d="m198.623 96.219h1.283" fill="none" stroke="#263238" stroke-linejoin="round"/><path d="m194.228 88.794h3.117" fill="none" stroke="#263238" stroke-linecap="round" stroke-linejoin="round" stroke-width="2"/><path d="m468 212.134s2.015-1.195 3.117 0" fill="none" stroke="#263238" stroke-linecap="round" stroke-linejoin="round" stroke-width="2" transform="translate(-267.45 -123.613)"/><path d="m194.774 91.546 1.561.366" fill="none" stroke="#263238" stroke-linejoin="round"/><path d="m203.847 91.36-1.741.824" fill="none" stroke="#263238" stroke-linejoin="round"/><path d="m461.255 186.409c-.616-1.158-6.6-3.664-10.19-1.649 0 0-4.673 1.649-6.234 5.405-1.218 2.941-.746 4.363 1.315 4.71l1.528 4.363-.185-1.283-.222-2.992c.3 0 .611 0 .954-.032a28.394 28.394 0 0 0 8.707-1.853 7.781 7.781 0 0 0 2.473-1.649 24.372 24.372 0 0 0 0 2.659c.093.732 1.1 1.556 1.1 1.556l.088 2.844.551-.093.366-3.205.463-1.283c.342.469 1.153-3.992-.714-7.498z" fill="#263238" stroke="#263238" stroke-linejoin="round" transform="translate(-254.656 -108.796)"/><path d="m210.54 112.073 3.756 4.673" fill="none" stroke="#263238" stroke-linejoin="round"/><path d="m480.844 251.376 1.468 10.81-14.112 2.108.093 5.683 2.288.185a6.693 6.693 0 0 0 3.668 1.283 142.913 142.913 0 0 0 14.2-1.742c1.829-.459 2.936-.926 3.117-2.659s-3.756-20.069-4.03-21.259-4.766-2.566-4.766-2.566" fill="#00264d" stroke="#263238" stroke-linejoin="round" transform="translate(-267.557 -140.586)"/><path d="m502.885 284.509a8.157 8.157 0 0 0 -4.215-1.01 6.594 6.594 0 0 1 4.122-.366" fill="none" stroke="#263238" stroke-linejoin="round" transform="translate(-283.915 -161.899)"/><path d="m203.023 123.8.185 5.317" fill="none" stroke="#263238" stroke-linejoin="round"/><path d="m453.254 285.214-4.581-.273-5.59-2.751-1.01.551s-2.107 3.942-1.649 4.215 1.1 1.1 1.464 1.1 1.195-.644 1.195-.644 2.2 2.2 3.571 2.2a6.1 6.1 0 0 0 2.473-.551l4.307.551z" fill="#fff" stroke="#263238" stroke-linejoin="round" transform="translate(-252.611 -161.507)"/><path d="m444.538 292.305-1.195-1.005-.273.459" fill="none" stroke="#263238" stroke-linejoin="round" transform="translate(-254.067 -166.397)"/><path d="m197.067 123.249h1.283v4.673h-1.283z" fill="#263238" stroke="#263238" stroke-miterlimit="10"/><ellipse cx="197.711" cy="123.62" fill="#fff" rx="1.283" ry=".732" stroke="#263238" stroke-linejoin="round"/><path d="m424.5 246.38s-4.581 25.659-4.581 27.22 6.688 8.267 6.688 8.267l3.024-2.932-2.015-8.8z" fill="#00264d" stroke="#263238" stroke-linejoin="round" transform="translate(-241.639 -142.283)"/><path d="m425.86 298.381s2.654-1.464 4.581-1.19" fill="none" stroke="#263238" stroke-linejoin="round" transform="translate(-244.828 -169.541)"/><path d="m423.09 297.263s2.288-1.853 4.03-1.853" fill="none" stroke="#263238" stroke-linejoin="round" transform="translate(-243.341 -168.604)"/><path d="m431.4 316.7s-.093-2.751 4.03-2.844" fill="none" stroke="#263238" stroke-linejoin="round" transform="translate(-247.802 -178.508)"/><path d="m437.384 316.62 4.006 1.325a15.044 15.044 0 0 1 .926 2.066c.329 1 .829 1.987.829 2.237s-.083.579-.417.579-1.737-1.241-1.737-1.241l-.824-.417a10.414 10.414 0 0 0 1.32 1.575 12.091 12.091 0 0 1 1.241.741s2.154-.991 2.154-.162-3.145 2.645-3.145 2.645a18.04 18.04 0 0 1 -3.145-.824c-.5-.329-4.233-5.567-4.233-5.567z" fill="#fff" stroke="#263238" stroke-linejoin="round" transform="translate(-249.391 -179.99)"/><g fill="#fff" stroke="#263238" stroke-linejoin="round" transform="translate(32.375 19.625)"><path d="m0 0h75.338v170.213h-75.338z"/><path d="m3.251 5.118h33.019v36.117h-33.019z"/><path d="m7.193 9.425h25.145v27.503h-25.145z"/><path d="m7.193 9.425-3.942-4.307"/><path d="m7.193 36.928-3.942 4.307"/><path d="m32.333 9.425 3.942-4.307"/><path d="m32.333 36.928 3.942 4.307"/><path d="m38.924 5.118h33.019v36.117h-33.019z"/><path d="m42.861 9.425h25.145v27.503h-25.145z"/><path d="m42.861 9.425-3.937-4.307"/><path d="m42.861 36.928-3.937 4.307"/><path d="m68.006 9.425 3.937-4.307"/><path d="m68.006 36.928 3.937 4.307"/><path d="m3.251 44.955h33.019v36.117h-33.019z"/><path d="m7.193 49.262h25.145v27.503h-25.145z"/><path d="m7.193 49.262-3.942-4.307"/><path d="m7.193 76.769-3.942 4.307"/><path d="m32.333 49.262 3.942-4.307"/><path d="m32.333 76.769 3.942 4.307"/><path d="m38.924 44.955h33.019v36.117h-33.019z"/><path d="m42.861 49.262h25.145v27.503h-25.145z"/><path d="m42.861 49.262-3.937-4.307"/><path d="m42.861 76.769-3.937 4.307"/><path d="m68.006 49.262 3.937-4.307"/><path d="m68.006 76.769 3.937 4.307"/><path d="m3.251 88.983h33.019v36.117h-33.019z"/><path d="m7.193 93.29h25.145v27.503h-25.145z"/><path d="m7.193 93.29-3.942-4.307"/><path d="m7.193 120.793-3.942 4.307"/><path d="m32.333 93.29 3.942-4.307"/><path d="m32.333 120.793 3.942 4.307"/><path d="m38.924 88.983h33.019v36.117h-33.019z"/><path d="m42.861 93.29h25.145v27.503h-25.145z"/><path d="m42.861 93.29-3.937-4.307"/><path d="m42.861 120.793-3.937 4.307"/><path d="m68.006 93.29 3.937-4.307"/><path d="m68.006 120.793 3.937 4.307"/><path d="m3.251 128.824h33.019v36.117h-33.019z"/><path d="m7.193 133.132h25.145v27.503h-25.145z"/><path d="m7.193 133.131-3.942-4.307"/><path d="m7.193 160.634-3.942 4.307"/><path d="m32.333 133.131 3.942-4.307"/><path d="m32.333 160.634 3.942 4.307"/><path d="m38.924 128.824h33.019v36.117h-33.019z"/><path d="m42.861 133.132h25.145v27.503h-25.145z"/><path d="m42.861 133.131-3.937-4.307"/><path d="m42.861 160.634-3.937 4.307"/><path d="m68.006 133.131 3.937-4.307"/><path d="m68.006 160.634 3.937 4.307"/><circle cx="3.409" cy="3.409" r="3.409" transform="matrix(.98702441 -.1605703 .1605703 .98702441 65.694 82.129)"/><path d="m254.973 245.971a1.241 1.241 0 1 0 -1.237 1.241 1.241 1.241 0 0 0 1.237-1.241z" transform="translate(-184.132 -161.022)"/></g></svg>