<svg height="24.556" viewBox="0 0 24.507 24.556" width="24.507" xmlns="http://www.w3.org/2000/svg"><path d="m79.019 445.642v1.747a.768.768 0 0 0 .767.767h2.447a.768.768 0 0 0 .767-.767v-1.747z" fill="#454545" transform="translate(-75.135 -423.601)"/><path d="m336.958 445.642v1.747a.768.768 0 0 0 .767.767h2.447a.768.768 0 0 0 .767-.767v-1.747z" fill="#454545" transform="translate(-320.316 -423.601)"/><path d="m449.03 95.65a.4.4 0 0 1 -.4-.4.511.511 0 0 0 -.51-.51h-.437a.4.4 0 1 1 0-.8h.437a1.308 1.308 0 0 1 1.307 1.306.4.4 0 0 1 -.397.404z" fill="#cacaca" transform="translate(-425.188 -89.299)"/><path d="m22.909 5.883h1.598v4.314h-1.598z" fill="#6f6f6f"/><path d="m6.279 95.65a.4.4 0 0 0 .4-.4.511.511 0 0 1 .51-.51h.437a.4.4 0 0 0 0-.8h-.438a1.308 1.308 0 0 0 -1.307 1.306.4.4 0 0 0 .398.404z" fill="#cacaca" transform="translate(-5.615 -89.299)"/><path d="m0 5.883h1.598v4.314h-1.598z" fill="#6f6f6f"/><path d="m59.762 0h-17.453a1.535 1.535 0 0 0 -1.535 1.535v13.8h20.526v-13.8a1.534 1.534 0 0 0 -1.538-1.535z" fill="#86daf1" transform="translate(-38.782)"/><path d="m40.774 411.85v.422a1.535 1.535 0 0 0 1.535 1.535h17.453a1.535 1.535 0 0 0 1.535-1.535v-.422z" fill="#ed6262" transform="translate(-38.782 -391.48)"/><path d="m1.992 18.164h20.523v2.203h-20.523z" fill="#cd484b"/><path d="m1.992 14.846h20.523v3.321h-20.523z" fill="#f3f3f3"/><path d="m1.992 4.297h20.523v9.59h-20.523z" fill="#6f6f6f"/><path d="m11.706 4.297h1.096v9.59h-1.096z" fill="#454545"/><path d="m1.992 13.886h20.523v.959h-20.523z" fill="#86daf1"/><circle cx="4.204" cy="19.268" fill="#f3f3f3" r=".6"/><circle cx="5.731" cy="19.268" fill="#ffe21f" r=".6"/><circle cx="18.776" cy="19.268" fill="#ffe21f" r=".6"/><circle cx="20.302" cy="19.268" fill="#f3f3f3" r=".6"/><path d="m366.942 316.866h-1.471a.834.834 0 1 0 0 1.667h1.471a.834.834 0 1 0 0-1.667z" fill="#ffbd49" transform="translate(-346.627 -301.194)"/><path d="m68.213 316.866h-1.471a.834.834 0 1 0 0 1.667h1.471a.834.834 0 0 0 0-1.667z" fill="#ffbd49" transform="translate(-62.673 -301.194)"/><path d="m104.99 13.545h-12.128a1.478 1.478 0 0 0 0 2.957h12.128a1.478 1.478 0 0 0 0-2.957z" fill="#454545" transform="translate(-86.889 -12.875)"/><path d="m61.3 86.869h-20.526v4.647a.847.847 0 0 0 .783.857.81.81 0 0 0 .857-.81v-1.5a.689.689 0 0 1 .727-.68h.018a.7.7 0 0 1 .727.68v1.661a.847.847 0 0 0 .764.866.823.823 0 0 0 .862-.8v-2.22a.819.819 0 0 1 .859-.818.848.848 0 0 1 .77.859v2.119a.85.85 0 0 0 .769.833.818.818 0 0 0 .857-.82l.009-1.806a.819.819 0 0 1 .857-.82.855.855 0 0 1 .774.866v1.954a.815.815 0 0 0 1.63-.028v-2.326a.685.685 0 0 1 .745-.68.649.649 0 0 1 .689.643v2.278a.848.848 0 0 0 .764.866.826.826 0 0 0 .866-.82v-1.7a.683.683 0 0 1 .736-.68.726.726 0 0 1 .727.718v1.308a.846.846 0 0 0 .774.857.818.818 0 0 0 .866-.81v-1.5a.687.687 0 0 1 .718-.68h.028a.687.687 0 0 1 .718.68v1.661a.855.855 0 0 0 .773.866.819.819 0 0 0 .857-.82v-4.9z" fill="#fff" opacity=".1" transform="translate(-38.782 -82.572)"/></svg>